<svg xmlns="http://www.w3.org/2000/svg" viewBox="0 0 84.77 42.39"><defs><style>.cls-1{fill:#61649b;}</style></defs><title>Asset 1</title><g id="Layer_2" data-name="Layer 2"><g id="Layer_1-2" data-name="Layer 1"><path class="cls-1" d="M85.44,10.91c.15,0-.06-.39-.06-.47C85.18,10.62,85.49,11,85.44,10.91Z" transform="translate(-0.73)"/><polygon class="cls-1" points="82.82 12.74 82.79 12.56 82.62 13.09 82.82 12.74"/><path class="cls-1" d="M81.44,13.64c.48.57.72-.44,1.19-.37l.13.12-.06-.6C82.28,13.07,81.84,13.68,81.44,13.64Z" transform="translate(-0.73)"/><path class="cls-1" d="M79.7,12.72c.18.22-.15.32.3,0l-.08,0Z" transform="translate(-0.73)"/><path class="cls-1" d="M79.92,12.64c.21-.12-.24-.15,0,0Z" transform="translate(-0.73)"/><path class="cls-1" d="M79,13.23l.19-.35c-.13-.13-.4-.05-.36-.2C78.55,12.94,78.68,13.06,79,13.23Z" transform="translate(-0.73)"/><path class="cls-1" d="M78.89,13.83l.11-.16C79,13.62,78.9,13.61,78.89,13.83Z" transform="translate(-0.73)"/><path class="cls-1" d="M79.23,13.32l-.23.35c.09.08.19.29.12-.14C79.18,13.73,79.16,13.52,79.23,13.32Z" transform="translate(-0.73)"/><path class="cls-1" d="M79.46,13.34c.22.07.48.07.28.42C80.26,13.43,80,13,79.46,13.34Z" transform="translate(-0.73)"/><path class="cls-1" d="M81.63,14.36l.3.1.09-.3C82,14.31,81.53,14.16,81.63,14.36Z" transform="translate(-0.73)"/><path class="cls-1" d="M77,13.71c0,.15.26.33.37.49L77.5,14C77.35,13.9,77.1,13.91,77,13.71Z" transform="translate(-0.73)"/><path class="cls-1" d="M77.36,14.2l-.22.39C77.44,14.49,77.44,14.35,77.36,14.2Z" transform="translate(-0.73)"/><polygon class="cls-1" points="78.43 14.58 78.74 13.84 78.33 14.63 78.43 14.58"/><polygon class="cls-1" points="75.02 14.25 75.06 13.85 74.95 14.48 75.02 14.25"/><path class="cls-1" d="M75,14.68c0-.32-.39-.36-.32-.59a1.43,1.43,0,0,0-.36.75C74.41,14.64,74.62,14.58,75,14.68Z" transform="translate(-0.73)"/><path class="cls-1" d="M74.14,15.27a1.67,1.67,0,0,0,.14-.43A1,1,0,0,0,74.14,15.27Z" transform="translate(-0.73)"/><path class="cls-1" d="M76.56,14.77a.62.62,0,0,0-.43-.28l.3.33Z" transform="translate(-0.73)"/><path class="cls-1" d="M76.44,14.83h0l-.28.1Z" transform="translate(-0.73)"/><path class="cls-1" d="M76.6,14.75l0,0S76.61,14.81,76.6,14.75Z" transform="translate(-0.73)"/><path class="cls-1" d="M78.17,14.61c-.1.3-.38.71.15.87C78.33,15.15,78,15.06,78.17,14.61Z" transform="translate(-0.73)"/><path class="cls-1" d="M77,15.17l.39-.07c-.06-.1-.19-.22-.14-.37Z" transform="translate(-0.73)"/><polygon class="cls-1" points="76.13 15.37 76.25 15.17 76.1 15.19 76.13 15.37"/><path class="cls-1" d="M74.89,15.36a.78.78,0,0,1-.39.44,1.68,1.68,0,0,0,.64-.16C75.11,15.51,75.09,15.25,74.89,15.36Z" transform="translate(-0.73)"/><path class="cls-1" d="M75.66,15.13l0,0S75.69,15.2,75.66,15.13Z" transform="translate(-0.73)"/><path class="cls-1" d="M72.71,16.63l.06.06,0-.07Z" transform="translate(-0.73)"/><path class="cls-1" d="M75.2,15.7c.18,0,.23-.13.25-.28a1.44,1.44,0,0,1-.31.22C75.15,15.7,75.16,15.74,75.2,15.7Z" transform="translate(-0.73)"/><path class="cls-1" d="M73.72,15.68a1.54,1.54,0,0,0,.35.1C73.94,15.69,73.7,15.57,73.72,15.68Z" transform="translate(-0.73)"/><path class="cls-1" d="M75.54,15.09v0C75.47,15,75.49,15,75.54,15.09Z" transform="translate(-0.73)"/><path class="cls-1" d="M75.54,15.09a1.06,1.06,0,0,0-.09.33,1.1,1.1,0,0,0,.19-.25Z" transform="translate(-0.73)"/><path class="cls-1" d="M73.35,19.37c-.14-.37.08-.89.59-.66.19-.42-.57-1.5-1.17-2,.07.16.14.3-.1.67.21.14,1,.11.83.57-.35.39-.42,0-.72-.05.39.36-.26.92.15,1.53l.28-.42C73.26,19.09,73.2,19.32,73.35,19.37Z" transform="translate(-0.73)"/><path class="cls-1" d="M73.43,16.42l.12-.11c-.19,0-.37-.08-.71-.26a.68.68,0,0,0-.09.57l.7-.27Z" transform="translate(-0.73)"/><path class="cls-1" d="M74.16,16c.08.44-.17.76.23,1.09.39-.21.13-.45.29-.74-.61.4.09-.3-.49-.3a1.09,1.09,0,0,1,.31-.27,2.07,2.07,0,0,1-.43,0l0,0h0c.06,0,.08.06,0,0h0a.34.34,0,0,1,0,.16c-.22,0-.07-.08,0-.16l0-.06h0l-.55.51A1.33,1.33,0,0,0,74.16,16Z" transform="translate(-0.73)"/><path class="cls-1" d="M78.35,16.48a.12.12,0,0,1-.06-.08C78.27,16.47,78.26,16.51,78.35,16.48Z" transform="translate(-0.73)"/><path class="cls-1" d="M78,16.37c0-.08,0-.25.17-.28s.08.18.15.31c0-.15.2-.43-.18-.49l0,.08a1.53,1.53,0,0,1-.86-.43A4.08,4.08,0,0,0,78,16.37Z" transform="translate(-0.73)"/><path class="cls-1" d="M76.1,16.3l-.46.44.44.21-.11-.2C76.31,16.69,76.13,16.47,76.1,16.3Z" transform="translate(-0.73)"/><polygon class="cls-1" points="71.83 16.47 71.7 16.02 71.67 16.75 71.83 16.47"/><polygon class="cls-1" points="71.15 16.85 71 16.48 70.92 16.79 71.15 16.85"/><path class="cls-1" d="M34.07,41.94c-.1,0-.2,0-.3,0A.64.64,0,0,0,34.07,41.94Z" transform="translate(-0.73)"/><path class="cls-1" d="M36.09,42.12l0-.2C36,42,36,42.12,36.09,42.12Z" transform="translate(-0.73)"/><path class="cls-1" d="M54.84,25.73c-.4-.2-.93-.56-.69-.18l.28.34A.38.38,0,0,1,54.84,25.73Z" transform="translate(-0.73)"/><path class="cls-1" d="M44.89,34.62l.13.07L45,34.25Z" transform="translate(-0.73)"/><path class="cls-1" d="M45.68,36.24l-.43-.06A1.31,1.31,0,0,0,45.68,36.24Z" transform="translate(-0.73)"/><path class="cls-1" d="M27.29,37.72l-.44.22C27.1,38.14,27.13,37.88,27.29,37.72Z" transform="translate(-0.73)"/><path class="cls-1" d="M64.77,20.54a1.22,1.22,0,0,0-.62,0C64.5,20.66,64.87,20.9,64.77,20.54Z" transform="translate(-0.73)"/><path class="cls-1" d="M35.36,37.48a.49.49,0,0,0-.1.26A.36.36,0,0,0,35.36,37.48Z" transform="translate(-0.73)"/><path class="cls-1" d="M63.58,20.86l.15,0a.93.93,0,0,1,.42-.33C63.89,20.49,63.64,20.49,63.58,20.86Z" transform="translate(-0.73)"/><path class="cls-1" d="M7.24,23.27a.25.25,0,0,1,0-.07S7.2,23.26,7.24,23.27Z" transform="translate(-0.73)"/><path class="cls-1" d="M3,15.87a1.07,1.07,0,0,1,.28.12C3.26,15.93,3.18,15.89,3,15.87Z" transform="translate(-0.73)"/><path class="cls-1" d="M69,18.05c.14-.1,0-.05,0,0Z" transform="translate(-0.73)"/><path class="cls-1" d="M70.43,19.24a.38.38,0,0,0,0,.22A.53.53,0,0,1,70.43,19.24Z" transform="translate(-0.73)"/><path class="cls-1" d="M63.37,24h0C63.44,24.07,63.42,24.06,63.37,24Z" transform="translate(-0.73)"/><path class="cls-1" d="M69.27,18.12a.69.69,0,0,0-.25,0A1.21,1.21,0,0,0,69.27,18.12Z" transform="translate(-0.73)"/><path class="cls-1" d="M69.15,18l.15,0C69.29,17.85,69.25,17.82,69.15,18Z" transform="translate(-0.73)"/><path class="cls-1" d="M68.76,18.18A.61.61,0,0,1,69,18.1s-.06,0-.06-.05Z" transform="translate(-0.73)"/><path class="cls-1" d="M19,29.53v-.05C18.8,29.53,18.88,29.55,19,29.53Z" transform="translate(-0.73)"/><path class="cls-1" d="M53.36,31.77v0h0Z" transform="translate(-0.73)"/><path class="cls-1" d="M53,32.34c0-.59.1-.61.32-.6l-.79-1Z" transform="translate(-0.73)"/><path class="cls-1" d="M30.45,39.93c0,.19.05.39.09.59-.85.12-1-.26-1,.4.46-.5.8-.25,1.21,0s.91.58,1.31,0a4.13,4.13,0,0,0,.17.45c-.09-.07-.15,0-.23-.09a.41.41,0,0,0,.35.36.79.79,0,0,0,.43-.16c.31-.19.63-.42,1.07-.16s.53.45.24.55a4.2,4.2,0,0,0,.87-.18c.23.05.16.28-.08.23a4.89,4.89,0,0,0,1.27-.11v0l.63-.81c.33.11-.11.18,0,.32a6.2,6.2,0,0,0,.52-.5c.38.23,0,.76-.53.83.46.58.63.44.82.21a1.32,1.32,0,0,1,.4-.37,1.11,1.11,0,0,1,.74-.11l-.45.41c.68.53,1,.06,1.76.16-.26-.13-1.69-.44-1.29-1,.2,0,.42-.07.53-.46.26.41.45.15.72-.06l.33.55c.21-.35,0-.6,0-.95.36-.16.69.21,1,.51.57-.25-.79-.43-.25-.93.56-.07.72-.49,1-1.14.42,0,.16.36.37.44v-.6c.07,0,.13.12.16.19.12-.31-.32-.55-.06-.93-.28-.65,1.28.41,1.29-.54.21.08.16.36.33.55a4.12,4.12,0,0,0,.43-1.56l.65.09c-.57-.21-.47-1-.36-1.56-.24-.13-.44-.24-.56-.29l.39-.63c.12,0,.18.26.23.55a1.5,1.5,0,0,0,0-.2c.33.08.42.46.46.85L45,34.69a2.66,2.66,0,0,0,.39,1.16.45.45,0,0,1,.09-.26.45.45,0,0,0,.1.25s0-.11,0-.3l.51.52L46,35.8l1-.07c.15-.93,0-2.12.74-2.87.06.57.4.75.71,1.29-.57-.43-.5.63-1,.78.26-.08.36.21.36.33l.46-1c.24.44.36.22.67.28-.67-.76.23-.92.39-1.37.19.28.29.62-.13.78.81.39-.06-1.34.69-1-.09.06-.17,0-.12.22.07-.39.72-.51.75-.18l-.09.06c.68-.27,1.9-1.11,1.57-1.9a11.65,11.65,0,0,1,.48,1.1l-.31-3.13c.26.69,1.51,2,1.2,2.64a.58.58,0,0,0,.63-.41c-.15,0-.78-.76-.67-.9.79.48.48.22,1.3.55-.23-.05-.63-1.14-.37-1.25,0,.17.58,1,.55,1.13l.05-1.32c-.05.26.45.84.74,1-.17-.16.53-.28.64-.47L55.84,30c.77-.24-.1-1.76.61-2.09,0,.25.5,1.36.91,1.29-.12-.59-.64-2.81-.25-3.54l.28.23.29-.59a23.52,23.52,0,0,1,.1,3.83c.38.09.26.3.63.06.28.2,0,.53-.09.6l1-.31c-.37-.57.36-1,0-1.45l-.63,1.15c-.37-.56-.36-2,.33-2.23.29.15.46,1.12.58,1.31,0-.25.39-.72.53-.61l-.1.46c.47,0,.15-1.09.89-.76.17,0,.85.53.68.16a10.32,10.32,0,0,1-1.88-3.2,5.68,5.68,0,0,1,1.47.47c.53.4.31,1.46.76,1.8a1.1,1.1,0,0,1,0-.53c.23.06.21.54.51.28-.27-.63.71-.32-.12-.59.24-.35.42-.06.8-.3A2.11,2.11,0,0,1,63,23.62a1.32,1.32,0,0,0,.33.39c.71-.3,1.22-.21,1.86-.54.13.11.53.14.54.46,0-.15,0-.4.2-.51.65.33-.4.3.22.78-.16-.36.26-.74.43-1.11-.37-.5-.71.23-.87.59a2.48,2.48,0,0,1,.19-2.47c.44-.46.48.37.52.21,1.07-.37.19-1.75,1.31-1.62.57.31.49.95.73,1.26-.34.39-.82,0-1.1.19l.47.05c-.05.23-.28.49-.51.44.49.28,1.74-.77,2.71-.75.06-.23.21-.52,0-.65l-.22.18c-.41-.27.2-.76-.2-.79.2-.44.36-1.05.93-1.06l.36.51c-.09-.16-.47-.18-.51.05.07-.34,1.07.4.94-.42l-.52-.23c.2-.43.34-1.22.84-1.24-.45-.46-.07.1-.67-.39.64.67-1.08.47-.27,1.11-.66-.59-.68-.06-1.38-.5.1.18.31.28-.08.36a1.33,1.33,0,0,1,0,.2h0s0,0,0,0a.65.65,0,0,1,.31.19c0,.5-.52.76-.61,1.06-.24,0,0-.25-.22-.38l-.12.46c-.23-.39-.88-.4-.51-.88l-.45.2a.77.77,0,0,0-.9.26c-.25,0-.3.71-.28.31L66,20l-.06-.09c-.7.29-1,1.36-2.19,1a1.16,1.16,0,0,1-.78.55l-.25-.31c-.23.28-1.05.11-1,.54-.8-.77-1.51.53-2.1.65l.22.45a3,3,0,0,0-1,.88l.24.38c-.19.53-1.11.24-1.67.6,0-.17.13-.21.28-.18-1.18-.5-1.12,1.46-2.11,1.17a.27.27,0,0,1-.38.2l0,0-.07,0a2.09,2.09,0,0,0-.34-.08,1,1,0,0,0,.3.1,1.53,1.53,0,0,0-.39.43l-.32-.37s0,0,0,0c-.27-.05,0,.28.24.54a1.24,1.24,0,0,0-.1.39c-.52-.6-.34.5-.94-.11.08.42-.76.77-.43,1.57-.06-.1-.14-.11-.05-.17-.24,0-.49.06-.55.37L52.18,28l0,1c-.45-.17-.66-.29-.64-.85-.27,1-.38.53-.55,1.47l-.17-.36c-.19.13-.23.76-.51.55-.82-.41-2.17,1.17-3.63,1.23.82.87-.78-.14-.35.66-.21-.2-.44-.24-.39-.55-.41.57-1.06.14-1,1-.21-.2-.09-.42-.24-.53,0,.08,0,.32-.19.21s0-.24,0-.4c-.54.39-.15,1.15.23,1.85-.49-.14-.61,0-.54.56-.23-.16-.55-.29-.24-.58-.22.08-1.41.43-1.09,1-.15-.09-.3.14-.31.23a4.15,4.15,0,0,0-.94.55h.18c.24.76-.27.38-.57.68l0-.08c-1.1.05-.2.45-1.33.42l.31.38c.48.91-1-.06-1.27.56l.31.13c0,.45-1.47-.72-1.77-.67-.1,0,0-.18,0-.28-1-.12.25.58-.12,1-.25-.24-.36-.79-.66-.68-.14-.07-.18.27-.28.58s-.2.54-.39.26c.1.24.26.46.16.7-.11.08-.31-.12-.45-.27s-.23-.22-.39.18a.74.74,0,0,1,0-.21c-.19.2-.6.2-.92.52.12-.41.17-.55.06-.66a1.21,1.21,0,0,0-.54-.14c-.43-.06-.9-.15-.4-.73l-.78-.56.12-.1c-.42-.48-.82-.34-1.23-.2,0-.18.13-.22.19-.27-.49-.83-.61-.83-1.69-.73l.26-.44c-.34.1-.53-1.44-1.6-1.55a.45.45,0,0,1,.22-.11c-1.15-.17-1.06-2.58-2.46-1.38l-.8-.06c.6.64-.57.55-.48,1-.33-.12-.35-1,0-.78v.11c.69-.66-.65-.91-.24-1.41-1.38-1-2.41-2.38-3.68-3.33l-.28.7-.42-.35c0-.22.17-.58.47-.33.07-.46-.74-.1-.84,0-.46-.69.74-.53.56-.68l-.3-.14v.11c-.39.1-.58.34-.95,0-.17-.29.13-.46.05-.55s0-.08-.14-.12l-.54-.44-.1.63c-.42.06-.52-.39-.63.33.19-1.11-1.95-1.75-2-2.17a1.55,1.55,0,0,1-1.36-.46c.05.18-.24.76-.58.45.87-1-.38-.94-.18-1.95-.06.71-1.18-.56-1.22.49-.27-.3.24-.44.17-.86-1,0-1.53-1.34-2.58-1.77-.11.14-.09.47-.43.57l0-1.06c-.24,0-.7.77-.73,0,0,.16-.07.39-.23.36-1.46-1.86-4.22-1.61-5.41-4.08.11.44-.09.38-.3.28.1.14-.2.38-.29.6l-.52-1c-.45.51-.9-.42-1.28.09l.31,0c-.69.48-.28,1.72-.78,2.54.78-.54.42,1.64,1.61.91.05.25-.26.21-.29.44a.51.51,0,0,1,.85.11l-.09.07c1,.44,1.26,1,2.23,1.9l.15-.46c.21.19.18.34.23.51.63-.47-.64-.41,0-1-.16,1,1.66,1,1.32,2,.35.22.17-.53.52-.32l0,.31.29-.27a.73.73,0,0,1,0,.8c0-.06-.2,0-.27-.05.13.48.92.41,1,.57L8,23.48c1.13.34,2.11,1.4,3.36,1.48l0-.24c.94.1.44.57,1.32.91l-.06,0a.84.84,0,0,1,.75.11c-.34.1.09.67-.32.75,1,.12.57-.05,1.53-.42l-.09.39c.36-.16.47-.3.91-.13-.5.06-.07.64-.66.75.36,1.21,1.66.12,1.36,1.36.95-.6-.37-.95,0-1,0-.4.73-.43.93-.17s-.31,1.39.35,1.81c-.06-.05-.11,0-.17,0,.09.38.67,0,.72.59.52-.39.36.3.86-.32l-.69-.26c.45.06,1.29-.47,1.58.28a1.31,1.31,0,0,1-.6.17c0,.31.4.1.43.41-.51.61-.81-.36-1.51-.12,0,.4,1,0,.32.58.89-.71.55.55,1.46.18l-.3.37c.11,0,.38-.1.49,0l-.58.34c.65-.18.39.85.89.86-.7-.49.18-.57.09-1.07,1.23.12-.23,1.36.85,1.88-.17-.05-.32-.59,0-.62a1.42,1.42,0,0,1,.21.82c.68.39.19-.46.63-.5-.13.63.45.05.84.1l-.29.39c.53.78.8-.66,1.21.13l-.67.32.44.12-.41.38c.61,0,.66.13.92.52.12-.33.58-.65.9-.42,0,.39-.4.27.09.55-.29.16-.63.38-.55-.12-.12.11-.28.16-.4.27,0,.44.53.5.69.62a.32.32,0,0,1-.1-.22l1.05,0c0,.22-.18.27-.35.32.16.06.39,0,.6.08-.29.27-.53.59-.91.52l.87.14c-.06.17,0,.62-.15.67.19.44,1.29.06,1.54.66a.38.38,0,0,1,.29,0c.36.41.42,1.07,1.24,1.07l-.18.77c.48.2.2-1,1-.66.59.21-.22.6-.19.88.46-.08,1.28-.32,1.38.51C30.66,40.18,30.61,40,30.45,39.93ZM38.7,41c-.07.15-.22.58-.45.37C38.17,40.82,38.4,41,38.7,41Zm7.45-6.09c0,.18-.15.19-.38.11A.38.38,0,0,1,46.15,34.93ZM67.5,19.21v0C67.17,19.19,67.29,19.21,67.5,19.21Zm.6-.06A.17.17,0,0,0,68,19c0,.12-.09.19-.23.22C67.89,19.27,68,19.32,68.1,19.15ZM19.46,25.86l0,.17C19.2,26,19.33,25.94,19.46,25.86Z" transform="translate(-0.73)"/><path class="cls-1" d="M45.59,36.05a1.16,1.16,0,0,1-.18-.2A.19.19,0,0,0,45.59,36.05Z" transform="translate(-0.73)"/><path class="cls-1" d="M27.37,37.68h0a.18.18,0,0,0-.07,0Z" transform="translate(-0.73)"/><path class="cls-1" d="M62.3,26.73a.58.58,0,0,1-.31-.12A.23.23,0,0,0,62.3,26.73Z" transform="translate(-0.73)"/><path class="cls-1" d="M70.41,17.1l-.27.27a.35.35,0,0,1,.36,0C70.44,17.28,70.31,17.16,70.41,17.1Z" transform="translate(-0.73)"/><path class="cls-1" d="M74.5,18.46c0-.07.1-.05.12-.13l-.11-.19C74.31,18.24,74.25,18.47,74.5,18.46Z" transform="translate(-0.73)"/><path class="cls-1" d="M71.41,18.4c.2.36.34.14.53,0a.05.05,0,0,1,0,0C71.72,17.84,71.56,18.12,71.41,18.4Z" transform="translate(-0.73)"/><path class="cls-1" d="M72,18.32a.56.56,0,0,1,.2-.11C72.12,18,72.09,18.21,72,18.32Z" transform="translate(-0.73)"/><path class="cls-1" d="M68.62,18.59c.15,0-.17-.49,0-.38C68.48,17.69,68.15,19.13,68.62,18.59Z" transform="translate(-0.73)"/><polygon class="cls-1" points="71.44 19.52 71.14 19.11 71.19 19.53 71.44 19.52"/><path class="cls-1" d="M70.23,20.05l.42-.05a.18.18,0,0,1,0-.2C70.44,19.89,70.16,19.92,70.23,20.05Z" transform="translate(-0.73)"/><path class="cls-1" d="M70.67,19.8c.12-.05.23-.11.25-.22A1,1,0,0,0,70.67,19.8Z" transform="translate(-0.73)"/><polygon class="cls-1" points="71.01 19.89 70.86 19.85 70.59 19.94 71.01 19.89"/><path class="cls-1" d="M66.35,21.88l-.33.33a.17.17,0,0,0,.31.08C66.37,22.13,66.48,22,66.35,21.88Z" transform="translate(-0.73)"/><path class="cls-1" d="M68.14,22.51c-.15,0-.21-.14-.34-.25l.26.56Z" transform="translate(-0.73)"/><path class="cls-1" d="M67.07,23.21c0,.18-.33.73.14.45C67.17,23.48,67.49,23.16,67.07,23.21Z" transform="translate(-0.73)"/><polygon class="cls-1" points="60.18 25.55 60.27 25.49 59.78 24.6 60.18 25.55"/><path class="cls-1" d="M57,30.45c.56,0-.2-.61.35-.57,0-.27-.45,0-.45-.27C56.8,30,56.59,29.93,57,30.45Z" transform="translate(-0.73)"/><path class="cls-1" d="M56.94,29.61a1,1,0,0,0,.07-.22A.75.75,0,0,0,56.94,29.61Z" transform="translate(-0.73)"/><polygon class="cls-1" points="1.44 14.82 1.24 14.47 1.28 14.88 1.44 14.82"/><path class="cls-1" d="M1.25,15.19l.23-.62L1,15C1.11,15,1.27,15,1.25,15.19Z" transform="translate(-0.73)"/><path class="cls-1" d="M40.33,41.57l-.07-.15c-.13-.11-.22-.08-.38,0Z" transform="translate(-0.73)"/><path class="cls-1" d="M33.21,42.33l.13.06c0-.21,0-.43,0-.64Z" transform="translate(-0.73)"/><path class="cls-1" d="M28.76,40.15c.1.12.32.13.42.25C28.86,40.27,29.2,39.57,28.76,40.15Z" transform="translate(-0.73)"/><path class="cls-1" d="M61.54,7.46c.1,0-.14-.36-.16-.44C61.28,7.19,61.59,7.55,61.54,7.46Z" transform="translate(-0.73)"/><polygon class="cls-1" points="59.84 9.1 59.78 8.93 59.78 9.42 59.84 9.1"/><path class="cls-1" d="M59.23,9.85c.48.55.43-.38.79-.29l.12.12L60,9.12C59.72,9.36,59.53,9.9,59.23,9.85Z" transform="translate(-0.73)"/><path class="cls-1" d="M57.76,8.91c.18.21,0,.29.21,0l-.07-.05A.43.43,0,0,1,57.76,8.91Z" transform="translate(-0.73)"/><path class="cls-1" d="M57.9,8.84c.14-.1-.2-.15,0,0Z" transform="translate(-0.73)"/><path class="cls-1" d="M57.33,9.35,57.4,9c-.12-.12-.31-.06-.3-.2C57,9.06,57.09,9.17,57.33,9.35Z" transform="translate(-0.73)"/><path class="cls-1" d="M57.41,9.9l.05-.14C57.41,9.71,57.37,9.7,57.41,9.9Z" transform="translate(-0.73)"/><path class="cls-1" d="M57.55,9.45l-.09.31c.08.08.2.28,0-.13C57.6,9.83,57.54,9.63,57.55,9.45Z" transform="translate(-0.73)"/><path class="cls-1" d="M57.72,9.48c.18.07.36.08.3.4C58.33,9.6,58,9.19,57.72,9.48Z" transform="translate(-0.73)"/><path class="cls-1" d="M59.53,10.53l.24.1v-.28C59.77,10.49,59.41,10.34,59.53,10.53Z" transform="translate(-0.73)"/><path class="cls-1" d="M56,9.68c.07.14.27.32.38.48l.05-.23C56.3,9.88,56.11,9.87,56,9.68Z" transform="translate(-0.73)"/><path class="cls-1" d="M56.37,10.16l-.08.34C56.49,10.42,56.46,10.3,56.37,10.16Z" transform="translate(-0.73)"/><polygon class="cls-1" points="57.04 10.61 57.11 9.94 56.98 10.65 57.04 10.61"/><polygon class="cls-1" points="54.47 10.11 54.42 9.73 54.47 10.31 54.47 10.11"/><path class="cls-1" d="M54.71,10.45c-.05-.3-.36-.36-.35-.57a1.11,1.11,0,0,0-.12.67C54.3,10.38,54.44,10.34,54.71,10.45Z" transform="translate(-0.73)"/><path class="cls-1" d="M54.22,10.94a1.18,1.18,0,0,0,0-.39A1.12,1.12,0,0,0,54.22,10.94Z" transform="translate(-0.73)"/><path class="cls-1" d="M55.9,10.63c-.06-.07-.21-.26-.37-.28l.29.32Z" transform="translate(-0.73)"/><path class="cls-1" d="M55.83,10.68h0l-.19.08Z" transform="translate(-0.73)"/><path class="cls-1" d="M55.92,10.62h0S55.94,10.68,55.92,10.62Z" transform="translate(-0.73)"/><path class="cls-1" d="M57,10.58c0,.27-.13.64.3.82C57.28,11.09,57,11,57,10.58Z" transform="translate(-0.73)"/><path class="cls-1" d="M56.29,11l.26,0c-.06-.09-.18-.21-.18-.35Z" transform="translate(-0.73)"/><polygon class="cls-1" points="55.52 11.21 55.56 11.03 55.46 11.05 55.52 11.21"/><path class="cls-1" d="M54.79,11.08a.44.44,0,0,1-.2.38.78.78,0,0,0,.44-.11C55,11.23,54.92,11,54.79,11.08Z" transform="translate(-0.73)"/><path class="cls-1" d="M55.32,10.92v0S55.35,11,55.32,10.92Z" transform="translate(-0.73)"/><path class="cls-1" d="M53.45,12.1l.06.06,0-.07Z" transform="translate(-0.73)"/><path class="cls-1" d="M55.09,11.41c.14,0,.14-.1.13-.25a.5.5,0,0,1-.19.19C55.06,11.41,55.07,11.45,55.09,11.41Z" transform="translate(-0.73)"/><path class="cls-1" d="M54,11.29l.28.12C54.17,11.32,54,11.19,54,11.29Z" transform="translate(-0.73)"/><path class="cls-1" d="M55.22,10.87v0C55.15,10.78,55.17,10.82,55.22,10.87Z" transform="translate(-0.73)"/><path class="cls-1" d="M55.22,10.87a.94.94,0,0,0,0,.29.67.67,0,0,0,.09-.21Z" transform="translate(-0.73)"/><path class="cls-1" d="M54.45,14.68c-.18-.35-.11-.81.31-.56.06-.37-.71-1.43-1.25-2a.71.71,0,0,1,.05.62c.18.14.73.17.72.58-.18.34-.3,0-.54-.09.36.36,0,.83.41,1.42l.12-.36C54.33,14.43,54.33,14.63,54.45,14.68Z" transform="translate(-0.73)"/><path class="cls-1" d="M53.94,12l.06-.09c-.13,0-.29-.1-.57-.3a.81.81,0,0,0,0,.52l.47-.2Z" transform="translate(-0.73)"/><path class="cls-1" d="M54.4,11.64c.14.42,0,.7.38,1,.24-.17,0-.42.07-.67-.37.33,0-.28-.43-.32a.58.58,0,0,1,.17-.22,1.81,1.81,0,0,1-.31-.05h0s.06.06,0,.05h0a1,1,0,0,1,.07.15c-.17,0-.08-.09-.07-.15l0-.06h0l-.3.45C54.12,11.87,54.22,11.8,54.4,11.64Z" transform="translate(-0.73)"/><path class="cls-1" d="M57.57,12.33a.16.16,0,0,1-.06-.08C57.5,12.31,57.51,12.35,57.57,12.33Z" transform="translate(-0.73)"/><path class="cls-1" d="M57.27,12.2c0-.07-.06-.23.06-.25s.1.18.18.3c0-.13.05-.39-.24-.46v.07a1.56,1.56,0,0,1-.72-.45A5.36,5.36,0,0,0,57.27,12.2Z" transform="translate(-0.73)"/><path class="cls-1" d="M55.87,12l-.24.39.36.22-.12-.19C56.11,12.4,55.93,12.19,55.87,12Z" transform="translate(-0.73)"/><polygon class="cls-1" points="52.57 11.94 52.4 11.51 52.51 12.19 52.57 11.94"/><polygon class="cls-1" points="52.15 12.24 51.97 11.89 51.97 12.16 52.15 12.24"/><path class="cls-1" d="M27.73,20l-.16,0Z" transform="translate(-0.73)"/><path class="cls-1" d="M28.38,20.54l.14-.14C28.42,20.46,28.36,20.51,28.38,20.54Z" transform="translate(-0.73)"/><path class="cls-1" d="M41.73,18.59c-.33-.23-.78-.64-.54-.26l.26.35A.2.2,0,0,1,41.73,18.59Z" transform="translate(-0.73)"/><path class="cls-1" d="M35.25,23.17l0,.15a3.71,3.71,0,0,0,.28-.3Z" transform="translate(-0.73)"/><path class="cls-1" d="M34.25,24.67l-.11-.45A1.53,1.53,0,0,0,34.25,24.67Z" transform="translate(-0.73)"/><path class="cls-1" d="M23.79,17.53l-.37.27C23.59,17.92,23.65,17.69,23.79,17.53Z" transform="translate(-0.73)"/><path class="cls-1" d="M48.3,15a.67.67,0,0,0-.45,0C48.13,15.1,48.44,15.35,48.3,15Z" transform="translate(-0.73)"/><path class="cls-1" d="M30.85,16.58a.38.38,0,0,0-.25.15A.29.29,0,0,0,30.85,16.58Z" transform="translate(-0.73)"/><path class="cls-1" d="M47.48,15.18l.11.05a.44.44,0,0,1,.26-.26C47.64,14.87,47.45,14.85,47.48,15.18Z" transform="translate(-0.73)"/><path class="cls-1" d="M10.33,7.55s0,0,0-.06S10.3,7.55,10.33,7.55Z" transform="translate(-0.73)"/><path class="cls-1" d="M8.56,1.2a.77.77,0,0,1,.19.08S8.69,1.21,8.56,1.2Z" transform="translate(-0.73)"/><path class="cls-1" d="M51,13.11c.09-.08,0,0,0,0Z" transform="translate(-0.73)"/><path class="cls-1" d="M52.27,14.34a.49.49,0,0,0,.06.2A.58.58,0,0,1,52.27,14.34Z" transform="translate(-0.73)"/><path class="cls-1" d="M47.84,18.07h0C47.91,18.13,47.89,18.12,47.84,18.07Z" transform="translate(-0.73)"/><path class="cls-1" d="M51.2,13.2a.46.46,0,0,0-.19,0A.54.54,0,0,0,51.2,13.2Z" transform="translate(-0.73)"/><path class="cls-1" d="M51.08,13h.1C51.16,13,51.12,12.92,51.08,13Z" transform="translate(-0.73)"/><path class="cls-1" d="M50.83,13.21a.27.27,0,0,1,.18-.05s0,0-.06-.05Z" transform="translate(-0.73)"/><path class="cls-1" d="M18.41,11.69v0C18.22,11.72,18.28,11.73,18.41,11.69Z" transform="translate(-0.73)"/><polygon class="cls-1" points="40.71 23.93 40.71 23.91 40.69 23.9 40.71 23.93"/><path class="cls-1" d="M41.26,24.41c-.12-.55,0-.54.16-.51l-.73-1Z" transform="translate(-0.73)"/><path class="cls-1" d="M26.06,18.84l0,.48c-.66.3-.71,0-.84.57.86-1.05.93.55,1.79-.5l0,.34s-.09,0-.12,0c-.12.73.81-.61,1.05-.17.06.18,0,.4-.16.46l.49,0c.06.08-.1.25-.17.17l.5.25,0,0a4.73,4.73,0,0,1,.69-.33c0,.24-.15.07-.22.23l.44-.08c-.13.36-.53.47-.67.3-.62,1.24.41-.11.39.89l-.33-.05c-.34.72,0,.64,0,1.21.1-.24.26-1.34.72-1.4,0,.13.07.25.38.15-.3.37-.09.39.09.5l-.41.49c.29,0,.48-.26.77-.4.16.21-.11.63-.32,1,.26.34.28-.8.73-.58.12.4.47.35,1,.32,0,.32-.28.28-.33.47l.49-.26s-.08.16-.14.21c.27,0,.42-.48.75-.44.5-.49-.21,1.16.57.77,0,.2-.28.28-.42.49a4.54,4.54,0,0,0,1.34-.3c0,.2.07.42.11.64,0-.62.68-.8,1.11-1l.11-.6.46-.07a1.24,1.24,0,0,1-.31.52l.13-.1a1.24,1.24,0,0,1-.45.88c0-.16,0-.32,0-.48a3.92,3.92,0,0,0-.76.92.31.31,0,0,1,.23,0,.49.49,0,0,0-.16.21c0,.07.11,0,.26-.1l-.21.75.15-.25a6.21,6.21,0,0,0,.54.89,22.19,22.19,0,0,0,2-1.69,4.48,4.48,0,0,0,0,1.51c-.21-.61-.7.34-1.16,0a.34.34,0,0,1,.05.5,3.16,3.16,0,0,0,.91-.51c0,.51.17.37.41.53-.2-1,.54-.84.77-1.31.09.32.09.72-.32.79.27.31.38-.06.44-.44s.09-.75.37-.54c-.08.06-.14,0-.13.22.12-.4.67-.45.68-.12l-.09.06c.8-.31,1.48-.82,1.16-1.62.05.09.44.93.5,1.09l-.64-2.92c.29.67,1.4,2,1.25,2.6.16,0,.34.07.43-.28-.12-.05-.69-.82-.63-.93.66.56.39.27,1.06.69-.18-.07-.63-1.14-.45-1.2.06.17.57,1,.57,1.12l-.14-1.21a2.44,2.44,0,0,0,.7,1.06c-.16-.17.36-.18.41-.34l-.3-.13c.55-.11-.32-1.63.17-1.84.06.23.57,1.32.87,1.31-.18-.56-.89-2.68-.7-3.29l.24.24.12-.5a25,25,0,0,1,.64,3.54c.3.13.24.31.49.14a.39.39,0,0,1,0,.55l.7-.17c-.36-.57.13-.85-.17-1.32l-.31,1c-.36-.57-.56-1.87-.08-2,.24.17.51,1.09.63,1.28-.06-.24.19-.62.31-.5v.42c.37.08,0-1,.56-.6.12,0,.72.59.54.23A15.27,15.27,0,0,1,45.19,18a5.8,5.8,0,0,1,1.18.61c.46.44.47,1.39.86,1.76a1.18,1.18,0,0,1-.11-.49c.18.07.24.52.43.31-.3-.61.48-.2-.18-.56.12-.29.3,0,.55-.18a2.62,2.62,0,0,1-.38-1.73,1.54,1.54,0,0,0,.3.4c.49-.2.88-.07,1.31-.3.12.12.42.18.48.48,0-.14-.06-.37.06-.46.54.38-.24.25.3.76-.18-.36.06-.67.13-1-.36-.5-.49.14-.55.46a2.8,2.8,0,0,1-.28-2.27c.25-.39.42.38.42.25.73-.25-.16-1.6.68-1.38.48.34.54.92.78,1.23-.19.34-.61,0-.79.08l.36.09c0,.21-.13.43-.31.35.42.32,1.16-.54,1.89-.44,0-.21.06-.46-.12-.61l-.12.16c-.36-.29,0-.69-.3-.76.07-.38.07-.94.5-.89l.36.5c-.1-.16-.38-.21-.37,0,0-.31.87.46.61-.32l-.42-.24c.07-.4,0-1.11.38-1.1-.42-.45,0,.1-.57-.41.6.67-.71.36,0,1-.6-.6-.51-.11-1.12-.58.11.18.28.29,0,.33,0,.06,0,.14,0,.18h0s0,0,0,0a.73.73,0,0,1,.26.2c.12.47-.24.66-.25.94-.18,0-.06-.24-.23-.38v.41c-.24-.38-.72-.45-.54-.85l-.29.14c-.29-.13-.57-.08-.62.16-.18,0-.09.63-.15.25l-.31.5-.06-.1c-.46.2-.53,1.16-1.44.74-.09.18-.17.39-.48.42l-.24-.31c-.13.22-.76,0-.65.38-.72-.8-1,.32-1.46.35l.24.45c-.24.1-.39.35-.58.69l.24.38c-.06.46-.79.08-1.15.34-.06-.16.06-.18.18-.13-1-.62-.62,1.2-1.4.79,0,.21-.13.2-.26.14s0,0,0,0l0,0-.27-.13a.93.93,0,0,0,.24.14.8.8,0,0,0-.23.34l-.29-.39s0,0,0,0c-.21-.09,0,.25.26.53a1.25,1.25,0,0,0,0,.34c-.48-.62-.19.41-.73-.24.12.4-.45.61-.1,1.39-.06-.1-.12-.12-.06-.17-.18,0-.36,0-.36.26l-.36-.5.11.88a1,1,0,0,1-.6-.88c-.07.88-.21.44-.22,1.27l-.17-.36c-.13.09-.07.67-.31.43a.6.6,0,0,0-.53-.1,1.07,1.07,0,0,0-.38.13c-.24.11-.54.28-.74,0,.06.64,0,.51-.07.34s-.12-.39-.17.13a2.4,2.4,0,0,1,.05-.77c-.24.27-.13-.55-.45.19.07-.3.16-.4.19-.58,0,.05-.11.21-.07,0a1,1,0,0,1,.15-.34A6.44,6.44,0,0,0,36,22.19c0-.46,0-.43-.37-.06.08-.26.18-.54.35-.52a1.28,1.28,0,0,0-.16-.3.5.5,0,0,0-.22-.1.4.4,0,0,0-.31.16c.07-.16-.14-.18-.22-.15-.24-.25-.23-.32-.54-.49v.14c-.59.51-.33-.05-.6-.15l.05-.06c-.14-.83-.38,0-.47-.86l-.27.4c-.7.76-.05-.83-.58-.75l-.07.29c-.38.15.45-1.44.37-1.67s.14-.06.23-.08c0-.8-.45.45-.84.32.15-.31.61-.62.44-.83.07-.3-1.28.37-1.16-.36-.1.26-.2.51-.47.55s0-1.24-.68-.75a.37.37,0,0,1,.08-.19c-.3,0-.76-.16-1.13.12.86-1.43-1.55-.18-.6-1.38l-.57-.34.11-.12c-.27-.33-.61-.13-.95.07,0-.14.12-.21.18-.27-.3-.62-.39-.6-1.26-.31l.26-.43c-.29.15-.24-1.15-1.07-1.05a.59.59,0,0,1,.19-.14c-.89.06-.48-2.08-1.76-.77l-.62.09c.38.46-.53.58-.52,1-.25,0-.15-.78.13-.69l0,.1c.64-.7-.38-.69,0-1.2C22,10.73,21.45,9.67,20.6,9l-.32.67L20,9.43c0-.2.22-.54.42-.37.13-.41-.56,0-.66.16-.25-.54.66-.58.54-.69l-.21-.08v.1c-.31.14-.51.39-.75.18-.08-.24.18-.43.13-.5s0-.08-.09-.09L19,7.82l-.17.58c-.34.12-.35-.28-.55.38.32-1-1.22-1.29-1.2-1.66a.8.8,0,0,1-1-.22c0,.14-.32.71-.53.47.85-1-.13-.79.2-1.73-.17.65-.8-.36-1,.59-.15-.24.27-.43.29-.8-.8.1-.93-1-1.65-1.3-.11.15-.15.44-.43.57l.15-1c-.17,0-.67.78-.56.12-.05.14-.13.36-.24.35C11.57,2.68,9.43,3.16,9,1c0,.4-.15.36-.29.28.05.13-.23.37-.34.58L8.23,1c-.45.5-.59-.32-1,.18h.23c-.62.49-.57,1.6-1.12,2.39.7-.56,0,1.47,1,.7,0,.22-.24.21-.32.43.33-.28.5-.27.63,0l-.08.07c.69.32.75.84,1.32,1.53l.2-.43c.12.15.07.3.08.44.57-.48-.41-.31.18-.87-.32.94,1.08.72.62,1.73.23.16.23-.5.46-.34l-.1.28.27-.27c.12.15,0,.51-.13.72,0-.05-.15,0-.2,0,0,.43.63.28.63.42l-.12-.31c.79.2,1.36,1.05,2.32,1l.07-.21c.71,0,.24.46.87.65l0,0a.49.49,0,0,1,.56,0c-.28.13,0,.59-.38.71.76,0,.45-.12,1.26-.57l-.14.36c.31-.2.42-.34.73-.24-.39.12-.16.58-.63.76.07,1,1.27-.11.83,1,.84-.67-.14-.79.13-.87.07-.36.64-.49.75-.29s-.46,1.28,0,1.57c0,0-.09,0-.13,0,0,.33.52-.06.48.42.46-.43.23.21.72-.41l-.5-.13c.34,0,1.09-.62,1.2,0a1.57,1.57,0,0,1-.5.25c0,.26.3,0,.27.29-.49.62-.58-.2-1.17.13-.07.35.79-.15.17.46.81-.76.34.41,1.12-.06l-.3.38c.09,0,.32-.15.39-.08l-.51.39c.54-.25.19.7.58.63-.48-.32.23-.54.23-1,.95-.1-.39,1.24.39,1.53-.13,0-.17-.47.1-.55a1.11,1.11,0,0,1,.05.69c.49.23.22-.44.58-.55-.2.58.34,0,.64-.05l-.28.4c.3.6.72-.72.94-.1l-.58.41.33,0-.37.41c.49-.14.5,0,.65.3.15-.31.56-.68.78-.53,0,.34-.36.3,0,.48-.25.19-.55.44-.42,0-.1.12-.25.19-.35.31,0,.38.35.35.46.43a.22.22,0,0,1-.05-.18l.84-.21a.49.49,0,0,1-.32.35c.12,0,.31-.11.47,0-.27.29-.51.62-.8.63l.68,0c-.08.16-.07.54-.21.61.09.36,1-.18,1.15.3a.31.31,0,0,1,.23-.08c.24.29.2.86.87.7l-.24.7c.37.08.28-.9.88-.77.45.06-.24.56-.25.8.37-.16,1.08-.52,1,.16C26.19,19,26.18,18.87,26.06,18.84Zm3.44,2.32c-.13,0-.45.17-.31-.09C29.6,20.69,29.49,21,29.5,21.16Zm5.92,3.31c-.12.11-.19,0-.22-.29C35.29,24.2,35.36,24.28,35.42,24.47ZM50.09,14.05v0C49.84,14,49.94,14,50.09,14.05Zm.43,0a.3.3,0,0,0-.08-.19c0,.12,0,.17-.14.19C50.39,14.14,50.48,14.2,50.52,14.05Zm-31.2-5.7V8.5C19.09,8.52,19.2,8.44,19.32,8.35Z" transform="translate(-0.73)"/><path class="cls-1" d="M34.37,24.5a1.17,1.17,0,0,1,.1-.26A.21.21,0,0,0,34.37,24.5Z" transform="translate(-0.73)"/><path class="cls-1" d="M23.86,17.48h0s-.05,0-.07.06Z" transform="translate(-0.73)"/><path class="cls-1" d="M47.48,20.47a.58.58,0,0,1-.25-.15C47.28,20.43,47.36,20.5,47.48,20.47Z" transform="translate(-0.73)"/><path class="cls-1" d="M51.84,12.36l-.14.22c.09-.07.17,0,.26,0C51.9,12.52,51.78,12.4,51.84,12.36Z" transform="translate(-0.73)"/><path class="cls-1" d="M55.13,13.93c0-.07.06,0,.06-.11l-.12-.19C55,13.71,55,13.92,55.13,13.93Z" transform="translate(-0.73)"/><path class="cls-1" d="M52.83,13.64c.21.35.28.15.39,0l0,0C53,13.14,52.89,13.39,52.83,13.64Z" transform="translate(-0.73)"/><path class="cls-1" d="M53.24,13.61a.26.26,0,0,1,.13-.08C53.28,13.32,53.29,13.52,53.24,13.61Z" transform="translate(-0.73)"/><path class="cls-1" d="M50.8,13.58c.12.05-.21-.48-.09-.36C50.53,12.73,50.55,14,50.8,13.58Z" transform="translate(-0.73)"/><polygon class="cls-1" points="52.87 14.74 52.57 14.33 52.69 14.73 52.87 14.74"/><path class="cls-1" d="M52.27,15.07h.3a.17.17,0,0,1,0-.18C52.4,14.94,52.19,15,52.27,15.07Z" transform="translate(-0.73)"/><path class="cls-1" d="M52.55,14.88c.08,0,.14-.09.14-.18A.47.47,0,0,0,52.55,14.88Z" transform="translate(-0.73)"/><polygon class="cls-1" points="52.63 15.05 52.51 15 52.32 15.06 52.63 15.05"/><path class="cls-1" d="M49.71,16.41l-.19.27c.06.16.18.22.24.1S49.83,16.53,49.71,16.41Z" transform="translate(-0.73)"/><path class="cls-1" d="M51.15,17.17c-.12-.05-.18-.15-.3-.27l.3.54Z" transform="translate(-0.73)"/><path class="cls-1" d="M50.48,17.71c.06.17-.13.64.18.43C50.6,18,50.78,17.71,50.48,17.71Z" transform="translate(-0.73)"/><polygon class="cls-1" points="45.52 19.21 45.58 19.16 45.07 18.28 45.52 19.21"/><path class="cls-1" d="M44.06,23.24c.42,0-.24-.58.18-.47,0-.25-.34-.09-.37-.32C43.81,22.78,43.64,22.71,44.06,23.24Z" transform="translate(-0.73)"/><path class="cls-1" d="M43.87,22.45a1,1,0,0,0,0-.18A.38.38,0,0,0,43.87,22.45Z" transform="translate(-0.73)"/><polygon class="cls-1" points="7.43 0.3 7.35 0 7.29 0.37 7.43 0.3"/><path class="cls-1" d="M7.39.71l.3-.58L7.26.56C7.32.56,7.44.57,7.39.71Z" transform="translate(-0.73)"/><path class="cls-1" d="M29.16,22.56l.11-.11c.08-.15.05-.2,0-.28Z" transform="translate(-0.73)"/><polygon class="cls-1" points="26.39 20.32 26.42 20.36 26.71 19.84 26.39 20.32"/><path class="cls-1" d="M24.68,19.37c.07.08.24.05.31.13C24.75,19.45,25.11,18.77,24.68,19.37Z" transform="translate(-0.73)"/></g></g></svg>