<svg xmlns="http://www.w3.org/2000/svg" viewBox="0 0 1165.63 483"><defs><style>.cls-1{fill:none;stroke:#000;stroke-miterlimit:10;stroke-width:3px;}</style></defs><title>DE</title><g id="Layer_2" data-name="Layer 2"><g id="Layer_2-2" data-name="Layer 2"><path d="M125,185.8h3.53v18.87a21.9,21.9,0,0,1-8,4.82,30,30,0,0,1-10,1.66,27.5,27.5,0,0,1-13.5-3.32,24.23,24.23,0,0,1-9.43-9.14,26.82,26.82,0,0,1,0-26.21,24.3,24.3,0,0,1,9.43-9.14A27.63,27.63,0,0,1,110.62,160a28.39,28.39,0,0,1,10.19,1.76,21.81,21.81,0,0,1,8,5.15l-2.31,2.45a19,19,0,0,0-7.09-4.58,25.78,25.78,0,0,0-8.68-1.4A23.81,23.81,0,0,0,99,166.29a21,21,0,0,0-8.17,8,22.1,22.1,0,0,0-2.95,11.34,21.8,21.8,0,0,0,3,11.26,21.57,21.57,0,0,0,8.17,8,23.41,23.41,0,0,0,11.66,2.91q8.64,0,14.33-4.61Z"/><path d="M175.28,192.86H143a15.65,15.65,0,0,0,2.23,7.81,14.31,14.31,0,0,0,5.65,5.29,17,17,0,0,0,8,1.87,17.2,17.2,0,0,0,6.81-1.33,13.35,13.35,0,0,0,5.22-3.92L173,205a16,16,0,0,1-6.15,4.54,21.5,21.5,0,0,1-18-.86,17.67,17.67,0,0,1-6.87-6.77,19.4,19.4,0,0,1-2.49-9.87,20.41,20.41,0,0,1,2.34-9.82,17.21,17.21,0,0,1,6.45-6.81,18.58,18.58,0,0,1,18.39,0,17.17,17.17,0,0,1,6.41,6.73,20.21,20.21,0,0,1,2.34,9.79Zm-25-15a13.4,13.4,0,0,0-5.07,5,16.21,16.21,0,0,0-2.2,7.24h28.8a15,15,0,0,0-2.16-7.2,14,14,0,0,0-12.24-6.77A14.39,14.39,0,0,0,150.29,177.85Z"/><path d="M195.37,175.11a17.1,17.1,0,0,1,8.92-2.2v3.53l-.86-.07q-6.27,0-9.79,3.92t-3.53,10.91v19.59h-3.6V173.2H190v8.21A13,13,0,0,1,195.37,175.11Z"/><path d="M272.08,177q4,4.09,4,11.81v22h-3.6V189.11q0-6.33-3.1-9.64t-8.64-3.32c-4.22,0-7.57,1.33-10,4s-3.71,6.2-3.71,10.66v20h-3.6V189.11q0-6.33-3.1-9.64t-8.64-3.32c-4.22,0-7.57,1.33-10,4s-3.71,6.2-3.71,10.66v20h-3.6V173.2h3.46v8.07a13.78,13.78,0,0,1,5.58-6.16,17,17,0,0,1,8.82-2.2,15.6,15.6,0,0,1,8.67,2.31,12.5,12.5,0,0,1,5.08,6.77,14.61,14.61,0,0,1,5.87-6.63,17.49,17.49,0,0,1,9.32-2.45Q268.09,172.91,272.08,177Z"/><path d="M314.31,176.48c2.49,2.37,3.74,5.87,3.74,10.47v23.84H314.6v-6.7a12.56,12.56,0,0,1-5.26,5.15,17.45,17.45,0,0,1-8.28,1.83q-6.27,0-9.9-2.95a10.2,10.2,0,0,1-.29-15.37q3.35-2.91,10.69-2.92h12.89v-3c0-3.5-.95-6.17-2.84-8s-4.67-2.74-8.32-2.74a19.92,19.92,0,0,0-7.16,1.3,18,18,0,0,0-5.8,3.45l-1.8-2.59a19.89,19.89,0,0,1,6.77-3.92,24.5,24.5,0,0,1,8.28-1.41Q310.57,172.91,314.31,176.48ZM309.52,206a13.15,13.15,0,0,0,4.93-6.26v-7.06H301.64q-5.55,0-8,2a6.73,6.73,0,0,0-2.49,5.54,7,7,0,0,0,2.74,5.8q2.73,2.12,7.7,2.12A14.14,14.14,0,0,0,309.52,206Z"/><path d="M362.4,177q4.11,4.09,4.11,11.81v22h-3.6V189.11q0-6.33-3.21-9.64t-9-3.32c-4.42,0-7.9,1.33-10.44,4s-3.82,6.2-3.82,10.66v20h-3.6V173.2h3.46v8.14a14.27,14.27,0,0,1,5.8-6.19,17.79,17.79,0,0,1,9.1-2.24Q358.3,172.91,362.4,177Z"/><path d="M410.86,173.2l-19.3,42.7q-2.16,5-5,7a11,11,0,0,1-6.73,2.09,13.65,13.65,0,0,1-4.86-.86,10.52,10.52,0,0,1-3.86-2.52l1.81-2.74a9.35,9.35,0,0,0,7,3,7.4,7.4,0,0,0,4.68-1.51,13.53,13.53,0,0,0,3.6-5.18l2-4.54L373.27,173.2h3.82l15.05,33.63,15.05-33.63Z"/><path d="M25.43,272.29H44.15a29.37,29.37,0,0,1,12.71,2.52,18.11,18.11,0,0,1,8,7.12,20.68,20.68,0,0,1,2.73,10.73,30.82,30.82,0,0,1-3.89,15.55,27.06,27.06,0,0,1-11,10.66,34.34,34.34,0,0,1-16.49,3.82H15.35Zm11,47.08A29.84,29.84,0,0,0,51,316a23.52,23.52,0,0,0,9.58-9.43,27.94,27.94,0,0,0,3.35-13.75q0-8-5.11-12.6T43.72,275.6H28.45l-8.78,43.77Z"/><path d="M76.69,304.69c-.09,1.05-.14,1.84-.14,2.37q0,6.12,3.53,9.4t10.37,3.27a19.54,19.54,0,0,0,7.3-1.33,15.17,15.17,0,0,0,5.58-3.71l1.66,2.52a16.76,16.76,0,0,1-6.45,4.25A23,23,0,0,1,90.16,323q-8,0-12.57-4.17T73,307.21a24.35,24.35,0,0,1,2.67-11.45,20.21,20.21,0,0,1,7.34-8,19.5,19.5,0,0,1,10.51-2.92q7.35,0,11.67,4.18c2.87,2.78,4.32,6.62,4.32,11.52a24.67,24.67,0,0,1-.44,4.18Zm6.23-13a17.92,17.92,0,0,0-5.79,10.15h28.94a17.78,17.78,0,0,0,.07-1.87q0-5.7-3.45-8.9a13.06,13.06,0,0,0-9.22-3.2A15.6,15.6,0,0,0,82.92,291.73Z"/><path d="M157.19,285.1l-7.49,37.59h-3.53l1.44-7.13q-5.25,7.41-15.4,7.41-6.34,0-9.76-3.2T119,311a20.72,20.72,0,0,1,.43-4.1l4.32-21.75h3.6l-4.32,21.75a16.24,16.24,0,0,0-.36,3.6,8.87,8.87,0,0,0,2.63,6.87q2.63,2.42,7.81,2.41a15.93,15.93,0,0,0,10.73-3.63q4.24-3.64,5.62-10.55l4.1-20.45Z"/><path d="M171.37,311.81a13.13,13.13,0,0,0-.29,2.67q0,5.4,5.76,5.4a9.64,9.64,0,0,0,6.12-2.09l1.08,2.66A12.36,12.36,0,0,1,176,323a8.83,8.83,0,0,1-6.3-2.12,7.66,7.66,0,0,1-2.27-5.87,14.06,14.06,0,0,1,.29-2.88l4.82-23.9h-7l.58-3.1h7l1.66-8.21h3.6l-1.66,8.21h12l-.57,3.1h-12Z"/><path d="M195.38,321.64a16.62,16.62,0,0,1-6.22-3.42l1.94-2.81a14.6,14.6,0,0,0,5.58,3.21,22.83,22.83,0,0,0,7.38,1.19q5.83,0,9-2.06a6.44,6.44,0,0,0,3.2-5.72,4.32,4.32,0,0,0-1.3-3.31,8.27,8.27,0,0,0-3.16-1.84q-1.87-.61-5.19-1.33a47,47,0,0,1-6.3-1.66,9.78,9.78,0,0,1-4.07-2.7,7.2,7.2,0,0,1-1.65-5,9.72,9.72,0,0,1,4.28-8.28q4.29-3.09,11.41-3.1a25.17,25.17,0,0,1,7,1,14.1,14.1,0,0,1,5.4,2.7l-1.66,2.8a14.21,14.21,0,0,0-5-2.48,22,22,0,0,0-6-.83q-5.47,0-8.68,2.16a6.57,6.57,0,0,0-3.2,5.69,4.56,4.56,0,0,0,1.29,3.42,8.37,8.37,0,0,0,3.28,1.91q2,.64,5.29,1.37a45.81,45.81,0,0,1,6.23,1.62,9.79,9.79,0,0,1,4,2.62,6.94,6.94,0,0,1,1.66,4.9,9.54,9.54,0,0,1-4.39,8.28q-4.39,3-11.74,3A26.32,26.32,0,0,1,195.38,321.64Z"/><path d="M231.89,318.73q-4.57-4.26-4.57-11.38a24,24,0,0,1,2.77-11.56,20.39,20.39,0,0,1,7.7-8.06,21.5,21.5,0,0,1,11.13-2.92,19.41,19.41,0,0,1,8.64,1.77,12.8,12.8,0,0,1,5.61,5.29l-2.95,1.8q-3.39-5.61-11.52-5.62a17,17,0,0,0-9.14,2.49,17.46,17.46,0,0,0-6.34,6.8,20.45,20.45,0,0,0-2.3,9.79q0,6,3.52,9.29t10.08,3.31a17.22,17.22,0,0,0,7-1.44,14.54,14.54,0,0,0,5.44-4l2.52,2a16.17,16.17,0,0,1-6.52,4.93,21.63,21.63,0,0,1-8.74,1.76Q236.46,323,231.89,318.73Z"/><path d="M302.27,288q3.45,3.19,3.45,8.82a20.8,20.8,0,0,1-.43,4.1L301,322.69h-3.6l4.32-21.75a16.89,16.89,0,0,0,.36-3.6,8.72,8.72,0,0,0-2.7-6.87q-2.7-2.42-7.88-2.42a16.22,16.22,0,0,0-10.8,3.64q-4.32,3.63-5.69,10.55l-4.1,20.45h-3.6l10.65-53.43h3.6L277,292.09q5.33-7.27,15.4-7.28Q298.81,284.81,302.27,288Z"/><path d="M326.39,269.26H330l-10.66,53.43h-3.6Z"/><path d="M375.49,285.1,368,322.69h-3.45l1.44-7.35a19.12,19.12,0,0,1-6.81,5.62,20.09,20.09,0,0,1-9,2q-7.35,0-11.78-4.21T334,307.35a24.32,24.32,0,0,1,2.73-11.56,20.36,20.36,0,0,1,7.6-8.06,20.82,20.82,0,0,1,10.91-2.92,17.15,17.15,0,0,1,9.64,2.52,12.49,12.49,0,0,1,5.19,7.13l1.87-9.36ZM359.9,317.29a17.2,17.2,0,0,0,6.3-6.81,20.64,20.64,0,0,0,2.31-9.83q0-6-3.5-9.28t-9.82-3.32a16.74,16.74,0,0,0-9,2.49,17.5,17.5,0,0,0-6.3,6.84,20.46,20.46,0,0,0-2.3,9.75q0,6,3.49,9.29t9.83,3.31A16.93,16.93,0,0,0,359.9,317.29Z"/><path d="M418.11,288q3.47,3.19,3.46,8.82a21.58,21.58,0,0,1-.43,4.1l-4.32,21.75h-3.6l4.32-21.75a16.89,16.89,0,0,0,.36-3.6,8.72,8.72,0,0,0-2.7-6.87q-2.7-2.42-7.89-2.42a16.22,16.22,0,0,0-10.8,3.64q-4.32,3.63-5.69,10.55l-4.1,20.45h-3.6l7.49-37.59h3.53l-1.44,7.13a16.43,16.43,0,0,1,6.66-5.58,21.07,21.07,0,0,1,8.89-1.84Q414.66,284.81,418.11,288Z"/><path d="M475.71,269.26l-10.65,53.43H461.6l1.44-7.35a19.09,19.09,0,0,1-6.8,5.62,20.16,20.16,0,0,1-9,2q-7.35,0-11.77-4.21T431,307.35a24.21,24.21,0,0,1,2.74-11.56,20.26,20.26,0,0,1,7.59-8.06,20.84,20.84,0,0,1,10.91-2.92,17.18,17.18,0,0,1,9.65,2.52,12.52,12.52,0,0,1,5.18,7.2l5-25.27Zm-18.75,48a17.34,17.34,0,0,0,6.3-6.81,20.75,20.75,0,0,0,2.3-9.83q0-6-3.49-9.28t-9.83-3.32a16.76,16.76,0,0,0-9,2.49,17.5,17.5,0,0,0-6.3,6.84,20.57,20.57,0,0,0-2.3,9.75q0,6,3.49,9.29t9.83,3.31A17,17,0,0,0,457,317.29Z"/><g id="layer1"><path id="path1891" class="cls-1" d="M927.28,1.5c-.27,0-.46.61-1,.54-.25,0-1.06,2.71-1.18,3a21.35,21.35,0,0,1-1.4,2.56c-.63,1.15-1.14,1.3-1.86,2.11a15.44,15.44,0,0,1-1.63,1.4,7,7,0,0,0-.48.93c-.49,1-1,2.22-1.4,3a21.1,21.1,0,0,0-.93,3.28,24.16,24.16,0,0,0-.47,3.26c-.14.94-.45,2-.71,3-.45,1.95,1.37.57,1.66.7s1.37-3,1.38-3a15.23,15.23,0,0,0,.47-3c.12-.74.36-2.09.48-2.81.18-1.11,1.15-1.81,1.63-2.56,1.31-2,.61.19,1.4.45.28.1,1.88.77,2.34.95,1.23.5.34-1.62.45-2.1.28-1.27-.63-2.23-.93-3.28l0-.05c0-.39,0-.74,0-1.34a10.82,10.82,0,0,0,1.63-2.35,10.19,10.19,0,0,1,2.36-1.63c.71-.5-.79-1.56-1.18-2.33S927.44,1.48,927.28,1.5Zm3.33,16.34c-1.79,0-.24,3.36-.25,3.37-.28,1.43,2.23,3.34,2.65,4,.89,1.34.42,2.93.66,4.63a28.46,28.46,0,0,1,0,4.63c0,1.56,1.73,1.54,3,2.65a25.24,25.24,0,0,0,3.64,2.31c1.18.76.48,3.38.66,4.64.33,2.29-1.19,2.37-2,4-.56,1.11-3.05,1-4,1.32a46.74,46.74,0,0,0-4.3,2c-1.54.72-1.82,2-2.64,3s.88,2.65,1.32,4c.33,1,3.51-1.17,4-1.32A17.78,17.78,0,0,0,937,54.62a1.4,1.4,0,0,1,1.25.1.62.62,0,0,1,.28,1,55.19,55.19,0,0,0-4.18,6.17c-.92,1.44,1.58,2.1,2,2.65s3,.27,3.64.33c1,.09,2.15,2.15,2.64,2.64,1.6,1.6.21,2.53.33,4,.1,1.22-2.42-.22-3.64-.33-3.7-.33.5-.25-2,1-1.37.69,1.1,2.87,1.65,4.31,1,2.47,1.43,1.27,3,2.64a30.55,30.55,0,0,0,4.3,1.32c1.73.54,2.58,1,4.3,1.66s2.8,1.86,4,2.65,2,2.45,2.65,3.3c.89,1.11,1.07,2.37,1.65,3.64l1.66,3.64A29.07,29.07,0,0,0,962.78,99a10.62,10.62,0,0,0,.89,1.14c-.41-.21-.84-.4-1.18-.58-.79-.43-1.18-1.21-1.65-1.68a16.56,16.56,0,0,1-1.26-1.65c-.74-1-1.2-1.67-1.66-2.3A15.24,15.24,0,0,0,955.83,92a20.22,20.22,0,0,0-2.08-1.44,11.21,11.21,0,0,1-1.45-2.3L950.83,86c-.49-.77-.83-.72-1.45-1.24a5.47,5.47,0,0,0-2.08-.85c-1.27-.51-1.35-.11-2.51-.21a8.55,8.55,0,0,0-2.5.44,23.31,23.31,0,0,0-2.71.82c-1.22.38-1.79-.12-3.12-.2s-1.47-.47-2.71-.85c-.72-.23-1.34-1.51-1.65-1.86-.93-1-.44-.52-1.26-1.47s-1.28-.42-2.5-.83c-.64-.21-1.88.93-2.51,1.24-1.45.73-.61,1.16-1.24,2.3a26.39,26.39,0,0,0-.82,3.12c0,.17-1.4,1.74-1.68,2.09-.65.82-.26,1.88-.41,2.91a7.72,7.72,0,0,0,0,3.12c1.08,3.9-.6,4.39-.64,5.22a12.25,12.25,0,0,1-3.33-2.09c-.45-.57-1-1.37-1.45-2.07-.65-.93-2.34.89-2.71,1-.78.3-.31,2.24-.41,2.92s1,2,1.24,2.5c.4.8.14,2.21.21,3.33s-.69,2-1,2.91-1.47,1-2.08,1.47c-.88.61-.9-.41-1.89-.85a17.83,17.83,0,0,1-1.24-2.06l-1.24-2.09a20.16,20.16,0,0,0-1.67-1.88c-.75-.84,1-2.16,1-2.3a1.65,1.65,0,0,1,.47-.58,2.12,2.12,0,0,0,.38-2.95,23.45,23.45,0,0,1-1.48-2.31,2.16,2.16,0,0,1-.25-1.65c.4-1.73-1.33-2-1.83-2.49s-1.87-.15-2.71-.21-1.75,0-2.7,0a14.87,14.87,0,0,0-2.71.41c-.58.09-2.21-1-2.92-1.26-.8.08-2,1-2.91,1.47-.65.32-1.59.86-2.28,1.24-1.28.7-1.33-.13-2.09-.21s-1.48-1-2.08-1.44c-.91-.64-1.42,0-2.09,0a9.66,9.66,0,0,0-2.5.62,8.46,8.46,0,0,0-2.28,1c-.79.36-.84,1.53-1.26,2.29a18,18,0,0,1-2.5.42c-.92.15-.46.75-1,1.67-.15.23,1.17,1.79,1.24,1.88,1,1.43-.11,1.09-.21,2.07-.07.74-1.51.47-2.07.64-.85.26-1.29.51-2.09.83s-.39,1.59-.62,2.5a18.67,18.67,0,0,0-.22,2.5c-.09,1,1.51.41,2.29.62a10.54,10.54,0,0,0,2.71.21c.93.07,2.39.37,2.71.41a15.15,15.15,0,0,1,2.71.83c1.33.41,1.39.82,2.5,1.47s.78,1.11,1.47,2.09a5.75,5.75,0,0,1,.62,2.06c.34,1.15-1.23.48-1.68.65-1,.36-2-.95-2.71-1.27s-.7-1.4-1-2.06c-.81-1.63-.81,0-1,0-.39,0-.21,2.57-.23,2.91-.07.91-.26,1.69-.42,2.71s-.4,1.75-.62,2.69-.37,1.51-.62,2.5-.26,1.84-.41,2.92a7.07,7.07,0,0,0,.62,2.5c.32,1.28.41,1.39.62,2.09.32,1.06-.09.95-.21,2.08-.06.68-1.57,1.36-1.67,1.45-.74.65-1.4,1.42-1.86,1.88a9,9,0,0,0-1.26,2.3,6.11,6.11,0,0,0-.62,2.29c-.25.89-.41,1.8-.62,2.71s-.33,2.28-.42,2.92a7,7,0,0,1-1,2.27c-.67,1.46-.1.46-.41,1.88s0,.86,0,2.09c0,1-.52.29-1.45.83-.39.22-1.5-.27-2.3-.42-.51-.09-1.69-.55-2.5-.82a7.77,7.77,0,0,0-2.5-.21,18.52,18.52,0,0,0-2.5,0c-1.79,0,0,1,.19,1.58a2.42,2.42,0,0,0,1.1,1.26c1.53.9-.16,1.81-.44,2.58a17.37,17.37,0,0,1-1.47,2.5c-.47.8,0,1.21,0,2.27,0,.81,1.36,1.07,1.88,1.47,1,.75,2.07-.16,2.71-.21a9.76,9.76,0,0,0,2.27-1.26c1.09-.59,1.61,1.61,1.68,1.68s-.14.55-.21.82,0,0-.21.42.31,1.05.62,2.09a10.67,10.67,0,0,0,1.06,2.08c.37.76,1.61.88,2.27,1.25a.05.05,0,0,1,0,0v.52c-.05.46-.25,1.89-.33,2.49-.1.77-.23,1.65-.33,2.32a9.07,9.07,0,0,1-.83,2.16c-.26.68-1.34.85-1.82,1.16s-1.13.1-1.83.16-1.37.8-2,1.17-1,1.08-1.49,1.65a11.34,11.34,0,0,0-1.16,1.83,17.14,17.14,0,0,1-1.5,1.82c-.38.47-1.67.52-2.15.67-.91.28-.67.37-1.5.83-.36.2,1.39,1.53,1.5,1.66.47.52.8,1,1.16,1.49s-.12,1.4-.17,2a9.12,9.12,0,0,1-.66,2,8.87,8.87,0,0,1-1.33,2c-.36.54-.74,1.19-.83,1.33-.4.64-1.79.27-2.16.33a15.48,15.48,0,0,1-1.65-1.33c-.91-.72-1.49.35-2.16.5-.43.1-1.3,1.44-1.49,1.66-.78.87-1.27.32-2,.5a1.91,1.91,0,0,1-1.47-.33c-1.37-.89-1.13,1.53-1.19,1.66a6.37,6.37,0,0,1-1.16,1.65c-.37.53-1.89-.72-2.16-.83-.66-.25-1-1.42-1.32-1.82-.52-.71-.93-.65-1.66-1.16a10.32,10.32,0,0,0-2.16-.83c-1.07-.41-.84,1.07-1.16,1.49s-.68.77-1.16,1.33-1.76.12-2.49.17c-.5,0-.9,0-1.83,0s-1.14.38-2,.66c-.63.21.16,2,.17,2.16,0,.46,1.1,1.37,1.33,1.65.49.62.83,1.2,1.16,1.66a9.83,9.83,0,0,0,1.33,1.33c.56.57.47,1.54.66,2.16.37,1.22-.31,1.32-.5,2.15s-.32,1.72-.5,2.66c-.13.69.49,1.35.67,1.82.36,1,.93,1,1.49,1.66s1.31.44,2,.67c1.17.39.62.69,1.33,1.49.53.59-.61,1.84-.67,2-.22.68-.62,1.45-1,2.32s0,.68,0,1.66v2.17c0,1-.61.91-1,1.48a11.39,11.39,0,0,1-1.16,1.32c-.5.58-1,1-1.49,1.49a18.31,18.31,0,0,0-1.16,1.49l-1.16,1.48c-.91,1.16.55,1.37.66,1.66.21.52,1.11.22,1.66.33.77.15.68,1.23,1,1.81s.08.94.16,1.82c0,.56-.83,1.65-1,2a8.22,8.22,0,0,1-1.33,1.65c-.52.65-1.38.11-2.15.17-.45,0-1.39,0-2.16,0-1.12,0-.75,1.17-1.16,1.81s.68,1.75.83,2.15a12.77,12.77,0,0,0,1.49,2.15,5.61,5.61,0,0,1,.5,2.31l.5,2.31c.27,1.28-.43.85-.83,1.65-.16.32-.78.66-1.16,1s.12,1.76.16,2.32a7.5,7.5,0,0,0,.66,2.14c.22.69.94.59,1.33.83s.62,1.35.83,1.82a12.19,12.19,0,0,1,.33,2.14c.15,1,.3,1.41.5,2.32s1,.54,1.49.82,1.24.74,1.66,1-.15,2.24-.17,2.48-1.12,1-1.32,1.16c-.81.7-.31,1.24-.5,2a8,8,0,0,0,.5,2c.36,1.46.8.69,1.16,1,.56.48,1.93-.44,2.15-.5,1-.22,1.31.59,1.83.83s.23,1.53.33,2.15a6.37,6.37,0,0,1-.5,2,7.88,7.88,0,0,0,.17,1.82c.06.66.58,1.16.83,1.65a12.13,12.13,0,0,0,1.16,1.65,2.73,2.73,0,0,0,.66.76,2.71,2.71,0,0,0-.33-.1c-1.24-.27-.19.14-1.49.55a1.23,1.23,0,0,0-.87,1.13c0,1.55-1.2.44-2,.3s-.12.05-.83.33-.44.65-1,1.49c-.22.33-.58,1.05-.83,1.48-.35.64-1,.79-1.49,1.16-.81.63-.56,1.21-1,2.15s-.73.9-1.33,1.65a17.49,17.49,0,0,1-1.49,1c-.45.3.63,1.87.66,2,.23.67-.52,1.45-.66,1.82-.28.75-.42,1.45-.66,2.31a3.5,3.5,0,0,0,.16,2,4.56,4.56,0,0,0,.53,1.66,1.36,1.36,0,0,0,.54.6,7.48,7.48,0,0,1,2.39,1.82,1,1,0,0,1,.08,1.33c-.39.53,1.28,1.4,1.6,1.69.66.6.59,1,1,1.66s.66,1,1,1.48c.44.65,1.4.7,2,1a9.77,9.77,0,0,0,2.49.33c.28,0,.87,1.6,1,1.82a7,7,0,0,1,.17,2.48c0,.84,0,1.75,0,2.31s-.8,1.32-1,1.65a10.78,10.78,0,0,1-1.49,1.65,7.49,7.49,0,0,0-1,1.65c-.32.54.23,1.38.33,2a5,5,0,0,0,.5,1.48c.1.32,1.5.63,2,.83l.58.25c-.86-.21-1.78-.31-2.82-.52-1.24-.25-1.22.43-2.59.93-1.54.56-.65,1.39-1.41,3-.39.85,1.8,1.61,2.11,1.88.52.46,3.18.21,3.52.23,1.59.1,1.66,1.05,2.57,1.63.73.46,0,2.94,0,3.26a29.06,29.06,0,0,0,.25,3c.07.88,1.26,1.43,1.87,2.1.8.9,1.4,1.86,2.11,2.81a15.17,15.17,0,0,1,1.41,3.26c.39.91.83,1.84,1.16,2.58.75,1.63,2-.17,2.59-.22.84-.08,1.56-2.36,1.87-2.81,1-1.54,1.17-.11,2.36-.23.23,0,1.21,2.65,1.39,3a29.23,29.23,0,0,1,1,3c.48,1.54,1.45-.2,1.87-.25a.89.89,0,0,0,.65-.45,1.38,1.38,0,0,1,2.38-.11c1.21,1.55,1.8,1.17,3.06,1.74a5.76,5.76,0,0,0,3.67.19c1.1-.37,1.08-1.49,1.49-2.07s-1-2.79-1.16-3.49c0-.23,0-.09.23-.7l.06.12a1.16,1.16,0,0,1,0-.18H864a.24.24,0,0,0,0,.08,1.35,1.35,0,0,0,0,.29l-.13-.19a1.11,1.11,0,0,0,.13.27,3.81,3.81,0,0,0,.87,2.07,3.43,3.43,0,0,0,.27.33c.24.38.52.67.78.7l0-.08a3.28,3.28,0,0,1,.48.37,6.37,6.37,0,0,0,2,.66c.78.26.6,1,1,1.65a13,13,0,0,1,.67,1.82,8.43,8.43,0,0,0,1.16,1.81c.35.56,1,.72,1.65,1.16a7.7,7.7,0,0,0,2,.83c.51.2,1.52.45,1.66.49a9.37,9.37,0,0,0,2.32,0,22.73,22.73,0,0,1,2.49.33c.25,0,1.57-1.14,1.82-1.32a5.26,5.26,0,0,1,2.33-.66c1-.29,1.21.44,1.82.66a9,9,0,0,1,1.66,1.16c.48.33,1.28.69,1.82,1,.73.39,1.07.63,1.66,1,.86.51.93.17,1.82.33a5.15,5.15,0,0,1,1.83,1c.67.36.81,1,1.32,1.65a3.51,3.51,0,0,0,1.72,1v.09h.77l-.85,1.17c-.79,1.08-.92,1.45-1.63,2.56-.55.86-.46,2-.7,3-.13.54-.32,1.86-.48,2.81-.26,1.56-1,1.77-1.63,2.8-.4.69-2,.47-3,.71-1.21.28-1.52,1.06-2.34,1.63a13.09,13.09,0,0,0-2.1,2.56,26.41,26.41,0,0,1-2.56,2.11c-.76.61-.9,1.48-1.41,2.33s-.84,1.69-1.4,2.81A12.65,12.65,0,0,0,881,406c-.27,1.29-.79,1.59-1.4,2.81l-1.4,2.81c-.59,1.16-.68,1.65-1.16,2.8,0,.1-.22,2.87-.25,3.27,0,.8-1.4,2.61-1.63,3a15.15,15.15,0,0,0-.93,2.34c-.19.47-.91,1.62-1.18,2.1a27,27,0,0,0-1.15,2.58,13,13,0,0,0-.7,3.27,17.11,17.11,0,0,0-.25,3c-.09,1.2,0,1.81,0,2.81a7.6,7.6,0,0,1-.68,2.81,8.75,8.75,0,0,1-1,2.08c-.24.54-1.82.69-1.86.71-1,.37-.44.52-1.18,1.4s0,3,0,3.74a17.33,17.33,0,0,0,.7,3.51c.22,1.06.58,2.68.71,3.26.3,1.44,1.35,1.14,1.4,1.18.26.22,1.15-.1,1.81-.38a5.26,5.26,0,0,1,1.66-.32h.5c1.2,0,1,1.82,1.39,2.54a11.84,11.84,0,0,1,.69,3c.46,2,.78.33,1.6.69s2.23-2.05,2.52-2.32c1-.88,2.5.46,2.55.47.85.15,2.14.31,3.21.46a29.31,29.31,0,0,0,3,0c1.29,0,1.56-1.56,2.3-2.29,1-1,1.52-1.35,2.32-2.08a14.87,14.87,0,0,1,2.3,1.14c1,.5,1.17,1.34,1.83,2.08a10.14,10.14,0,0,0,2.07,1.6c.59.46,3,0,3.21,0h3.51s-.47-1.49-.7-2.35-2-.15-3-.23c-.52,0-1.19-1.79-1.4-2.1-.33-.49.65-1.64.93-2.34s1.7-1.51,2.1-1.88a10.72,10.72,0,0,0,1.63-2.33,22.89,22.89,0,0,1,1.88-2.1c1-1.13,1.18.35,2.34.7a18.49,18.49,0,0,1,2.1,1.17c1,.57,2.49.17,3.49.23s1.66,1.44,1.88,1.63c.38.34-1.24,2.28-1.41,2.58-.69,1.27-.92,1.05-1.63,1.86-.94,1.08.6,1.2.71,1.4.42.85,1.7-.78,2.56-1.17,1.4-.64.63-1.12,1.17-2.09,1.1-2,.93-.24,1.86-.47,1.1-.28,2.19.62,3.28.93.54.15,2.55-1.18,3-1.41,1.29-.6,1.71,0,2.81,0,.91,0,1.73,1.95,2.08,2.34.71.79,1.52,1.51,2.11,2.1,1.49,1.5.68-.69.92-.93s-1.32-1.7-1.63-2.1c-.75-1-1.47-1-2.33-1.63s-1.67-1.07-2.56-1.63a9.46,9.46,0,0,1-1.65-1.41c-1.8-1.54.92-1.47,1.18-1.88s2.64,1.64,3,1.88a11.44,11.44,0,0,1,2.33,2.56,13.5,13.5,0,0,0,2.34,1.65c.81.57,1.74,1.25,2.58,1.86.52.38,1.23-.32,1.86-.47,1.18-.3,2.11,1.14,2.58,1.4a10.78,10.78,0,0,1,1.63,1.4s2.49-.37,3-.45,2,1.16,2.33,1.38c.74.44,1.36,1.86,1.88,2.58.83,1.14,2,1.22,3,1.86.59.36,2.45-.17,3.26-.23,1.32-.09,1.7-1.18,2.33-1.63a3.35,3.35,0,0,0,1-1.17s0,0,0-.17h.64a18,18,0,0,1-.7,2.21c-.84,1.18-.06-.27.66,2.64.33,1.32,2.65.66,4,1,1.65.42,1.66,1.67,2.64,2.65a21.55,21.55,0,0,0,2.64,2c.67.5,0,2.07,0,3.63a17.28,17.28,0,0,1,5,.66c1.82.33-.28,2.78-.33,3.31a29.18,29.18,0,0,0,0,3.63c0,.88,1.76,0,2.64,0,.1,0,1.93-2.77,2.31-3.3a24.56,24.56,0,0,1,3.3-3.31l.66-.66c.18-.17-.1-.1-1.32-1.32-1.86-1.87-.6-2-1.32-4.29-.28-.92,1.26-3,1.65-4a34.24,34.24,0,0,1,2.32-4c.55-.95,1.32,1.76,2,2.64a13.8,13.8,0,0,1,1.32,3.3c.48,1.2,2.42-.88,3.63-1.32.53-.19,1.1.22,1.65.33.36.07,3.57-.29,4-.33,1.28-.1,2.2,1.32,3.3,2,.25.14,2.15.95,3,1.32,1.23.54.44,2.64.66,4,.18,1.08,2.21,2.21,3,3,1.14,1.15,2.2-.8,3.63-1.32,3-1.09,1.07.11,3.3.33,1.51.15,2-.81,3.31-1.32,1.69-.68,2.16-1.38,3.63-2.31,1.76-1.12,2.15-.83,4.29-1.65,1.63-.63,4.11-.35,5.23-.25,1.11-.81,3.22-2.05,4.35-3.06.13-.11,1.87-2.4,3-2.64,1.47-.31,3.46-.87,4.62-1s.9-.63,3.3-.33c1.42.18,4,.86,5.29.66s3.59.5,4.29-.66c.4-.66,1-2.62,2-3.3.32-.22,3-4.66,4.3-3,1,1.26.33,2.26,2.31,3a20.09,20.09,0,0,1,3.63,1.32c.45.24,1.82,3.47,3.64,2,1.21-1,2.14-3.47,3.63-3,1,.33,2,1.26,3,1,1.21-.33,3.33-2.21,3.64-1s1.16.13.66,2.64c-.22,1.1-1.71,2.89-.66,3.3.12.05,2.74.39,3.3,1.32s.89,2.58,2,3.31c.67.44,1.42,3.54,3,2,1.15-1.14,2.2-.86,2.32-2.31.13-1.71.25-3.28.33-4.3s.8-4.34.33-4.62a25.71,25.71,0,0,1-3.31-2c-.23-.34-3.64-1.4-2.31-3.31a25.71,25.71,0,0,0,2.31-3.3c.28-1.1,2.55-3.78,1.32-5.28s-.37-3.2-3-3.64c-.65-.11-3.86-.37-4-.66a14.84,14.84,0,0,0-1.32-3.63c-.77-1.1-2.83-2.06-2.32-3.3.89-2.14.36-2.31,1.66-4,.17-.22,2.09-2.86,2.31-3,1.33-.67,1.12-1.51,2.64-1.32s2.34,1,2.64.33c.64-1.4.43-2.66,1.65-3.64,1-.83,2-2.43,3.31-2.64,1.52-.23,3.14.08,4.29-.66,1.84-1.17,2.52-.71,3.64-2.31s1.48-1.93,2.31-3.3,1.61-.94,2-3.31c.24-1.55.16-3.46.66-4.29s.83-3.3,2-3.3c.21,0,2.92.09,3.3,0,1-.23,4,0,4.3-1,.42-1.27,1.63-1.94,1.32-4-.27-1.76-.33-2.86-.66-4.29-.26-1.11-.58-2.77-1-4.3-.67-2.46,1.44-2.69-1-3.63-1.66-.64-3-1-4.3-1.65-1.06-.53-2.85-1.34-4-2s-3.58-1-4-2.32c-.46-1.59-.21-3.22-1.33-4.62s-.66-2.74-2.64-3.3c-1.42-.41-3.54-.24-4.62-1.32s-2.32-1.54-3-3a14.35,14.35,0,0,0-1.66-3.63c-1-1.22-1.65-2.18-3-3.63-.61-.68-1.95-3.75-3.3-3.64-.26,0-3.5.64-4,.33-1-.65-3.21-1.26-4-2.64-.64-1.17-.89-1.76-2-3.63-.73-1.25-1.46-2.62-2.31-4a18.72,18.72,0,0,1-2.32-3.63,16.56,16.56,0,0,0-1.32-4,35.06,35.06,0,0,1-2.64-4.3c-.36-.83-2.28-3.8-2-4.62a36.66,36.66,0,0,1,1.32-3.63c.17-.37,2.26-3.81,2-4.3s-.95-1.88-1.65-3c-1-1.52-.93-2.25-2.31-3.64s-2.1-2-3.3-3.3c-.86-.94-2.44-2.52-3.31-3.63-.6-.78-2.31-1.93-2.31-3,0-.24.51-2.84,0-3.64-.66-1-1-2.45-2.31-3.63-.08-.07-.17-.17-.27-.25v-1a9.13,9.13,0,0,1,2.58,2.58c1,1.94,2.28.41,3.63.66l3.64.66c1.23.23,2.69-2.45,3.63-3.3s1.81-1.81,2.64-2.64a42.13,42.13,0,0,1,3.64-3,26.91,26.91,0,0,1,3.63-2.31c2-1.24,2.65-.38,4.62-.66,1.38-.2,3.21.54,4,.66,2.34.39,2.46-1.34,3.63-2,.59-.32,2.15-1.67,3-2.31,1.47-1.15,2-1.76,3.31-3,1.5-1.35,1.84-1.84,2.64-2.64,1.27-1.27,2.12-1.06,3.3-1.65s2.25-1,3.64-1.65c.14-.07,3-.92,3.3-1,1.18-.36,1.1-2.2,1.65-3.31.4-.79,3.74-.8,4.62-1a25.4,25.4,0,0,0,4.3-1.65c.87-.33,3.09-.77,4-1,2-.51,1.39-1.08,3-2.31a30.38,30.38,0,0,1,3-2c.53-.36,4.57,0,4.95,0,1,0,2.93-2.64,3.31-3,.55-.5,2.95-1.88,3.63-2.31,1.54-1,0-2.23,0-3.3,0-1.38-1.32-2.42-2-3.63s2.86-.88,4.29-1.33c1-.32,3,.74,4,1,2.27.56,1.39.76,3,1.65,1.25.69.22,2.86.33,4.29,0,.64,2.84.71,4,1,.57.14-1,2.82-1.32,3.64-.53,1.46,2.85,2.33,3.63,3,1.7,1.39,2.62-.79,3.31-1,1.11-.34,1.59-3.18,2-4a23.59,23.59,0,0,0,1.32-4.62c.35-1.21.72-2.87,1-4a23.19,23.19,0,0,0,.39-4.3v-4.71c0-1.21.91-2.73,1.35-4.05.55-1.66-.72-3.6-1-5.06a22.22,22.22,0,0,0-2-3.71c-.72-1.32,1.12-2.23,1.69-3.38,0-2-1.73-3.26-3-5.4-.46-.56-4-.62-4.39-.68a31.22,31.22,0,0,1-3.14-.69v-1.25c1.26.09.63-.48,1.42-.74a28.75,28.75,0,0,0,.67-4c.22-1.37-2.28-2-3-2.64-1.34-1.2-.43-1.14-1-2.65-.79-2.1-1.62-2-2.64-3.3-1.37-1.71-.26-2-.34-2.65,0-.39,1.75-2.91,2-3.3.81-1.36.46-3.24.66-4.63a36.85,36.85,0,0,1,1.32-4c.25-.76-.49-3.45-.66-4.62-.09-.6.23-3.18.33-4.63.17-2.38-.18-2.19-.33-4,0-.41-3.52-1.91-3.64-2-.73-.4-1.29-2.85-1.65-3.63-.82-1.82-.63-2.95-1-4.63-.22-1,1.65-2.48,2-3,.88-1.31.45-3.11.66-4.62.16-1.09-2.12-2.93-2.64-3.64a17.89,17.89,0,0,0-3.3-3c-1.41-1.27-1.7-2.33-2.65-3.64s-3-1.6-4.3-2.31a26.24,26.24,0,0,1-4-3.31,11.88,11.88,0,0,0-3-1.65c-2.13-1.19,0-2,0-4,0-1,2.81-2.8,3.31-3.3,1.53-1.53,1.44-2.89,2.31-4.63a40.3,40.3,0,0,1,2.32-3.63,21.75,21.75,0,0,0,1.65-4.3,13.83,13.83,0,0,1,2.31-4,39.32,39.32,0,0,0-1.65-4.62c-.87-2.44-1.11-1.24-2.09-1.43,0-.07.07-.15.11-.23.21-.38.5-1.5,1-3,.26-.79-1.36-3.25-1.65-4-.64-1.52-.22-3.3-.33-5a19.53,19.53,0,0,0-1.33-3.64,19.92,19.92,0,0,1-.66-4c0-.13,0-.16,0-.27a12.68,12.68,0,0,1-.62-1.39c1.1-2.84-2-2.18-3-3.3-.47-.52-3.43,1.14-4,1.32-.79.26-2.11-2.71-2.31-3-1-1.35-2.58-.6-4.3-1s-1.22-2.23-2-3.63-1.16-2.31-1.66-3.31-.22-2.2-.33-3.3c0-.13-2.36-3.55-2.64-4s1.31-3.95,1.59-4.56c.75-1.62-1.53-1.9-2.25-2.71s-3.43-.26-4.3-.33a26,26,0,0,1-3.23-.64,1.47,1.47,0,0,0-1.73,1.15c-1.07,4.74-2.2-.12-3.3-1.5-.85-1.06-2.64-.66-4-1-.44-.11-2.81-1.54-3.63-2-1.2-.65-2.57-1.16-3.64-1.65-1.85-.84-.27-1.94-.33-2.31a14.29,14.29,0,0,1,.33-3c.11-.92-1.16-3.48-1.32-4-.38-1.14-1.54,1.1-2.31,1.65s-1.54-.44-2.32-.66c-1.2-.35-2,1.54-3,2.31-.38.3-3.54-1.47-4-1.65-1-.44-2.2.4-3.63.66s-1.12,1.49-2,2.65-1,2.81-1.33,3.63a9.71,9.71,0,0,1-1.65,2.65c-.6,1-1.1-2-1.65-3-.29-.52,1.74-3.48,2-4,.54-1.08,2.45-2.2,3.31-3,1.1-1,2.86-.88,4.29-1.32,1.61-.5,3.22-.69,4.63-1a27.08,27.08,0,0,0,4.3-1.66c.62-.23-3.32,0-4,0a37.71,37.71,0,0,0-4.63.67c-1.92.27-2.66-1.11-4-1.66-2.29-1-1.5.15-3.31.33-1.5.15-2.18,1.95-3,2.65-1,.87-.71,3.28-1,4.62-.1.44-2.79,2.79-3,3L1057,58.6a32.16,32.16,0,0,0-2.89,3.53,3.27,3.27,0,0,0-.38,3.45c1.22,2.54-1.69,1-3,1-.09,0-1.57-3.45-1.65-3.63-.59-1.29-1.77,2.2-2.65,3.3-1.49,1.87-2.35.14-3.67.79a2.44,2.44,0,0,1-2.41,0c-1.46-1-2.79-.07-4.16.24a4.46,4.46,0,0,0-2.44,1.36,1.64,1.64,0,0,0-.06,2.36c2.42,2.53.29,1.93-.15,4.54a32.76,32.76,0,0,1-1.32,3.63c-.82,2.26-1.36,1.75-2.31,3-.53.68-1.33-1.1-2-1.65-.85-.71-2.06-2.07-2.31-2.32s-3,1.39-3.64,1.65c-1.42.65-.45,0-1,0-1.25,0-1.23-.12-1.42-.38a5,5,0,0,1-1-3.71c.61-4.2-2.91-.59-3.57-.53-.1,0-2.41,3.32-2.64,3.63a24.49,24.49,0,0,1-3.64,3,39.5,39.5,0,0,0-3.3,3.3c-2.11,2.11-.55,1.41-1,2.87-.52-.86-1.05-1.7-1.34-2.21a7.3,7.3,0,0,0-1-1.32c-.5-.67.67-1.54,1-2.31.88-2.06,1.08-1.4,2.31-3,.89-1.14,1.5-1.71,2.31-2.64.44-.5-1-2.37-1.32-3.31-.29-.72-1.84-1-2.31-1.32-1.26-.72.44-2.86.66-4.29.49-3.22,1.51.5,2,.66,3.07,1,.74-.08,3-.33,1.38-.16,1.74-2.74,2.31-3.64a35,35,0,0,1,2.64-3.3,17.83,17.83,0,0,0,1.66-3.31c.3-.62-.58-3.46-.67-4-.37-2.25-1-2-1.65-3.31-.51-1-3.63,0-4,0-1.69,0-1.68,2.39-2.32,3.31-1,1.47-3.15,1.31-4,1.65-1,.43-1.44-.54-2.65-1a35.86,35.86,0,0,1-3.63-2c-1.93-1-1.39-1.38-3-3-1.1-1.11-2.64-1.1-4-1.65-2.36-1-1.22,1.82-2,3a14.93,14.93,0,0,1-2.64,2.64c-.4.4-1.1.22-1.65.34-1.42.28.44-2.87.66-4.3.19-1.26-2.12-2.12-2.65-2.65-1.1-1.1-2.7,0-4,0a38.21,38.21,0,0,0-4.83.65c-1.17.16-1.26-.15-.22-.7,6-3.14,3.07-3.39,3.07-4.9v-4c0-2-1.48-.88-1.66-1-1.06-.64-1.1,2.2-1.65,3.31s-2.21.66-3.31,1a5.38,5.38,0,0,1-2.42-.3,3.87,3.87,0,0,0-.48,0c-1.35,0,.13-.08,1.58-.66,1.64-.66,2.34-2.34,3.3-3.31a22.68,22.68,0,0,1,3-2.32c.75-.58,1.54-1.1,2.32-1.65.86-1.29.22-3.09.33-4.63.14-2-.57-1.89-1-3.31s-3-1.24-4-1.66c-1.33-.55-4.21,0-4.64,0-1.74,0-2.06-1.65-3.3-2.64-1.87-1.49-1.46,0-3.31,0-1.26,0-1.79,2.55-2.32,3.31-1.61,2.3-.93.53-2.31,1.32-.33.19-3.48-2-4-2.32-1.24-.72-3.55-1.51-4.63-2-1.41-.6-2.47-1.23-4-2-2.18-1.08-2.48,0-3.31,0s-1.1,1.55-1.66,2.32a35.22,35.22,0,0,1-3.64-2.32c-.94-.6-3.47-.8-4.3-1A2.25,2.25,0,0,0,930.61,17.84Zm-5,10-.16,0c-.77.2-2.64,1.9-3.63,2.4-1.24.62,2.42,1.32,3.63,2s.22-2.64.33-4C925.8,28,925.73,27.84,925.58,27.82Zm-7,1.51c-.39-.1-.75,2.82-1.14,3.88-.58,1.59.4,2,.66,3.3.2,1,2,0,3,0s1.54-.88,2.31-1.32c1.37.75-2.42-2-3.64-3-.72-.6-.66-1.76-1-2.64C918.76,29.43,918.68,29.34,918.63,29.33Zm180,1.22c-1,.08-2.12.4-2.43.35-2.31-.36-2.08,1.62-3,2.31a12.71,12.71,0,0,0-1.66,2c-2,2.47.5,1.25.67,1.65.42,1.07,2.2.67,3.3,1a5.12,5.12,0,0,1,1.94,1.36c-.65,0-1.8,1.73-2.6,2.27s-1.76-.66-2.64-1c-1.14-.43-2.11,1.84-2.65,2.31-.84.74,1.48,3,1.65,3.3l1.66,3.31c.7,1.4-1.86,1.85-2.32,2.31-1,1,.66,2.64,1,4,.7,2.78.83.94,2.32,2.64.18.21,3.82,1.18,4.29,1.33,3.24,1,1.5-1.17,3-2.32,1-.79.88-2.42,1.32-3.63,3.26-2.19,3.7-2,5.62-.33,1.13.48-.44,2.42-.66,3.63s3.28.74,3.84-.37a30.1,30.1,0,0,1,2.1-2.27c.29-.34-1.14-3.14-1.32-3.63-.27-.76-2.53-2.26-3-2.64-1.37-1.23-1.46-2.09-2.31-3.31-1.35-1.93,1.56-3.11,2-4,1.13-2.26-1.71-2.44-2.31-3.3a26.41,26.41,0,0,0-3.63-.67c-2.42-.43-1.49-1.11-2.65-2-.88-.66.22-2.2.33-3.3C1100.58,30.63,1099.64,30.47,1098.62,30.55Zm-169,8a.52.52,0,0,0-.17,0c-.9.25-1.81,2.68-2,2.89-1.18,1.18.62,1.08,1.32,2.31s2.43-1.54,3.64-2.31c1.17,0-1.55-1.76-2.32-2.64A.67.67,0,0,0,929.59,38.56Zm168.27,1a4,4,0,0,0,.31.27c1.51,1.13,1,1.13,2.31,2.64.87,1,.52,2.84.66,3.63.23,1.27-1.32-2.2-2-3.3A13.23,13.23,0,0,1,1097.86,39.55ZM936.13,42.23c-.74.16,1.1,2.27,1.51,3.31s1.15-1.42,1.78-2.63a6.77,6.77,0,0,1-1.68-.35h1.88c.38-.56-1.09-.15-2,0a9.53,9.53,0,0,0-1.32-.29Zm3.49.23a3.63,3.63,0,0,0-.2.35C939.65,42.8,939.77,42.72,939.62,42.46Zm77.46-.17c-.8.07-1.92,1.25-2.48,1.49-1.25.56-.66,2.65-1,4-.07.3,2.82,1.57,3,1.66.66.36,1.81,3.3,2,3.63.59,1.08.44-2.42.66-3.63,0-.32,2.14-.26,3.36-.33,2.28-1.71-1.42-2.72-2-4-.71-1.42-1.94-1.72-3-2.64A.69.69,0,0,0,1017.08,42.29ZM1117.2,65.07c-.78.07-1.34,1.31-1.75,1.46-1.39.76-1.31,6.46.31,4.67a13.8,13.8,0,0,1,1.32,3.3c.52,1.3,1.24-2,2.23-3,1.46-1.46,1.13,1,2.31,2s-.9,3.3-1,3.63c-.33,1.21-2.42-.66-3.63-1-.52-.14.62,3.74.66,4,.25,1.5,2.45,1.72,3.3,2.32s3.79-.54,4.63-.66c3.07-.44,1.11-.84,2.64-2,0,0,.94-4.06,1-4.29,1.35-.24-3.3-3.6-3.63-4-.64-.7-1.77-.66-2.65-1s-1.26-1.45-2.31-2.65-1.67-1.54-2.56-2.43A1,1,0,0,0,1117.2,65.07ZM1007.67,95.16c.53,1.59.62,2.87-.66,4.11l-.11.13a4.33,4.33,0,0,1,.77-1.78A3.1,3.1,0,0,0,1007.67,95.16ZM835.55,290.79h.08v0ZM836,338l.1,0a2.65,2.65,0,0,0,.85.24v.31A3.31,3.31,0,0,1,836,338Z"/></g><line class="cls-1" y1="242.53" x2="488.5" y2="242.53"/></g></g></svg>