<?xml version="1.0" encoding="iso-8859-1"?>
<!-- Generator: Adobe Illustrator 23.0.1, SVG Export Plug-In . SVG Version: 6.00 Build 0)  -->
<svg version="1.1" id="Layer_1" xmlns="http://www.w3.org/2000/svg" xmlns:xlink="http://www.w3.org/1999/xlink" x="0px" y="0px"
	 viewBox="0 0 516 181" enable-background="new 0 0 516 181" xml:space="preserve">
<path fill="#f2f2f2" stroke="black" id="_x3C_NCOutline_x3E_" d="M450.388,39.686c0.55,2.423,1.101,4.845,1.771,7.794c4.817-0.626,10.213-1.858,15.601-1.826
	c3.204,0.019,6.397,2.027,9.577,3.134c1.449-6.964,8.47-9.515,14.787-4.846c-0.98,1.066-1.933,2.104-3.167,3.447
	c2.122,2.77,3.896,5.862-0.514,8.09c0.807,2.808,1.531,5.327,2.62,9.114c1.244-1.97,2.487-3.283,2.933-4.827
	c0.443-1.535-0.003-3.306,0.1-4.963c0.119-1.915,0.411-3.82,0.629-5.729c1.987,0.313,3.975,0.625,5.778,0.909
	c1.107-1.072,2.44-2.363,3.773-3.654c1.531,1.624,3.672,3,4.458,4.928c1.415,3.473,2.633,7.183-0.512,10.79
	c-0.839,0.963,0.017,3.237-0.414,4.765c-0.577,2.048-1.648,3.956-2.507,5.924c-0.464-0.157-0.928-0.315-1.392-0.472
	c-0.852-1.918-1.704-3.835-2.715-6.112c-4.355,5.519-8.254,10.348-12.025,15.275c-3.024,3.951-6.388,5.113-11.062,2.598
	c-1.98-1.066-4.741-0.62-6.829-1.565c-1.831-0.828-3.218-2.64-5.016-4.204c-1.225,0.762-2.731,1.697-4.329,2.691
	c-3.97-3.816,1.488-6.332,0.789-10.339c-2.85,0.817-5.595,1.603-7.433,2.129c0,2.519,0.733,5.784-0.137,6.289
	c-2.689,1.563-5.952,2.362-9.08,2.758c-0.654,0.083-1.688-2.83-2.921-5.032c-5.135,3.972-9.605-1.001-15.071-2.294
	c2.002,2.318,4.004,4.636,6.265,7.254c5.273-5.477,8.064,2.286,12.827,2.86c-0.42,1.366-0.777,2.531-1.226,3.992
	c3.516-1.933,6.539-2.807,8.971,1.308c0.427,0.722,3.295,1.074,3.806,0.5c3.23-3.625,6.203-2.729,7.983,0.828
	c2.259,4.515-2.634,4.214-5.061,5.845c1.771,2.684,1.794,4.517-1.837,6.07c-4.802,2.054-9.027,5.442-13.808,7.562
	c-4.637,2.057-6.276-3.05-9.137-5.037c-2.027-1.408-3.435-3.706-6.002-4.904c2.771,3.986,5.248,8.227,8.415,11.868
	c2.166,2.491,13.277,0.98,15.86-1.254c0.953-0.824,2.787-0.558,4.153-0.995c1.653-0.53,3.245-1.258,4.846-1.939
	c1.616-0.687,3.212-1.421,4.816-2.135c0.275,1.984,0.55,3.968,0.911,6.578c-0.445-0.34-0.207-0.003,0.06,0.022
	c2.412,0.219,4.829,0.383,7.245,0.562c-1.274,2.029-2.292,4.29-3.878,6.034c-2.684,2.952-5.647,5.668-8.64,8.316
	c-3.443,3.046-5.277,0.188-7.08-2.253c-3.583,2.361-3.583,2.361-7.572-3.487c1.398,5.803-1.343,5.455-4.625,5.15
	c-8.373-0.779-15.983,1.554-22.87,6.35c-1.363,0.949-2.765,1.875-4.248,2.612c-3.799,1.889-4.936,1.081-5.291-3.061
	c-0.138-1.618-1.135-3.163-1.74-4.741c-0.996,0.481-2.838,0.961-2.838,1.443c-0.002,1.781,0.047,4.056,1.098,5.241
	c2.291,2.585,1.653,3.926-1.013,5.346c-10.942,5.83-19.163,14.226-24.065,25.723c-0.191,0.449-0.5,0.87-0.836,1.227
	c-0.204,0.217-0.565,0.285-1.25,0.604c-0.715-2.852-1.417-5.649-2.118-8.446c-0.474,0.091-0.948,0.183-1.422,0.274
	c0.338,3.146,0.531,6.316,1.052,9.431c0.602,3.601-1.46,6.393-5.168,6.171c-4.828-0.29-9.54-1.374-14.436,0.483
	c-1.65,0.626-4.157-1.007-7.074-1.835c-0.829,0.58-2.488,1.928-4.317,2.983c-4.792,2.764-8.125,1.326-12.115-2.62
	c-17.761-17.561-35.927-34.716-54.169-51.78c-2.049-1.917-5.486-3.237-8.311-3.295c-18.987-0.393-37.982-0.363-56.974-0.494
	c-1.574-0.011-3.146-0.2-5.775-0.378c5.33-8.836-1.033-12.934-5.568-18.002c-2.375,1.49-4.545,2.851-7.488,4.698
	c-0.236-2.924-0.399-4.949-0.628-7.799c-4.723-0.434-9.602-1.162-14.495-1.282c-18.644-0.458-37.323-0.206-55.927-1.279
	c-8.896-0.513-16.049,3.472-24.004,5.306c-8.043,1.855-15.718,7.109-24.629,4.885c-0.94-0.235-1.988-0.049-2.986-0.04
	c-20.264,0.191-40.528,0.411-60.793,0.563c-6.52,0.049-7.094-0.683-6.457-7.317c0.048-0.497,0.129-0.991,0.178-1.488
	c0.98-9.949,0.979-9.949,11.067-10.195c6.344-0.155,6.649-0.666,7.546-6.969c0.246-1.732,2.084-3.262,3.284-4.812
	c0.225-0.291,1.134-0.084,1.318-0.37c5.477-8.513,13.952-5.966,21.741-5.954c1.132,0.002,2.766,0.378,3.317-0.212
	c5.592-5.993,15.118-5.391,20.295-12.322c1.041-1.393,4.609-1.436,6.932-1.224c4.973,0.454,6.569-0.849,6.011-5.806
	c-0.424-3.767,1.139-4.641,6.994-3.756c1.705-4.593,4.605-8.144,9.907-8.473c5.218-0.323,1.856,5.418,5.644,7.387
	c1.251-1.06,3.367-2.163,4.46-3.907c3.949-6.298,11.286-5.716,16.909-8.533c1.033-0.518,3.362,1.551,5.179,2.469
	c6.909-3.277,7.484-16.41,18.97-12.28c0.878-4.433,1.435-8.656,2.681-12.665c0.363-1.168,2.635-2.295,4.136-2.451
	c4.126-0.429,8.306-0.43,12.465-0.431c100.48-0.018,200.96-0.014,301.44-0.014c1,0,2-0.007,2.999,0.004
	c3.792,0.041,6.997,0.239,9.285,4.519c2.549,4.769,6.696,8.658,9.833,13.149c1.369,1.96,2.38,4.402,2.735,6.749
	c0.213,1.409-1.154,3.056-1.811,4.596c-1.453-0.9-3.362-1.478-4.271-2.763c-2.465-3.485-4.451-7.305-6.761-10.906
	c-0.457-0.712-1.511-1.041-2.717-1.02c1.073,1.083,2.411,2.014,3.149,3.291c0.812,1.404,1.071,3.128,1.572,4.712
	c-1.691-0.223-3.537-0.097-5.032-0.761c-1.673-0.744-3.027-2.204-5.32-2.567c2.237,2.531,4.474,5.063,6.71,7.594
	c-0.264,0.594-0.527,1.187-0.791,1.781c-3.27-0.614-6.54-1.228-10.444-1.96c-3.156,4.907-6.684,0.195-10.804-0.863
	c1.369,1.192,2.925,2.232,4.054,3.619c1.059,1.301,1.668,2.97,2.475,4.476c-1.808,0.27-3.655,0.897-5.412,0.704
	c-1.573-0.173-3.046-1.25-4.988-2.119c0.227,1.448,0.422,2.686,0.658,4.191c-0.676,0.298-1.347,0.886-1.815,0.753
	c-4.011-1.134-7.986-2.398-11.956-3.638c0.901-4.983,1.786-9.951,2.671-14.919C449.134,29.413,447.307,34.268,450.388,39.686z
	 M444.603,109.097c4.945-2.716,10.184-5.594,15.423-8.472c-0.075-0.317-0.15-0.633-0.226-0.95c-2.285,0-4.569,0-6.854,0
	c-0.156-0.513-0.312-1.027-0.468-1.54c4.221-1.643,8.443-3.286,12.664-4.929c-0.063-0.618-0.126-1.237-0.189-1.855
	c-1.396,0.065-3.255-0.421-4.104,0.293c-2.991,2.518-5.733,1.883-7.83-0.613c-1.813-2.158-2.852-2.462-5.211-0.726
	c-2.367,1.742-4.358,1.038-4.581-2.427c-0.264-4.111-3.704-6.026-7.356-4.56c-1.254,0.503-3.464,0.525-4.311-0.249
	c-1.838-1.677-3.232-3.92-4.504-6.107c-0.679-1.166-0.728-2.699-1.061-4.066c1.337-0.272,2.793-1.008,3.984-0.705
	c1.717,0.438,3.159,1.892,4.87,2.429c1.769,0.556,3.715,0.669,5.591,0.726c1.719,0.052,3.827-0.879,5.055-0.163
	c1.022,0.596,1.017,2.955,1.499,4.646c2.435-0.673,4.833-1.336,7.746-2.141c-2.045-2.358-3.266-3.765-4.907-5.657
	c2.941-0.811,5.104-1.619,7.338-1.965c2.334-0.361,4.737-0.275,7.11-0.385c0,2.263,0,4.526,0,5.654
	c2.003,1.22,4.024,2.015,5.462,3.41c3.934,3.816,9.324,2.466,13.836,4.174c0.761,0.288,2.392-0.583,3.062-1.386
	c3.24-3.883,4.252-9.654,9.879-11.529c0.209-0.07,0.27-0.577,0.405-0.878c2.62-5.867,4.096-6.045,8.299-1.453
	c0.512-2.35,0.677-5.195,1.765-7.628c1.736-3.885,0.904-8.046-2.872-10.919c-2.267,4.361-2.267,4.361-8.132,2.069
	c0,3.415,0.461,6.782-0.181,9.924c-0.358,1.751-2.408,3.312-4.004,4.564c-0.527,0.414-2.404-0.059-3.005-0.723
	c-2.206-2.435-2.053-10.868-0.016-13.497c-0.628-1.181-1.562-2.291-1.778-3.527c-0.217-1.238,0.281-2.601,0.469-3.929
	c-6.216-0.054-7.224,0.309-7.417,3.659c-0.271,4.712-2.618,4.244-5.669,2.71c-1.907-0.959-3.914-2.875-5.71-2.695
	c-6.46,0.646-12.849,2-19.659,3.153c0.106-2.33,1.445-6.252,0.172-8.935c-2.877-6.063-3.641-11.514,0.363-17.135
	c0.757-1.063,1.816-1.911,2.736-2.858c0.946,1.003,2.557,1.928,2.688,3.028c0.221,1.851-0.162,3.952-0.882,5.705
	c-2.782,6.771-0.873,9.741,6.292,9.917c0-1.673,0-3.35,0-5.027c1.643,0.43,3.324,0.754,4.92,1.317c1.95,0.688,3.83,1.577,5.74,2.379
	c-1.093-2.205-2.988-3.312-4.157-4.94c-0.909-1.266-0.912-3.182-1.318-4.809c1.632,0.135,3.363-0.025,4.868,0.485
	c1.615,0.546,3.019,1.721,4.618,2.684c0.843-1.789,1.44-3.057,2.085-4.425c2.758,1.513,5.262,2.886,7.766,4.26
	c0.263-0.417,0.526-0.835,0.789-1.252c-1.358-1.205-3.046-2.204-3.966-3.681c-0.711-1.141-0.457-2.883-0.633-4.357
	c1.613,0.053,3.342-0.238,4.803,0.259c1.343,0.457,2.397,1.762,3.578,2.694c0.147-0.215,0.294-0.431,0.442-0.646
	c-2.098-2.201-4.195-4.403-6.293-6.604c0.527-0.593,1.054-1.187,1.582-1.78c9.851-0.166,11.126,10.113,16.569,15.728
	c-0.174-2.786-0.742-5.317-2.069-7.355c-2.263-3.476-5.381-6.421-7.456-9.987c-3.488-5.992-8.29-7.502-15.094-7.487
	C376.828,8.237,276.499,8.164,176.17,8.182c-3.493,0.001-7,0.088-10.472,0.42c-1.061,0.102-2.754,1.011-2.919,1.808
	c-0.839,4.039-1.271,8.162-1.99,13.281c0.64-0.68,0.457-0.316,0.188-0.234c-0.624,0.191-1.386,0.512-1.923,0.317
	c-6.782-2.465-10.042,1.839-13.195,6.626c-1.088,1.651-2.435,3.252-4.001,4.424c-1.049,0.785-2.943,1.431-4.029,1.016
	c-7.18-2.743-12.834-0.157-17.963,4.641c-1.335,1.249-2.41,2.801-3.834,3.923c-3.444,2.712-6.098,1.786-7.393-2.415
	c-0.333-1.08-0.663-2.161-1.256-4.095c-2.372,1.587-5.237,2.478-6.159,4.333c-1.967,3.961-3.607,7.307-9.02,4.397
	c1.57,7.745-1.545,10.814-8.772,9.856c-1.537-0.204-3.649-0.132-4.701,0.756c-4.929,4.162-11.215,6.235-16.144,9.584
	c-5.732,3.894-10.663,2.996-16.153,3.31c-1.327,0.076-2.91-0.44-3.949,0.115c-4.314,2.306-8.632,4.69-12.558,7.576
	c-0.996,0.732-0.131,3.629-0.882,5.157c-0.911,1.854-2.328,3.95-4.076,4.773c-1.971,0.929-4.552,0.69-6.871,0.728
	c-6.761,0.109-6.761,0.063-7.246,6.795c-0.036,0.498-0.06,0.998-0.107,1.495c-0.625,6.712-0.625,6.773,6.34,6.711
	c19.763-0.176,39.526-0.408,59.29-0.613c0.832-0.009,1.696-0.117,2.493,0.058c8.766,1.935,16.229-3.26,24.241-4.989
	c7.802-1.683,14.603-5.881,23.53-5.249c22.402,1.586,44.914,1.647,67.384,2.214c4.141,0.105,7.346,0.747,6.118,6.228
	c6.135-3.316,6.369-3.505,7.947-1.545c3.914,4.859,10.409,8.708,6.502,16.901c1.906,0.147,3.185,0.324,4.465,0.333
	c18.162,0.129,36.326,0.359,54.487,0.259c4.486-0.025,7.878,1.179,11.129,4.32c19.159,18.513,38.478,36.86,58.263,55.759
	c2.992-1.692,5.963-3.667,9.188-5.05c1.301-0.558,3.177,0.073,4.756,0.359c1.564,0.283,3.8,1.66,4.488,1.077
	c2.116-1.792,3.768-1.745,6.24-0.811c2.085,0.788,4.6,0.627,6.916,0.561c2.661-0.076,3.656-1.24,2.995-4.244
	c-0.674-3.064-0.544-6.346-0.413-9.517c0.035-0.847,1.25-2.131,2.118-2.319c0.813-0.176,2.137,0.618,2.775,1.374
	c0.76,0.901,1.03,2.216,1.787,4.002c5.489-11.555,14.427-19.025,24.952-24.971c-2.881-2.702-4.505-5.707-2.132-8.985
	c0.953-1.317,4.496-2.61,4.904-2.155c1.976,2.198,3.288,4.994,5.059,7.953c1.469-1.563,6.692-0.89,5.551-6.616
	c-0.025-0.126,1.941-0.964,2.946-0.907c1.491,0.086,3.058,1.216,4.411,0.957c5.778-1.107,11.49-2.562,18.056-4.081
	c0.396-0.362,1.636-2.409,3.019-2.51c1.394-0.102,2.928,1.728,4.238,2.603c0.438-0.723,1.079-1.782,1.72-2.84
	c1.881,2.004,3.762,4.009,5.059,5.391c4.759-4.024,9.218-7.795,13.935-11.783c-2.879,0-5.554,0.753-7.105-0.244
	c-1.191-0.765-0.967-3.735-1.354-5.638c-1.925,1.5-4.075,3.176-6.576,5.124c-0.66-0.343-1.805-0.937-2.423-1.257
	c-1.126,0.931-1.887,1.798-2.839,2.306c-4.983,2.659-10.127,0.564-15.194,0.295c-0.994-0.053-2.22-0.861-2.852-1.691
	c-2.606-3.428-5.159-6.914-7.451-10.555c-1.026-1.63-1.393-3.675-2.51-6.79C435.936,98.214,438.116,106.116,444.603,109.097z"/>
</svg>
