<?xml version="1.0"?>
<svg xmlns="http://www.w3.org/2000/svg" height="512px" viewBox="0 0 512 512" width="512px" class=""><g><path d="m437.019531 74.980469c-48.351562-48.351563-112.640625-74.980469-181.019531-74.980469s-132.667969 26.628906-181.019531 74.980469c-48.351563 48.351562-74.980469 112.640625-74.980469 181.019531s26.628906 132.667969 74.980469 181.019531c48.351562 48.351563 112.640625 74.980469 181.019531 74.980469s132.667969-26.628906 181.019531-74.980469c48.351563-48.351562 74.980469-112.640625 74.980469-181.019531s-26.628906-132.667969-74.980469-181.019531zm-361.019531 196.019531c-8.285156 0-15-6.714844-15-15 0-107.523438 87.476562-195 195-195 8.285156 0 15 6.714844 15 15s-6.714844 15-15 15c-90.980469 0-165 74.019531-165 165 0 8.285156-6.714844 15-15 15zm60 0c-8.285156 0-15-6.714844-15-15 0-74.4375 60.5625-135 135-135 8.285156 0 15 6.714844 15 15s-6.714844 15-15 15c-57.898438 0-105 47.101562-105 105 0 8.285156-6.714844 15-15 15zm120 60c-41.355469 0-75-33.644531-75-75s33.644531-75 75-75 75 33.644531 75 75-33.644531 75-75 75zm0 0" data-original="#000000" class="active-path" data-old_color="#000000" fill="##1DB95"/><path d="m256 211c-24.8125 0-45 20.1875-45 45s20.1875 45 45 45 45-20.1875 45-45-20.1875-45-45-45zm0 60c-8.285156 0-15-6.714844-15-15s6.714844-15 15-15 15 6.714844 15 15-6.714844 15-15 15zm0 0" data-original="#000000" class="active-path" data-old_color="#000000" fill="##1DB95"/></g> </svg>
