<svg xmlns="http://www.w3.org/2000/svg" viewBox="0 0 789.99 49.74"><defs><style>.cls-1{fill:#e3be47;}</style></defs><title>Asset 1</title><g id="Layer_2" data-name="Layer 2"><g id="Layer_1-2" data-name="Layer 1"><path class="cls-1" d="M789.77,30.3c.42.1.29-.19-.81-.62l-.9,0Z"/><path class="cls-1" d="M782.73,26.59c-1.32-.43-2.93-.71-2.2-.11,1.39.2,1.63.49,3.14.72,1.1.43,1.85.91,1.62.94a17.68,17.68,0,0,0,2.32.86,21.16,21.16,0,0,0-5-2.24C782.2,26.52,782.62,26.61,782.73,26.59Z"/><path class="cls-1" d="M669.33,15.17l.74-.09Z"/><path class="cls-1" d="M602,39.05a2.65,2.65,0,0,0,.71-.36C602.2,38.89,601.82,39.06,602,39.05Z"/><path class="cls-1" d="M590.35,42.72l.69-.2A3.24,3.24,0,0,0,590.35,42.72Z"/><path class="cls-1" d="M669.33,15.17c-.64.08-1.28.15-1.91.27A9.21,9.21,0,0,0,669.33,15.17Z"/><path class="cls-1" d="M767.53,21.94c.38.1.71.17,1,.23l-.94-.26Z"/><path class="cls-1" d="M700.69,11.3l.59,0a3.37,3.37,0,0,0,.48-.15Z"/><path class="cls-1" d="M725,11.8a1.44,1.44,0,0,0-1,.33A4.3,4.3,0,0,1,725.2,12S725.15,11.9,725,11.8Z"/><path class="cls-1" d="M762.68,19.23c.23.05.45.09.67.15C763.18,19.33,762.89,19.28,762.68,19.23Z"/><path class="cls-1" d="M683.36,12.62a.4.4,0,0,0-.24-.07S683.22,12.6,683.36,12.62Z"/><path class="cls-1" d="M27.07,13.51s0,0,0,0S26.89,13.53,27.07,13.51Z"/><path class="cls-1" d="M.21,20.72l.34-.17a.28.28,0,0,0,0-.18Z"/><path class="cls-1" d="M568.65,46.77h.09C569.32,46.7,569,46.73,568.65,46.77Z"/><path class="cls-1" d="M370.16,1c2.31.41-3.81.07-.33.58C369.51,1.49,373.05,1.4,370.16,1Z"/><path class="cls-1" d="M766.94,21.71l-.94-.29Z"/><path class="cls-1" d="M369.83,1.62h0l.36.05Z"/><path class="cls-1" d="M518.12,41.67a2.89,2.89,0,0,0,.48.25S518.48,41.82,518.12,41.67Z"/><path class="cls-1" d="M555.67,47.81l-.94,0C555.1,47.8,555.41,47.81,555.67,47.81Z"/><path class="cls-1" d="M499,36.31a9.75,9.75,0,0,0-1.31-.45l.19.1A5.16,5.16,0,0,1,499,36.31Z"/><path class="cls-1" d="M479.47,29.38l.34.19.62.21Z"/><path class="cls-1" d="M89.18,16.6a4.92,4.92,0,0,1-.88-.45C88.57,16.41,85.59,15.84,89.18,16.6Z"/><path class="cls-1" d="M767.56,21.78a1.4,1.4,0,0,1-.62-.07l.66.2C767.67,21.88,767.7,21.85,767.56,21.78Z"/><path class="cls-1" d="M497.49,38.15,494.38,37C495.24,37.36,496.37,37.78,497.49,38.15Z"/><path class="cls-1" d="M235.45,32.65l-.72.25A3.5,3.5,0,0,0,235.45,32.65Z"/><path class="cls-1" d="M485.12,33.8a17.46,17.46,0,0,0-1.68-.81,2.1,2.1,0,0,0-.38-.06Z"/><path class="cls-1" d="M88.29,16.15h0Z"/><path class="cls-1" d="M66.89,13.28c3.09.42,1.5-.17,2.18-.29,3.71.39,1.67.5,2.91.85,2.32.18,4.12.21,5.84.48.12.08.44.16,0,.17,2.49.06,7.19,1.3,10.09,1.49a1,1,0,0,1,.34.17c-.41-.28-.44-.48-.32-.59a12.52,12.52,0,0,1,3.06.67,4,4,0,0,0-1.34-.12l1.46.21c1.22.62-2-.31-2-.06,2.83.49,6.16.93,8.27,1.56.37.43-5-1.09-2.24-.11-1.09-.32-2.19-.58-3.29-.87,2.42,1.07-2-.47.2.59,4.34,1.05,4.91,1,9.23,2.09,1,.07-.26-.35.76-.29,6.24,1.26,4.63,2.06,9.25,2.84a12,12,0,0,1,4.95.89L115,23c4.18,1.19,2.54.12,6.86,1.58-.82-.07-3.33-.78-2.7-.57,2.76,1.07,2.06.35,4.25.94l.36.46c4.48,1.16,9.46,2.28,14.44,3.51-.3,0-1.17-.1,0,.31,6.3,1.47,13.39,3.43,19.48,4.89l2.4.2c.55.12,1,.35.39.28,2.37.59.15-.15,1.33,0,1.37.23,1.77.5.89.42,4.28.57,12.16,1.6,16.64,2.34h-.88a17.61,17.61,0,0,0,3.73.2,14.71,14.71,0,0,1,3.53.17h-.63a190.7,190.7,0,0,0,22,.43c1.08-.38,7.6-.64,8-1.27,2.2-.13,3-.24,4-.31a43.52,43.52,0,0,0,5.29-.8c1.63-.32,2.33-.88,4.28-1.46l.13.28,2.59-1,1.52,0,1.81-.62c-.73.2-1.59.33-1.5.21a45.06,45.06,0,0,1,7.13-1.82c2.22-.8,4.4-1.7,6.59-2.55a12.28,12.28,0,0,1-2.06,1c3.45-1.54.76.1,3.9-1.37-.46.1.17-.26.22-.34a72,72,0,0,0,8-2.93l-.44.4c4.89-1.86,10.18-4.17,15.61-6.32-2,.68-1.67.16-.09-.5l.76.05c.95-.59-1.71.54.31-.52,2-.76,1.5-.19.37.37L276,17.49c.18,0-.38.31-.48.48.93-.6,4.38-1.32,5.72-2.21l.17,0c5.47-2,7.92-3,12.43-4.41,0-.28,1.78-.81,3.08-1.39l5.36-1.25,2.87-.68c1-.25,2-.41,3-.64,2.86-.75.79-.41,2.06-.85.26.2,4.35-.68,2.27,0,1.22-.26,2.22-.52,3.15-.67l2.63-.46L325,4.16c-.71,0-1.48.07-1.09-.09A5.46,5.46,0,0,1,326.41,4l-.3.06c1.76-.29,3.68-.49,5.64-.66,1-.07,2-.18,3-.21l3,0c2,0,3.89-.07,5.68-.15s3.43-.07,4.85-.24l-.32,0,5.91-.36c2.71.12-1.63.15.37.36,3.19-.12,5.71,0,8.08.06s4.59.37,7.22.39a30.16,30.16,0,0,0,4,.6c1.61.21,3.44.39,5.33.57a76.13,76.13,0,0,1,10.36,1.44l-.28-.22a11.09,11.09,0,0,1,2.7.53c-.12-.15-1.49-.37-.61-.34,11.91,1.63,24.32,4.84,36.12,8.29,4.33,1.24,2.73-.25,8.05,1.81l-1.64-.15c2.2.56,4.42,1.18,6.63,1.83s4.4,1.44,6.6,2.17,4.37,1.48,6.53,2.24,4.31,1.46,6.43,2.15a5.6,5.6,0,0,1-1.39-.32A32.23,32.23,0,0,0,465,26.06c1.29.5.24.28,1,.67,1.72.79,4.55,1.37,5.41,1.94.15.1-.52-.11-.85-.22,1.19.33,5.37,2,4.36,1.36,3.1,1.28,6.06,2.12,8.52,3.18,1.75.3,5.35,2.1,6,1.87-.38.35,5.45,2.28,7.52,2.77-.72-.09,1.71.72.86.64,2.31.75,4.45,1.36,4.12,1a25.2,25.2,0,0,0,3.11,1.2c1,.31,2.08.57,3.05.81a18.19,18.19,0,0,1,4.76,1.62c7,1.67,13.55,3.16,20,4.16-.15.2-1.93-.1-3.63-.4s-3.33-.72-3.24-.46c3,.64,5.45.89,7.86,1.21,1.2.16,2.4.34,3.67.53s2.64.31,4.15.53-.91.08-1.45.09c1.53.14,3,.31,4.52.49s3,.22,4.4.34l4.28.27c1.41,0,2.81,0,4.18-.09a5.76,5.76,0,0,1-1.17.13c1.09,0,2.52.07,2.4-.14l-1.06,0c-1.72-.31,4.29-.58,4.47-.8-1.81.72,5.4-.23,2.54.72.71-.09,1.59-.25,1.42-.38,1.06,0,1.4,0,.34.26,3.87-.41,2.48-.42,6-.94,0,.1-.69.24-1,.41a42.58,42.58,0,0,1,6.42-1.25c-.16.08.19.11-.69.24a32.81,32.81,0,0,0,3.52-.77c1.11-.27,2.17-.57,3.23-.9,2.15-.62,4.32-1.32,7-2-1.44.92,1.85-.44,2.24-.17,1-.34,1.88-.7,2.81-1.07l-1.19.23c1.24-.43,2.39-.9,3.49-1.34a32.32,32.32,0,0,1,3.23-1.24l-1.77.82c1.53-.59,3-1.19,4.56-1.83l-2.64.89c2.4-1.14-.43-.33,2.85-1.52-.64.31,2.43-1,3.77-1.29h0a33.9,33.9,0,0,1,4.15-1.91c.51-.08-.21.54.12.49,1.06-.78,5.59-2.51,6.94-3.45-.46.28-.41.47-.23.44l.88-.66c1.15-.41,1.32-.44,1.21-.22,3.36-1.41-1.25,0,2.79-1.51a7.11,7.11,0,0,1-.77.44c4-1.62,7.64-3.46,11.39-4.81,1.23-.09-3.19,1.38-1.83,1.17l4-1.71,4.09-1.7c2.75-1,5.5-2,8.14-2.89l-1,.29c.55-.81,4-1,6.66-2-.65.23-.79.53-.63.43,1.85-.46,3.69-1.09,5.8-1.65l7.25-1.93-.66.3,1.87-.36,2.15-.36,4.17-.71c.68-.26,2.05-.48,1.19-.53,1.86-.18,3.69-.28,5.46-.51s3.5-.51,5.21-.79a70.91,70.91,0,0,1,10.08-.77c-.79.07-1.87.27-1.25.22.94-.11,1.88-.17,2.81-.21l2.82-.15c-.46-.22-.75-.12-1.94-.26a24.31,24.31,0,0,1,3.7-.36c-2.53.23,0,.37,1.13.46-.18-.06.19-.15.1-.22,2.95.34.48-.56,4.52-.22l-.22.12c1.51,0,2.9-.18,4.53-.12.67.28-1.61.1-1.72.32,2.28,0,4.53-.49,6.58,0-1,0-2.36-.08-3.34,0,2.24.33,2.5.35,4.16.48h-.16l3.84.38-1-.14a17.05,17.05,0,0,1,4.47-.08,43.81,43.81,0,0,0,5.2.38c-3.77,0-.64.18-1,.45,1,.19,2.43.45,2,.49a13.42,13.42,0,0,1,2.5.24,19.52,19.52,0,0,0,3.06.35c.1.11,1.92.32,1.47.49,2.34.3-.52-.25-.31-.34A44.26,44.26,0,0,1,745,16.05a59.86,59.86,0,0,0,7.34,1.48c1.12.17,2,.34,2.77.49l2.06.35c1.29.21,2.54.41,4.6.86,1.32.52-1.22.05-1.22.05,1.08.37,2,.62,3,.92s1.87.55,2.91.82c-.44-.05,0,.16.56.46,1.65.49,1.21,0,3.33.83a10.45,10.45,0,0,1-1.76-.14l3,.74c1,.24,2,.57,3,.89.47.35-1.27-.2-2-.36a50.08,50.08,0,0,0,6.58,2l-1.39-.62c.81.29.33.37-.28.2a5.79,5.79,0,0,1-2.78-1.24l1.42.46a12.32,12.32,0,0,0-3.66-1.55c-1.64-.44-3.48-.85-4.92-1.32l1.33,0-3.06-.6c-.59-.31-1-.67.48-.27-2-.84-1.86-.47-3.59-1.2-.19-.08-.1-.08.09-.05l-2.08-.42c.42,0-.27-.37,1,0-3.63-1.2-6-1.26-7.33-1.93l.31.05c-5.19-1-.57.18-4.51-.31l-2.46-1.29-.57.2c-.53-.13-1.58-.37-1.36-.45-2-.22.31.2-.88.15-2.53-.72-7.15-1-7.66-1.61-1,.08,2.45.57-.34.29a4.13,4.13,0,0,0-2.17-.52,20.34,20.34,0,0,1-3.4-.35c.77-.18,3,.21.65-.3-1.49.3-4.63-.63-6.66-.74-.12.35-4.4-.13-7.8-.23.23-.2-6.38-.38-9.54-.55l.09-.06a9.39,9.39,0,0,1-2.46.29l-3.78.2c.09-.22.51-.32,1.8-.46l-2.23.07a15.48,15.48,0,0,1-2.67.31l.55-.29c-.74,0-1.49.07-2.24.12s-1.53.18-2.33.27c-1.59.18-3.29.35-5.21.41-.19.27,3.09.47-.91,1-.16-.13-.34-.35.71-.49a15.48,15.48,0,0,1-1.92.21l1.59-.36c-1.75.05-.89.24-2.27.38,0-.2-1,0-.86-.19.35-.06,1.21-.09,1.73-.2a35.62,35.62,0,0,1-4.09.21c.15.09,0,.26-1.11.43-2.94.4-1-.1-2.77,0-.7.22-2.6.33-2.6.66a3.71,3.71,0,0,1-1.38,0c-1.49.4-7.07,1.3-5.3,1.3l.39-.05-.25.06h0c-2.46.53-5,1.17-7.56,1.67l-3.82.8c-1.25.31-2.47.67-3.67,1l0-.09A80.16,80.16,0,0,0,647,21.27c-.84.29-2,.5-1.71.27a54,54,0,0,1-5.51,1.92c2.1-.95-.81.1,2.18-.9-1.43.43-2.3.69-3.18,1A26.94,26.94,0,0,0,635.53,25c.92-.64-2.19.53-3.47,1.13l2-.61c-1.46.62-2.74,1.13-4,1.65l.57-.6c-5.76,2-9.77,4.93-14.27,6.14-1.37.85,3.08-1.16,1.88-.34-2.58,1.07-5.42,1.78-6.23,2.11-3.57,1.32-3.08,1.83-6.81,3.23.52-.08,1.09,0-1.64,1.24-2.61,1-3.37.75-1.77.06.62-.26.93-.34.92-.29.82-.37,1.9-.85.83-.57l-.3.24c-1.31.42-4.89,1.75-4.11,1.26-1.93.84-.78.49.7,0-1.69.55-3,1-4.32,1.47S592.8,42,591,42.52c.57-.11,1.12-.14.57,0-5.16,1.44-2.19.9-5.67,2-2.05.33.61-.59-2.9.44-2.19.42-.53-.19.3-.5a35.93,35.93,0,0,1-8,1.38l1.7-.35c-1,.21-1.86.33-2.72.46l1,.09a7,7,0,0,1-1.87.13c-1,.31.86.28-1.19.79-.69,0-1.72.24-2.64.36a5.55,5.55,0,0,1-2,0c2.15-.1,2-.17,1.81-.26s-.23-.08-.1-.14.5-.11,1.4-.27a10.81,10.81,0,0,1-1.16.19c-.42,0-.9,0-1.41.06-.16,0,.14-.07.42-.11-4.12,0-1.86.49-6.12.78.53-.22-1-.25-1.69-.25,1.72,0,.83.3-.75.43a43.22,43.22,0,0,0-4.42.08l1.64.07a21.24,21.24,0,0,1-3.85.19c-.16-.12,1.74-.08,1.06-.14-2.14.27-4.78-.61-7.75-.58-1.36-.22-.1-.32-1.29-.52-3.32-.18-3.53-.69-7-.93,1,.34,1.14.35-1.33.21,1.9.25,3.81.39,5.72.58l-3.71-.11c1.73.22,3.66.31,4.68.48-1.76,0-1.58-.07-.78.23a17.46,17.46,0,0,0-3.55-.5c-.62,0-1.24-.09-1.88-.16a17.78,17.78,0,0,1-2-.4l.18-.57a52.38,52.38,0,0,0-5.79-1c-2-.32-4.07-.71-6.67-1.37l1.66.48a33.7,33.7,0,0,1-4.94-1c.2-.15-.83-.5-1.51-.81,0,.16-3.79-1-4.37-.77-.75-.28-1.49-.61-2.23-.92-4.11-1.37-4.92-.82-8.86-2.2,1.26.18-.5-.54,2.2.18a11,11,0,0,0-2.56-.73c-.73-.37-3.75-.95-4.91-1.52a7.77,7.77,0,0,1-2.3-.51c-.15-.09,0-.09,0-.09s-2.35-.68-1.13,0c-3.87-2-11.33-4-14.66-5.77-2.88-1-6.34-2.21-8.93-3.16.18,0,0-.09.52.11-3.51-1.5-2.39-.29-6.39-2-2-1.06,2.22.63,1,0-.35-.82-5-1.72-7.57-3.08l.68.21c-2-1-5.22-1.59-8.65-2.85,0,0,.19,0,.05-.09-2.48-.47-7-1.88-10.36-2.85,1.12.06,1.56.35,1-.11-1.51-.42.32.53-2.71-.31-.93-.43-3.07-1.21-3.27-1.56l2.84.85c-1.35-.78-3.68-1.1-5.16-1.62l.24-.09c-4.38-1.23-4.57-.81-9.26-2.15l.45.25c-2.67-.33-2.1-.81-4.76-1.15l-.68-.58c-1.75-.3-6.07-1.15-9.19-1.68a77.56,77.56,0,0,1,7.71,1.16,51.27,51.27,0,0,0-6.72-1.35,15.14,15.14,0,0,1,2.25.42,65.43,65.43,0,0,1-8.35-1.32c.77-.71-8.87-1.84-11.26-2.87-3.08-.31-6.1-.76-9.25-1.27s-6.44-.86-10-1.23c2.48.85-2.09-.19-1.7.49a18.32,18.32,0,0,1-2.45-.17l-5-.71c-1.19-.26,1.6,0,1.45-.18-3.65-.28-1.51-.4-3.94-.64.49.24-1.29.28-3.38.14l2.94.36a22.22,22.22,0,0,1-4.78-.22C356.53.3,356,.22,355.24.17a17.77,17.77,0,0,0-3,0L353.91,0l-6.22.19c-1.22,0-2.44.09-3.51.17a20.36,20.36,0,0,0-2.64.41c-.47,0-1.1-.17.06-.28-6.35.2-14,1.58-18.94,2l.46-.22a21.25,21.25,0,0,1-3.48.68c.07-.08.45-.22-.1-.15a41.62,41.62,0,0,1-4.62.91l1.29-.38a35,35,0,0,0-4.1.77c-1.23.29-2.35.59-3.44.89l-3.23.9c-1.09.33-2.21.71-3.45,1.07-.09-.42-4.85.66-7.21,1.28l.07-.08c-6.93,2-11.52,4.18-17.67,6.7-4,1-13.07,4.94-19.3,7.12,1-.29,0,.38-1.11.86-1.47.49-3.88,1.83-3.8,1.37l.52-.2c-1.23.07-4.17,1.29-6.5,2.13l-.2.64c-1.59.38-3.39.91-5.24,1.54s-3.78,1.26-5.61,1.9-3.61,1.15-5.13,1.57a22,22,0,0,1-3.73.71c-1.47.55-3.37.9-4.85,1.38l0-.29c-4.25.79-6.37,1.11-11.65,1.79l1-.33c-3,.38-3.69,1.2-6.48,1.41l-.86-.37-2,.12h-2l-4,0c-2.63-.06-5.26-.19-7.87-.09.09-.06.25-.16,1.11-.16-2.48-.12-9.52-1-8.68-.39,0-.19-1.36-.36-3.06-.5l-2.7-.2-2.48-.23.48-.21a29,29,0,0,1-5.86-.37c-.78-.18-.65-.35.38-.09-2.59-.62-2.09-.11-5.23-.84l1.21,0a20.39,20.39,0,0,0-4-.5c-1.7-.25-5.07-1.12-5.4-1.47a12.14,12.14,0,0,1-3.46-.51c-.19-.14.4-.07.69,0-4.41-1.19-6.69-1.29-9.68-2.3,0-.1-.23-.2-.47-.29,3.52.89,6.36,1.61,6.09,1.56.06-.25-2.78-1-.43-.78A73,73,0,0,1,138,27a2.63,2.63,0,0,1-.34-.18l.29.05a13.86,13.86,0,0,0-1.76-.42c-.88-.27-1.43-.45-2.27-.69a35,35,0,0,0-4.64-1.38c0,.31-1.8-.24-.12.45-.22-.08.27,0,1.22.29.21.05.46.11.61.13h-.11l3.53.93a16.8,16.8,0,0,1-3.88-.93c-.78,0-1.62-.06-2.1-.1-1.83-.91-5.5-2.14-6-2.51-4.36-1-10.21-2.68-13.07-2.9a4.86,4.86,0,0,1-1.82-.72c.73.13,1.57.37,2,.4-2.5-.54-7.34-1.84-8-1.64-3.09-.92,1.84.09-2.47-.88l.6,0c-8.33-2.61-14-2.27-23.33-4.58a5.21,5.21,0,0,1,1.11.31C66.63,10.53,54.93,10,44.07,9.85a22.52,22.52,0,0,0-5.29.52l-.69-.24-3.18.63c-2.26.28-4.23.44-6.37.59-1.06.1-2.18.14-3.36.36a38.71,38.71,0,0,0-3.83.95l.77.05-1.86.39-1.05.24-1,.29c-1.28.38-2.29.65-2.15.49a3.86,3.86,0,0,1-1.41.51l-.11-.13a45.08,45.08,0,0,0-4.75,1.88C7.9,17,8,16.8,7.87,16.69s-.18-.09-.62,0a12.41,12.41,0,0,0-2.53.94c-1.95,1-5.39,3-4.61,2.72a6.92,6.92,0,0,1,2.19-.71l-1.75.89c-.12.57-1.24,1.6,3.21-.07l2.89-1.63c.35-.08.72-.12,1.08-.17a27.22,27.22,0,0,0-2.55,1.1A11.83,11.83,0,0,0,7.05,19c.54-.23,1-.49,1.51-.74A4.39,4.39,0,0,0,10,18l2.9-1.53c.43.05-1.27.81.83.22,1.4-.62-1.53,0,.85-.81a7.38,7.38,0,0,0,2.93-.63c.28.05-.08.23-.77.48.77-.3,1.82-.61,2.77-.91a13.54,13.54,0,0,0,2.22-.68c1.67-.1,5.45-1.24,5.38-.71a38,38,0,0,1,4.33-1c-1.33.47.07.24,1.74.05s3.6-.29,3.25,0c2-.73,7.39-.69,11-1a4.09,4.09,0,0,1-.92.07c2,.07,2.65.22,4,.33a4.83,4.83,0,0,1,2.06-.39c1.05-.09,2.28-.07,3.16-.15,2.49.52-1.56.37-.78.78-.12-.32,4.38-.07,3.54-.38a7.63,7.63,0,0,1,2.62.64c.37-.46,1.79.09,3.41-.06,2.75.53.67.47,3.73.73C69.61,13.47,66.89,13.28,66.89,13.28Zm71.4,15.58h0l-1.47-.37Zm6,1.52-2.6-.66c-.18-.14.07-.19.67,0A10.13,10.13,0,0,0,144.27,30.38Zm-12.13-5.17a3.86,3.86,0,0,1,1.37.44l-1.65-.41h-.12A1.47,1.47,0,0,1,132.14,25.21Z"/><path class="cls-1" d="M130.36,25.11,130,25l.55.22h.35Z"/><path class="cls-1" d="M670.2,15.06l-.13,0h.13Z"/><polygon class="cls-1" points="228.83 34.65 228.81 34.58 228.29 34.78 228.83 34.65"/><path class="cls-1" d="M704,12.47a1.4,1.4,0,0,0,.45.06A2.06,2.06,0,0,0,704,12.47Z"/><path class="cls-1" d="M718.61,12.79l2.06.23C719.78,12.91,719.13,12.84,718.61,12.79Z"/><path class="cls-1" d="M729.8,13.86a.52.52,0,0,0,.23-.09h0Z"/><path class="cls-1" d="M556.42,49.7H556C555,49.76,555.65,49.74,556.42,49.7Z"/><path class="cls-1" d="M608.28,37.65c-.5.26-1,.52-1.53.78C607.63,38.08,608.32,37.81,608.28,37.65Z"/><path class="cls-1" d="M497.83,38.27h0l-.35-.12Z"/><path class="cls-1" d="M604.44,39.35a19.82,19.82,0,0,0,2.31-.92C606,38.71,605.15,39,604.44,39.35Z"/><path class="cls-1" d="M777,25.24l.5.19s0,0,.08,0Z"/><path class="cls-1" d="M777.55,25.41l.57.18A4,4,0,0,0,777.55,25.41Z"/><path class="cls-1" d="M779.34,26l-1.22-.38A5.93,5.93,0,0,0,779.34,26Z"/><path class="cls-1" d="M762.93,20.37l-.19.05A.21.21,0,0,0,762.93,20.37Z"/><path class="cls-1" d="M758.55,19.25c1,.3,2.56.9,4,1.22l.16,0C762,20.39,759.59,19.34,758.55,19.25Z"/><path class="cls-1" d="M740.33,14.06l3.75.69c-.64-.21-1.48-.5.24-.24C739.63,13.42,745.25,14.9,740.33,14.06Z"/><path class="cls-1" d="M728.64,12.33c2,.18,0-.16.11-.21C727.45,12.08,727.13,12.07,728.64,12.33Z"/><path class="cls-1" d="M644.4,21.72l.12-.31C643,22,644.53,21.51,644.4,21.72Z"/><polygon class="cls-1" points="629.67 28.76 631.15 28.32 631.73 27.83 629.67 28.76"/><polygon class="cls-1" points="620.12 30.88 620.73 30.57 618.36 31.71 620.12 30.88"/><path class="cls-1" d="M483,30.42l.34.46C484.38,31.19,484.71,30.93,483,30.42Z"/><path class="cls-1" d="M424.39,10.91a11.1,11.1,0,0,0-3.35-1C422.39,10.25,423.69,10.77,424.39,10.91Z"/><polygon class="cls-1" points="243.75 27.42 244.88 26.91 242.71 27.76 243.75 27.42"/></g></g></svg>