<?xml version="1.0" encoding="utf-8"?>
<!-- Generator: Adobe Illustrator 23.0.3, SVG Export Plug-In . SVG Version: 6.00 Build 0)  -->
<svg version="1.1" xmlns="http://www.w3.org/2000/svg" xmlns:xlink="http://www.w3.org/1999/xlink" x="0px" y="0px"
	 viewBox="0 0 1080 260.65" style="enable-background:new 0 0 1080 260.65;" xml:space="preserve">
<style type="text/css">
	.st0{fill:#D9556D;}
	.st1{fill:#011F26;}
	.st2{fill:url(#SVGID_1_);}
</style>
<g id="Layer_2">
	<path class="st0" d="M1031.68,183.54c-2.34,9.09-9.47,9.82-6.44,2.55c9.57-21.15-7.28-33.1-7.28-33.1
		c1.59,3.82,5.69,18.5-2.29,9.02c-7.98-9.48-3.51-23.26-3.51-23.26s-15.64,14.05-3.27,29.74c12.37,15.69,2.79,20.25-0.64,20.25
		c-3.43,0-9.73-0.41-7.34-14.32c2.39-13.91-7.18-17.25-7.18-17.25s4.15,6.68-0.72,16.84c-0.22,0.46-0.41,0.93-0.6,1.39
		c-0.45-3.53-1.56-7.46-3.67-11.81c-10.28-21.25-9.32-25.64-3.54-33.58c0,0-17.67,9.74-12.37,27.83c5.3,18.1-5.14,26.05-10.76,9.73
		c-5.83-16.93-0.32-23.58-0.32-23.58c-3.31,1.4-5.6,4.84-6.96,9.39c-0.01-0.05-0.01-0.08-0.01-0.08
		c-3.36,13.03-13.59,14.07-9.24,3.65c13.74-30.29-10.46-47.42-10.46-47.42c2.29,5.47,8.17,26.51-3.28,12.93
		c-11.45-13.58-5.03-33.31-5.03-33.31s-22.44,20.12-4.7,42.59c17.74,22.47,4,29.02-0.92,29.02c-4.93,0-13.97-0.59-10.53-20.52
		c3.43-19.93-10.31-24.72-10.31-24.72s5.95,9.58-1.03,24.13c-2.5,5.21-3.61,10.53-3.37,15.53c-3.05-5.69-2.47-9.38-0.71-14.59
		c0,0-13.92,13.45-3.08,29.65c10.85,16.19,3.32,26.26-7.27,11.86c-6.48-8.82-8.03-15.11-8.21-18.78c0.24-3.83,1.61-6.06,1.61-6.06
		s-9.57,3.34-7.18,17.22c0.46,2.69,0.6,4.85,0.49,6.62c-4.43,5.51-9.58,3.14-6.82-7.61c1.38-4.8,2.22-9.34,2.67-13.64
		c0.43-1.95,0.51-3.82,0.35-5.6c0.73-34-25.04-50.75-25.04-50.75c4,7.96,15.44,38.88-2.28,19.76
		c-17.71-19.12-12.35-49.43-12.35-49.43s-26.94,32.64,0.76,64.42c22.88,26.25,14.95,38.53,7.75,42.31c7.28-21.3-9.6-33.27-9.6-33.27
		c1.79,4.27,6.37,20.66-2.56,10.08c-8.92-10.59-3.92-25.97-3.92-25.97s-3.75,3.36-6.4,8.71c-3.42-19.72-17.33-23.82-17.33-23.82
		s9.63,13.71,2.63,36.32c-2.12,6.83-2.86,13.67-2.35,20.14c-1.2,2.15-2.69,4.48-4.54,7c-11.84,16.11-20.27,4.85-8.13-13.26
		c12.13-18.11-3.44-33.16-3.44-33.16c1.97,5.82,2.62,9.95-0.8,16.31c0.27-5.58-0.97-11.54-3.76-17.37
		c-7.81-16.28-1.15-26.99-1.15-26.99s-15.37,5.36-11.53,27.65c2.52,14.63-0.97,19.94-5.22,21.86c-2.59-3.35-5.05-5.1-5.05-5.1
		c0.53,1.26,1.3,3.62,1.88,5.99c-1.21,0.17-2.38,0.2-3.39,0.2c-0.99,0-2.29-0.24-3.66-0.77c-4.61-9.54-1.02-20.61-1.02-20.61
		s-3.56,3.2-6.09,8.3c0.51-4.79,3.22-11.11,9.75-19.38c19.85-25.13-5.25-47.65-5.25-47.65s7.17,22.08-5.63,37.27
		c-12.81,15.19-6.24-8.34-3.67-14.46c0,0-27.06,19.16-11.7,53.04c2.87,6.87,0.07,9.28-3.48,7.12c-9.81-20.73-8.65-25.38-2.69-33.58
		c0,0-7.55,4.17-11.66,12.12c-0.1-0.05-0.2-0.11-0.3-0.16c0,0,0.09,0.11,0.22,0.32c-2.33,4.59-3.52,10.42-1.46,17.43
		c0.75,2.55,1.19,4.9,1.41,7.04c-0.17,0.52-0.34,1.05-0.53,1.6c-2.21,6.43-5.1,9.48-7.64,9.86c-1.67-1.44-3.33-4.07-4.72-8.1
		c-0.49-1.42-0.9-2.77-1.25-4.06c0.16-2.55,0.65-5.43,1.58-8.59c5.93-20.24-13.84-31.13-13.84-31.13c6.47,8.9,7.55,13.8-3.96,37.57
		c-0.26,0.54-0.51,1.08-0.74,1.61c-0.83-1.1-0.86-3.35,0.55-6.74c14.67-32.33-11.16-50.61-11.16-50.61
		c2.44,5.84,8.72,28.29-3.51,13.8c-12.22-14.49-5.37-35.56-5.37-35.56s-23.96,21.48-5.01,45.47c10.47,13.26,10.67,21.32,7.86,25.88
		c1.54-12.3-8.81-21.62-8.81-21.62s5,15.41-3.93,26.01c-0.1,0.12-0.19,0.22-0.29,0.33c-1.62-0.36-3.26-1.06-4.62-2.45
		c0.59-2.98,1.67-6.36,2.35-7.98c0,0-2.12,1.51-4.54,4.4c-1.19-3.25-1.52-8.14-0.25-15.51c3.66-21.27-11-26.38-11-26.38
		s6.35,10.22-1.1,25.76c-2.67,5.56-3.85,11.25-3.59,16.57c-3.26-6.07-2.64-10.01-0.76-15.57c0,0-14.86,14.36-3.29,31.65
		c11.58,17.29,3.54,28.04-7.76,12.66c-6.92-9.41-8.57-16.13-8.76-20.05c0.25-4.09,1.72-6.47,1.72-6.47s-10.22,3.56-7.67,18.39
		c0.5,2.87,0.64,5.18,0.53,7.07c-4.73,5.88-10.23,3.35-7.28-8.12c1.47-5.12,2.38-9.97,2.85-14.56c0.46-2.08,0.55-4.08,0.38-5.98
		c0.78-36.29-26.73-54.18-26.73-54.18c4.28,8.5,16.49,41.5-2.43,21.09c-18.91-20.42-13.18-52.77-13.18-52.77
		s-28.75,34.84,0.81,68.77c24.42,28.02,15.96,41.13,8.28,45.17c7.77-22.74-10.25-35.52-10.25-35.52c1.9,4.55,6.79,22.06-2.73,10.76
		c-9.53-11.3-4.19-27.72-4.19-27.72s-4,3.59-6.83,9.3c-3.65-21.05-18.51-25.43-18.51-25.43s10.28,14.64,2.81,38.77
		c-2.26,7.29-3.05,14.6-2.51,21.5c-1.27,2.29-2.87,4.78-4.84,7.47c-12.64,17.21-21.63,5.18-8.68-14.16
		c12.95-19.34-3.68-35.4-3.68-35.4c2.11,6.22,2.8,10.62-0.85,17.42c0.29-5.96-1.03-12.32-4.02-18.54
		c-8.34-17.38-1.23-28.81-1.23-28.81s-16.41,5.72-12.31,29.51c4.1,23.8-6.7,24.5-12.57,24.5c-5.88,0-22.29-7.82-1.09-34.65
		c21.19-26.83-5.61-50.86-5.61-50.86s7.66,23.56-6.01,39.78c-13.67,16.21-6.66-8.9-3.92-15.44c0,0-28.89,20.45-12.49,56.62
		c5.2,12.44-7.02,11.2-11.03-4.36c0,0-0.01,0.04-0.02,0.09c-1.63-5.43-4.36-9.54-8.31-11.21c0,0,6.58,7.94-0.38,28.15
		c-0.62,1.79-1.28,3.33-1.98,4.64c-2.75-8.15-8.92-12.54-8.92-12.54c1.59,3.82,5.69,18.5-2.29,9.02c-0.52-0.62-0.98-1.25-1.4-1.9
		c0.02-3.11,0.54-6.76,1.74-10.85c6.33-21.61-14.77-33.23-14.77-33.23c6.91,9.5,8.06,14.73-4.22,40.11
		c-0.38,0.78-0.72,1.54-1.04,2.3c-1.26-0.92-2.24-1.27-2.24-1.27s0.81,1.31,1.29,3.64c-1.25,3.38-2.02,6.53-2.39,9.43
		c-0.23-0.55-0.45-1.11-0.71-1.65c-5.81-12.13-0.86-20.12-0.86-20.12s-3.88,1.36-6.56,5.78c-5.58-13.47-4.11-17.63,0.71-24.25
		c0,0-4.69,2.59-8.52,7.58c-2.8-6.74-7.64-11.09-7.64-11.09s5.33,16.45-4.2,27.77c-2.91,3.45-4.46,4.21-5.18,3.48
		c-0.21-1.66-0.29-3.15-0.28-4.48c0.54-3.44,1.91-7.81,2.73-9.78c0,0-0.43,0.31-1.11,0.89c-1.8,0.98-3.28,2.59-4.44,4.68
		c-2.37,3.03-4.84,7.27-5.99,12.62c-3.92,4.27-8.12,2.64-5.05-4.73c13.74-30.29-10.46-47.42-10.46-47.42
		c2.29,5.47,8.17,26.51-3.28,12.93c-11.45-13.58-5.04-33.31-5.04-33.31s-22.44,20.12-4.69,42.59c17.75,22.47,4,29.02-0.92,29.02
		c-4.93,0-13.97-0.59-10.53-20.52c3.43-19.93-10.31-24.72-10.31-24.72s5.95,9.58-1.03,24.13c-2.5,5.21-3.61,10.53-3.37,15.53
		c-3.05-5.69-2.47-9.38-0.71-14.59c0,0-13.92,13.45-3.08,29.65c10.85,16.19,3.31,26.26-7.28,11.86c-6.48-8.82-8.03-15.11-8.21-18.78
		c0.23-3.83,1.61-6.06,1.61-6.06s-9.57,3.34-7.18,17.22c0.46,2.69,0.6,4.85,0.49,6.62c-4.43,5.51-9.58,3.14-6.82-7.61
		c1.38-4.8,2.22-9.34,2.67-13.64c0.44-1.95,0.52-3.82,0.36-5.6c0.73-34-25.04-50.75-25.04-50.75c4,7.96,15.44,38.88-2.28,19.76
		c-17.71-19.12-12.35-49.43-12.35-49.43s-26.94,32.64,0.76,64.42c22.88,26.25,14.95,38.53,7.75,42.31c7.28-21.3-9.6-33.27-9.6-33.27
		c1.79,4.27,6.37,20.66-2.56,10.08c-8.92-10.59-3.93-25.97-3.93-25.97s-3.74,3.36-6.4,8.71c-3.42-19.72-17.33-23.82-17.33-23.82
		s9.63,13.71,2.63,36.32c-2.12,6.83-2.86,13.67-2.35,20.14c-1.2,2.15-2.69,4.48-4.54,7c-11.84,16.11-20.27,4.85-8.13-13.26
		c12.13-18.11-3.44-33.16-3.44-33.16c1.97,5.82,2.62,9.95-0.8,16.31c0.27-5.58-0.97-11.54-3.76-17.37
		c-7.81-16.28-1.15-26.99-1.15-26.99s-15.37,5.36-11.53,27.65c3.84,22.29-6.27,22.95-11.78,22.95c-5.51,0-20.88-7.32-1.02-32.46
		c19.85-25.13-5.25-47.65-5.25-47.65s7.17,22.08-5.63,37.27c-12.81,15.19-6.23-8.34-3.67-14.46c0,0-27.06,19.16-11.7,53.04
		c4.87,11.66-6.57,10.49-10.33-4.08c0,0-0.01,0.03-0.02,0.09c-1.53-5.09-4.09-8.94-7.79-10.5c0,0,6.17,7.44-0.36,26.38
		c-6.29,18.25-17.97,9.36-12.04-10.89c5.93-20.24-13.84-31.13-13.84-31.13c6.47,8.9,7.55,13.8-3.96,37.57
		c-2.35,4.87-3.59,9.27-4.1,13.22c-0.21-0.52-0.42-1.04-0.67-1.55c-5.44-11.37-0.8-18.84-0.8-18.84s-10.71,3.74-8.03,19.3
		c2.68,15.56-4.37,16.02-8.21,16.02c-3.84,0-14.54-5.11-0.71-22.65c13.83-17.55-3.66-33.26-3.66-33.26s5,15.41-3.93,26.01
		c-8.92,10.6-4.34-5.82-2.56-10.09c0,0-18.86,13.38-8.15,37.03c3.39,8.14-4.58,7.32-7.2-2.85c0,0-2.51,12.78,10.83,18.21
		c4.77,1.94,9.1,2.51,12.73,2.42h153.34v-0.09h72.77v0.09h91.39c0.52,0.01,1.02,0.01,1.52,0h39.73c0.41,0.01,0.84,0.01,1.27,0
		h122.69v-0.09h77.68v0.09h46.42c0.48,0.01,0.96,0.01,1.42,0h93.75c0.44,0.01,0.89,0.01,1.36,0h263.65
		c3.24,0.08,7.11-0.43,11.38-2.17C1033.93,194.97,1031.68,183.54,1031.68,183.54z M215.38,180.72c-4.14-2.02-7.88-7.05-8.71-18.96
		c0.57,0.94,1.22,1.88,1.97,2.83C214.5,172.01,215.94,177.2,215.38,180.72z M364.72,161.99c0.24-0.31,0.46-0.62,0.68-0.93
		c2.51,12.28-2.71,18.66-7.64,13.63C358.54,171.37,360.62,167.2,364.72,161.99z M546,179.28c-4.42-2.16-8.41-7.53-9.3-20.24
		c0.61,1,1.29,2.01,2.1,3.02C545.06,169.99,546.6,175.52,546,179.28z M823.63,180.72c-4.15-2.02-7.88-7.05-8.72-18.96
		c0.58,0.94,1.22,1.88,1.97,2.83C822.74,172.01,824.18,177.2,823.63,180.72z"/>
</g>
<g id="Layer_5">
	<g>
		<path class="st1" d="M783.75,120.48c10.22-22.57-7.78-35.34-7.78-35.34c1.7,4.08,6.07,19.76-2.44,9.64
			c-8.51-10.12-3.75-24.83-3.75-24.83s-16.69,15-3.49,31.74c13.2,16.75,2.98,21.62-0.68,21.62c-3.66,0-10.39-0.43-7.83-15.29
			c2.56-14.85-7.66-18.42-7.66-18.42s4.43,7.13-0.77,17.98c-0.24,0.5-0.44,0.99-0.64,1.49c-0.49-3.77-1.67-7.97-3.91-12.61
			c-10.98-22.68-9.95-27.37-3.78-35.85c0,0-18.86,10.39-13.2,29.71c5.66,19.32-5.49,27.8-11.49,10.39
			c-6.23-18.07-0.34-25.17-0.34-25.17c-3.53,1.49-5.97,5.17-7.43,10.02c-0.01-0.05-0.01-0.08-0.01-0.08
			c-3.59,13.9-14.51,15.01-9.86,3.89c14.67-32.33-11.16-50.61-11.16-50.61c2.44,5.84,8.72,28.29-3.51,13.8
			c-12.22-14.49-5.37-35.56-5.37-35.56s-23.96,21.48-5.01,45.47c18.94,23.98,4.28,30.97-0.98,30.97c-5.26,0-14.91-0.62-11.25-21.9
			c3.66-21.27-11-26.38-11-26.38s6.35,10.22-1.1,25.76c-2.67,5.56-3.85,11.25-3.59,16.57c-3.26-6.07-2.64-10.01-0.76-15.57
			c0,0-14.86,14.36-3.29,31.65c11.58,17.29,3.54,28.04-7.76,12.66c-6.92-9.42-8.57-16.13-8.76-20.05c0.25-4.09,1.72-6.47,1.72-6.47
			s-10.22,3.56-7.67,18.39c0.5,2.87,0.64,5.18,0.53,7.07c-4.73,5.88-10.23,3.35-7.28-8.12c1.47-5.12,2.38-9.97,2.85-14.56
			c0.46-2.08,0.55-4.08,0.38-5.98c0.78-36.29-26.73-54.18-26.73-54.18c4.28,8.5,16.49,41.5-2.43,21.09
			c-18.91-20.42-13.18-52.77-13.18-52.77s-28.75,34.84,0.81,68.77c24.42,28.02,15.96,41.13,8.28,45.17
			c7.77-22.74-10.25-35.52-10.25-35.52c1.9,4.55,6.79,22.06-2.73,10.76c-9.53-11.3-4.19-27.72-4.19-27.72s-4,3.59-6.83,9.3
			c-3.65-21.05-18.51-25.43-18.51-25.43s10.28,14.64,2.81,38.77c-2.26,7.29-3.05,14.6-2.51,21.5c-1.27,2.29-2.87,4.78-4.84,7.47
			c-12.64,17.21-21.63,5.18-8.68-14.16c12.95-19.34-3.68-35.4-3.68-35.4c2.11,6.22,2.8,10.62-0.85,17.42
			c0.29-5.96-1.03-12.32-4.02-18.54c-8.34-17.38-1.23-28.81-1.23-28.81s-16.41,5.72-12.31,29.51c4.1,23.8-6.7,24.5-12.57,24.5
			c-5.88,0-22.29-7.82-1.09-34.65c21.19-26.83-5.61-50.86-5.61-50.86s7.66,23.56-6.01,39.78c-13.67,16.21-6.66-8.9-3.92-15.44
			c0,0-28.89,20.45-12.49,56.62c5.2,12.44-7.02,11.2-11.03-4.36c0,0-0.01,0.04-0.02,0.09c-1.63-5.43-4.36-9.54-8.31-11.21
			c0,0,6.58,7.94-0.38,28.15c-6.71,19.48-19.18,9.98-12.85-11.62c6.33-21.61-14.77-33.23-14.77-33.23
			c6.91,9.5,8.06,14.73-4.22,40.11c-2.51,5.2-3.84,9.9-4.38,14.1c-0.23-0.55-0.45-1.11-0.71-1.65c-5.81-12.13-0.86-20.12-0.86-20.12
			s-11.43,3.99-8.58,20.6c2.86,16.62-4.66,17.1-8.76,17.1c-4.09,0-15.53-5.46-0.76-24.18c14.77-18.73-3.9-35.5-3.9-35.5
			s5.33,16.45-4.2,27.77c-9.52,11.32-4.63-6.22-2.73-10.78c0,0-20.13,14.28-8.7,39.53c3.62,8.68-4.89,7.82-7.69-3.04
			c0,0-2.68,13.64,11.56,19.44c5.1,2.07,9.72,2.69,13.59,2.59h163.69v-0.09h77.68v0.09h141.59c3.46,0.09,7.59-0.46,12.15-2.31
			c12.73-5.19,10.33-17.38,10.33-17.38C788.13,127.47,780.52,128.24,783.75,120.48z M568.53,114.74c-4.42-2.16-8.41-7.53-9.3-20.24
			c0.61,1,1.29,2.01,2.1,3.02C567.58,105.45,569.13,110.98,568.53,114.74z"/>
		<path class="st1" d="M409.81,225.94c0.27-0.66,0.49-1.02,0.49-1.02s-0.27,0.1-0.7,0.31C409.67,225.47,409.74,225.7,409.81,225.94z
			"/>
		<path class="st1" d="M301.9,105.11c0.14-2.32,0.7-4.04,1.12-5.04c-0.07-0.24-0.14-0.47-0.21-0.71c-2.16,1.09-8.48,5.33-6.48,16.91
			c0.46,2.69,0.6,4.85,0.49,6.62c-4.43,5.51-9.58,3.14-6.82-7.61c1.38-4.8,2.22-9.34,2.67-13.64c0.44-1.95,0.52-3.82,0.36-5.6
			c0.73-34-25.04-50.75-25.04-50.75c4,7.96,15.44,38.88-2.28,19.76c-17.71-19.12-12.35-49.43-12.35-49.43s-26.94,32.64,0.76,64.42
			c22.88,26.25,14.95,38.53,7.75,42.31c7.28-21.3-9.6-33.27-9.6-33.27c1.79,4.27,6.37,20.66-2.56,10.08
			c-8.92-10.59-3.93-25.97-3.93-25.97s-3.74,3.36-6.4,8.71c-3.42-19.72-17.33-23.82-17.33-23.82s9.63,13.71,2.63,36.32
			c-2.12,6.83-2.86,13.67-2.35,20.14c-1.2,2.15-2.69,4.48-4.54,7c-11.84,16.11-20.27,4.85-8.13-13.26
			c12.13-18.11-3.44-33.16-3.44-33.16c1.97,5.82,2.62,9.95-0.8,16.31c0.27-5.58-0.97-11.54-3.76-17.37
			c-7.81-16.28-1.15-26.99-1.15-26.99s-15.37,5.36-11.53,27.65c3.84,22.29-6.27,22.95-11.78,22.95c-5.51,0-20.88-7.32-1.02-32.46
			c19.85-25.13-5.25-47.65-5.25-47.65s7.17,22.08-5.63,37.27c-12.81,15.19-6.23-8.34-3.67-14.46c0,0-27.06,19.16-11.7,53.04
			c4.87,11.66-6.57,10.49-10.33-4.08c0,0-0.01,0.03-0.02,0.09c-1.53-5.09-4.09-8.94-7.79-10.5c0,0,6.17,7.44-0.36,26.38
			c-6.29,18.25-17.97,9.36-12.04-10.89c5.93-20.24-13.84-31.13-13.84-31.13c6.47,8.9,7.55,13.8-3.96,37.57
			c-2.35,4.87-3.59,9.27-4.1,13.22c-0.21-0.52-0.42-1.04-0.67-1.55c-5.44-11.37-0.8-18.84-0.8-18.84s-10.71,3.74-8.03,19.3
			c2.68,15.56-4.37,16.02-8.21,16.02c-3.84,0-14.54-5.11-0.71-22.65c13.83-17.55-3.66-33.26-3.66-33.26s5,15.41-3.93,26.01
			c-8.92,10.6-4.34-5.82-2.56-10.09c0,0-18.86,13.38-8.15,37.03c3.39,8.14-4.58,7.32-7.2-2.85c0,0-2.51,12.78,10.83,18.21
			c4.77,1.94,9.1,2.51,12.73,2.42h153.34v-0.09h72.77v0.09h11.51c-1.79-7.02-3.6-14.04-5.45-21.04
			C303.5,114.53,302.07,108.62,301.9,105.11z M248.87,122.51c-4.14-2.02-7.88-7.05-8.71-18.96c0.57,0.94,1.22,1.88,1.97,2.83
			C247.99,113.8,249.43,118.99,248.87,122.51z"/>
		<path class="st1" d="M1074.9,120.57c-2.34,9.09-9.47,9.82-6.44,2.55c9.57-21.15-7.28-33.1-7.28-33.1
			c1.59,3.82,5.69,18.5-2.29,9.02c-7.98-9.48-3.51-23.26-3.51-23.26s-15.64,14.05-3.27,29.74c12.37,15.69,2.79,20.25-0.64,20.25
			s-9.73-0.41-7.34-14.32c2.39-13.91-7.18-17.25-7.18-17.25s4.15,6.68-0.72,16.84c-0.22,0.46-0.41,0.93-0.6,1.39
			c-0.45-3.53-1.56-7.46-3.67-11.81c-10.28-21.25-9.32-25.64-3.54-33.58c0,0-17.67,9.74-12.37,27.83c5.3,18.1-5.14,26.05-10.76,9.73
			c-5.83-16.93-0.32-23.58-0.32-23.58c-3.31,1.4-5.6,4.84-6.96,9.39C998,90.36,998,90.33,998,90.33
			c-3.36,13.03-13.59,14.07-9.24,3.65c13.74-30.29-10.46-47.42-10.46-47.42c2.29,5.47,8.17,26.51-3.28,12.93
			c-11.45-13.58-5.03-33.31-5.03-33.31s-22.44,20.12-4.7,42.59c17.74,22.47,4,29.02-0.92,29.02c-4.93,0-13.97-0.59-10.53-20.52
			c3.43-19.93-10.31-24.72-10.31-24.72s5.95,9.58-1.03,24.13c-2.5,5.21-3.61,10.53-3.37,15.53c-3.05-5.69-2.47-9.38-0.71-14.59
			c0,0-13.92,13.45-3.08,29.65c10.85,16.19,3.32,26.26-7.27,11.86c-6.48-8.82-8.03-15.11-8.21-18.78c0.24-3.83,1.61-6.06,1.61-6.06
			s-9.57,3.34-7.18,17.22c0.46,2.69,0.6,4.85,0.49,6.62c-4.43,5.51-9.58,3.14-6.82-7.61c1.38-4.8,2.22-9.34,2.67-13.64
			c0.43-1.95,0.51-3.82,0.35-5.6c0.73-34-25.04-50.75-25.04-50.75c4,7.96,15.44,38.88-2.28,19.76
			c-17.71-19.12-12.35-49.43-12.35-49.43s-9.59,11.63-11.44,27.76c1.28,6.12,1.9,12.38,1.77,18.67c1.88,5.87,5.16,11.95,10.43,17.99
			c22.88,26.25,14.95,38.53,7.75,42.31c7.28-21.3-9.6-33.27-9.6-33.27c1.79,4.27,6.37,20.66-2.56,10.08
			c-8.92-10.59-3.92-25.97-3.92-25.97s-2.01,1.81-4.12,4.86c-0.78,1.12-1.57,2.41-2.28,3.84c-3.42-19.72-17.33-23.82-17.33-23.82
			s9.63,13.71,2.63,36.32c-2.12,6.83-2.86,13.67-2.35,20.14c-1.2,2.15-2.69,4.48-4.54,7c-0.79,1.08-1.56,2.02-2.32,2.86
			c0.04,6.5-0.17,12.96-0.58,19.39h27.17h193.8c3.24,0.08,7.11-0.43,11.38-2.17C1077.15,131.99,1074.9,120.57,1074.9,120.57z"/>
	</g>
</g>
<g id="Layer_3">
	<linearGradient id="SVGID_1_" gradientUnits="userSpaceOnUse" x1="551.6402" y1="216.4646" x2="551.6402" y2="21.0062">
		<stop  offset="0" style="stop-color:#FFFFFF"/>
		<stop  offset="0" style="stop-color:#FAE8EB"/>
		<stop  offset="0" style="stop-color:#F1C1CA"/>
		<stop  offset="0" style="stop-color:#EAA0AD"/>
		<stop  offset="0" style="stop-color:#E48496"/>
		<stop  offset="0" style="stop-color:#DF6F84"/>
		<stop  offset="0" style="stop-color:#DC6077"/>
		<stop  offset="0" style="stop-color:#DA586F"/>
		<stop  offset="0" style="stop-color:#D9556D"/>
		<stop  offset="0.0711" style="stop-color:#DE4762"/>
		<stop  offset="0.2272" style="stop-color:#E72D4F"/>
		<stop  offset="0.3886" style="stop-color:#ED1B41"/>
		<stop  offset="0.5569" style="stop-color:#F11039"/>
		<stop  offset="0.7431" style="stop-color:#F20C36"/>
		<stop  offset="1" style="stop-color:#011F26"/>
	</linearGradient>
	<path class="st2" d="M1080.57,186.98c-2.74,14.53-11.07,15.7-7.53,4.07c11.2-33.79-8.52-52.89-8.52-52.89
		c1.86,6.1,6.65,29.57-2.68,14.42c-9.33-15.15-4.11-37.16-4.11-37.16s-18.29,22.45-3.82,47.51c14.46,25.07,3.27,32.36-0.75,32.36
		c-4.01,0-11.39-0.65-8.59-22.89c2.8-22.23-8.4-27.57-8.4-27.57s4.85,10.68-0.84,26.92c-0.26,0.74-0.48,1.48-0.7,2.22
		c-0.53-5.63-1.83-11.93-4.29-18.88c-12.03-33.96-10.9-40.96-4.14-53.67c0,0-20.67,15.55-14.47,44.47
		c6.2,28.91-6.01,41.62-12.59,15.55c-6.83-27.05-0.38-37.67-0.38-37.67c-3.87,2.24-6.54,7.73-8.14,15
		c-0.01-0.08-0.02-0.13-0.02-0.13c-3.93,20.81-15.89,22.48-10.8,5.83c16.07-48.39-12.23-75.76-12.23-75.76
		c2.68,8.74,9.55,42.35-3.84,20.66c-13.39-21.7-5.89-53.23-5.89-53.23s-26.25,32.16-5.49,68.06c20.76,35.9,4.69,46.36-1.07,46.36
		c-5.76,0-16.34-0.94-12.32-32.78c4.02-31.84-12.05-39.49-12.05-39.49s6.96,15.3-1.21,38.56c-2.92,8.33-4.22,16.84-3.94,24.81
		c-3.57-9.09-2.9-14.98-0.83-23.3c0,0-16.29,21.49-3.6,47.37c12.69,25.88,3.88,41.96-8.51,18.95c-1.94-3.6-3.5-6.93-4.75-10
		c0.53-9.24-0.25-19.01-2.46-28.77c-7.33-32.29,2.75-51.88,2.75-51.88s-14.55,5.85-18.13,34.02c-2.77-7.64-6.69-12.44-6.69-12.44
		s5.22,21.97-4.1,37.1c-9.33,15.12-4.54-8.3-2.68-14.4c0,0-17.66,17.1-10.04,47.53c-7.53-5.41-15.82-22.95,8.11-60.45
		c28.96-45.39,0.8-92.02,0.8-92.02s5.61,43.29-12.92,70.61c-18.53,27.32-6.57-16.85-2.38-28.22c0,0-26.95,23.94-26.19,72.5
		c-0.17,2.54-0.09,5.22,0.37,8c0.46,6.15,1.35,12.63,2.79,19.49c2.89,15.35-2.49,18.74-7.13,10.87c-0.11-2.53,0.03-5.63,0.52-9.46
		c2.5-19.84-7.51-24.6-7.51-24.6s1.44,3.19,1.68,8.66c-0.19,5.25-1.8,14.23-8.58,26.83c-11.07,20.58-18.95,6.2-7.61-16.94
		c11.34-23.13-3.22-42.35-3.22-42.35c1.84,7.44,2.45,12.71-0.74,20.84c0.25-7.13-0.91-14.74-3.52-22.18
		c-7.3-20.79-1.08-34.47-1.08-34.47s-14.37,6.84-10.78,35.31c3.59,28.47-5.86,29.31-11.01,29.31c-5.15,0-19.51-9.35-0.96-41.45
		c18.56-32.09-4.91-60.84-4.91-60.84s6.71,28.19-5.27,47.59c-11.97,19.4-5.83-10.65-3.43-18.46c0,0-25.3,24.47-10.94,67.73
		c3.22,10.52-1.18,12.85-5.28,6.76c-1.2-7.61-3.77-13.65-6.24-17.98c-1.23-3.07-2.81-5.43-4.75-6.83c-0.67-0.77-1.08-1.18-1.08-1.18
		c0.86,2.81,2.29,9.05,2.85,13.96c0.01,1.91-0.07,4.05-0.29,6.42c-0.75,1.04-2.38-0.06-5.42-4.99c-9.96-16.17-4.39-39.67-4.39-39.67
		s-5.06,6.22-7.99,15.85c-4-7.12-8.91-10.82-8.91-10.82c5.04,9.46,6.57,15.4,0.74,34.64c-2.8-6.31-6.86-8.26-6.86-8.26
		s5.18,11.4-0.89,28.74c-0.28,0.78-0.51,1.58-0.75,2.36c-0.39-4.15-1.19-8.65-2.5-13.48c0.51-3.33,1.35-5.2,1.35-5.2
		s-1.03,0.49-2.34,1.81c-0.34-1.08-0.7-2.17-1.09-3.28c-12.84-36.25-11.64-43.73-4.42-57.29c0,0-22.07,16.61-15.45,47.47
		c1.25,5.84,1.8,11.05,1.82,15.49c-0.44,0.93-0.92,1.84-1.47,2.72c-8.34,13.54-4.06-7.43-2.39-12.89c0,0-6.46,6.27-9.33,17.92
		c-0.73-1.88-1.42-4.08-2.07-6.63c-7.29-28.88-0.4-40.22-0.4-40.22c-4.13,2.38-6.99,8.25-8.69,16.01c-0.01-0.09-0.02-0.14-0.02-0.14
		c-4.2,22.22-16.97,24-11.54,6.22C658.21,87.96,628,58.75,628,58.75c2.86,9.33,10.2,45.21-4.1,22.05
		c-14.29-23.16-6.29-56.82-6.29-56.82s-28.02,34.33-5.86,72.65c22.16,38.33,5,49.49-1.14,49.49c-6.15,0-17.44-1-13.15-34.99
		c4.29-34-12.87-42.16-12.87-42.16s7.43,16.33-1.29,41.16c-3.12,8.89-4.5,17.97-4.2,26.48c-3.82-9.71-3.09-16-0.89-24.88
		c0,0-17.39,22.95-3.84,50.57c13.54,27.63,4.14,44.8-9.08,20.22c-2.07-3.85-3.73-7.4-5.06-10.67c0.57-9.86-0.26-20.29-2.63-30.71
		c-7.82-34.47,2.94-55.38,2.94-55.38s-15.53,6.24-19.35,36.32c-2.96-8.15-7.14-13.28-7.14-13.28s5.58,23.46-4.38,39.6
		c-9.96,16.14-4.85-8.87-2.86-15.37c0,0-18.85,18.25-10.72,50.74c-8.03-5.77-16.88-24.5,8.65-64.52
		c30.92-48.46,0.85-98.24,0.85-98.24s5.99,46.22-13.79,75.38c-19.78,29.16-7.01-17.99-2.54-30.12c0,0-28.77,25.55-27.95,77.39
		c-0.18,2.71-0.09,5.57,0.39,8.54c0.5,6.56,1.44,13.48,2.98,20.8c3.08,16.39-2.66,20.01-7.61,11.6c-0.12-2.7,0.03-6.01,0.55-10.1
		c2.67-21.18-8.02-26.26-8.02-26.26s1.53,3.4,1.8,9.24c-0.2,5.6-1.92,15.19-9.16,28.64c-11.82,21.96-20.23,6.62-8.12-18.08
		c12.11-24.69-3.44-45.21-3.44-45.21c1.97,7.94,2.62,13.56-0.79,22.24c0.27-7.61-0.97-15.74-3.76-23.68
		c-7.79-22.19-1.15-36.79-1.15-36.79s-15.33,7.3-11.5,37.69c1.33,10.53,0.98,17.52-0.26,22.15c-2.52-4.13-4.74-6.29-4.74-6.29
		c0.71,2.32,1.84,7.14,2.45,11.41c-1.42,1.98-3.13,2.99-4.83,3.49c-0.1-0.16-0.2-0.3-0.3-0.48c-9.33-15.15-4.11-37.16-4.11-37.16
		s-10.83,13.31-9.21,30.88c-2.93-6.52-2.73-18.03,8.22-36.97c19.81-34.26-5.24-64.95-5.24-64.95s7.16,30.09-5.62,50.8
		c-12.78,20.71-6.22-11.37-3.67-19.71c0,0-27.01,26.12-11.67,72.3c1.48,4.84,1.44,8.05,0.58,9.62c-0.25-0.76-0.5-1.52-0.77-2.29
		c-12.03-33.96-10.9-40.96-4.13-53.67c0,0-20.67,15.55-14.47,44.47c0.97,4.51,1.49,8.63,1.65,12.26c-0.37,1.84-0.79,3.77-1.31,5.8
		c-1.45,5.77-3.2,9.52-4.95,11.58c-2.66-0.56-5.67-4.92-7.99-14.09c-0.2-0.77-0.38-1.53-0.55-2.28c0.22-3.05,0.69-6.41,1.47-10.05
		c2.15-10.02,0.91-18.34-1.53-24.9c0.14-0.3,0.23-0.45,0.23-0.45c-0.11,0.06-0.22,0.14-0.32,0.21c-4.3-11.35-12.19-17.3-12.19-17.3
		c6.23,11.71,7.45,18.35-2.81,47.97c-3.71,3.09-6.64-0.36-3.64-10.17c16.07-48.39-12.23-75.76-12.23-75.76
		c2.68,8.74,9.55,42.35-3.84,20.66c-13.39-21.7-5.89-53.23-5.89-53.23s-26.25,32.16-5.49,68.06c6.83,11.81,9.66,20.85,10.19,27.68
		c-2.65-7.28-6.37-11.85-6.37-11.85s3.75,15.8-1.07,29.43c-1.42,0.76-2.79,1.1-3.82,1.1c-1.06,0-2.28-0.03-3.54-0.28
		c0.6-3.38,1.42-6.75,1.97-8.55c0,0-2.58,2.5-5.28,7.28c-4.45-2.75-8.1-10.33-5.46-31.23c4.02-31.84-12.05-39.49-12.05-39.49
		s6.97,15.3-1.2,38.56c-2.92,8.33-4.22,16.84-3.94,24.81c-3.57-9.09-2.9-14.98-0.83-23.3c0,0-16.29,21.49-3.6,47.37
		c12.69,25.88,3.88,41.96-8.51,18.95c-1.93-3.6-3.5-6.93-4.75-10c0.53-9.24-0.25-19.01-2.46-28.77
		c-7.33-32.29,2.75-51.88,2.75-51.88s-14.55,5.85-18.13,34.02c-2.78-7.64-6.69-12.44-6.69-12.44s5.22,21.97-4.11,37.1
		c-9.33,15.12-4.54-8.3-2.68-14.4c0,0-17.65,17.1-10.04,47.53c-7.53-5.41-15.82-22.95,8.11-60.45c28.96-45.39,0.79-92.02,0.79-92.02
		s5.61,43.29-12.92,70.61c-18.53,27.32-6.57-16.85-2.38-28.22c0,0-26.95,23.94-26.19,72.5c-0.17,2.54-0.08,5.22,0.37,8
		c0.47,6.15,1.35,12.63,2.79,19.49c2.88,15.35-2.5,18.74-7.13,10.87c-0.11-2.53,0.03-5.63,0.52-9.46c2.5-19.84-7.51-24.6-7.51-24.6
		s1.43,3.19,1.68,8.66c-0.19,5.25-1.8,14.23-8.58,26.83c-11.08,20.58-18.95,6.2-7.61-16.94c11.34-23.13-3.22-42.35-3.22-42.35
		c1.85,7.44,2.45,12.71-0.74,20.84c0.25-7.13-0.91-14.74-3.52-22.18c-7.3-20.79-1.08-34.47-1.08-34.47s-14.37,6.84-10.78,35.31
		c3.59,28.47-5.86,29.31-11.02,29.31c-5.14,0-19.51-9.35-0.96-41.45c18.56-32.09-4.91-60.84-4.91-60.84s6.71,28.19-5.26,47.59
		c-11.98,19.4-5.83-10.65-3.44-18.46c0,0-25.3,24.47-10.93,67.73c4.55,14.89-6.15,13.4-9.66-5.21c0,0,0,0.04-0.02,0.12
		c-1.43-6.5-3.82-11.42-7.28-13.41c0,0,5.76,9.5-0.34,33.68c-5.88,23.31-16.8,11.95-11.26-13.9c5.55-25.85-12.94-39.75-12.94-39.75
		c6.05,11.36,7.06,17.63-3.7,47.98c-2.2,6.21-3.36,11.84-3.83,16.88c-0.2-0.66-0.4-1.32-0.63-1.99
		c-5.09-14.51-0.75-24.06-0.75-24.06s-10.01,4.78-7.51,24.65c2.51,19.88-4.09,20.46-7.67,20.46c-3.59,0-13.6-6.52-0.67-28.93
		c12.93-22.41-3.42-42.48-3.42-42.48s4.67,19.68-3.67,33.22c-8.34,13.54-4.06-7.43-2.39-12.89c0,0-17.63,17.08-7.62,47.28
		c3.17,10.4-4.29,9.35-6.73-3.64c0,0-2.35,16.32,10.12,23.25c4.47,2.48,8.51,3.21,11.9,3.09h138.7v-0.12h76.1v0.12h60.91
		c0.48,0.02,0.96,0.02,1.42,0h98.04c0.48,0.02,0.97,0.02,1.48,0h48.55v-0.13h81.24v0.13h128.32c0.45,0.01,0.89,0.01,1.32,0h41.54
		c0.52,0.02,1.05,0.02,1.59,0h95.57v-0.12h76.1v0.12h160.36c3.79,0.13,8.32-0.69,13.31-3.46
		C1083.2,205.23,1080.57,186.98,1080.57,186.98z M240.26,186.07c-0.58-5.03,0.93-12.44,7.06-23.04c0.79-1.36,1.46-2.7,2.06-4.04
		C248.51,176,244.6,183.18,240.26,186.07z M530.58,184.02c-0.62-5.37,0.99-13.27,7.53-24.59c0.84-1.45,1.56-2.89,2.19-4.32
		C539.38,173.26,535.21,180.93,530.58,184.02z M727.43,177.46c-5.15,7.18-10.62-1.93-7.99-19.47c0.24,0.44,0.46,0.88,0.71,1.32
		C724.44,166.75,726.61,172.72,727.43,177.46z M876.32,186.07c-0.59-5.03,0.93-12.44,7.06-23.04c0.79-1.36,1.46-2.7,2.06-4.04
		C884.57,176,880.66,183.18,876.32,186.07z"/>
</g>
<g id="Layer_4">
	<path class="st1" d="M948.32,230.44c-2.49,9.71-10.1,10.49-6.87,2.72c10.22-22.57-7.78-35.34-7.78-35.34
		c1.7,4.08,6.07,19.76-2.44,9.64c-8.51-10.12-3.75-24.83-3.75-24.83s-16.69,15-3.49,31.74c13.2,16.75,2.98,21.62-0.68,21.62
		c-3.66,0-10.39-0.43-7.83-15.29c2.56-14.85-7.66-18.42-7.66-18.42s4.43,7.13-0.77,17.98c-0.24,0.5-0.44,0.99-0.64,1.49
		c-0.49-3.77-1.67-7.97-3.91-12.61c-10.98-22.68-9.95-27.37-3.78-35.85c0,0-18.86,10.39-13.2,29.71
		c5.66,19.32-5.49,27.8-11.49,10.39c-6.23-18.07-0.34-25.17-0.34-25.17c-3.53,1.49-5.97,5.17-7.43,10.02
		c-0.01-0.05-0.01-0.08-0.01-0.08c-3.59,13.9-14.51,15.01-9.86,3.89c14.67-32.33-11.16-50.61-11.16-50.61
		c2.44,5.84,8.72,28.29-3.51,13.8c-12.22-14.49-5.37-35.56-5.37-35.56s-23.96,21.48-5.01,45.47c18.94,23.98,4.28,30.97-0.98,30.97
		c-5.26,0-14.91-0.62-11.25-21.9c3.66-21.27-11-26.38-11-26.38s6.35,10.22-1.1,25.76c-2.67,5.56-3.85,11.25-3.59,16.57
		c-3.26-6.07-2.64-10.01-0.76-15.57c0,0-14.86,14.36-3.29,31.65c11.58,17.29,3.54,28.04-7.76,12.66
		c-6.92-9.41-8.57-16.13-8.76-20.05c0.25-4.09,1.72-6.47,1.72-6.47s-10.22,3.56-7.67,18.39c0.5,2.87,0.64,5.18,0.53,7.07
		c-4.73,5.88-10.23,3.35-7.28-8.12c1.47-5.12,2.38-9.97,2.85-14.56c0.46-2.08,0.55-4.08,0.38-5.98
		c0.78-36.29-26.73-54.18-26.73-54.18c4.28,8.5,16.49,41.5-2.43,21.09c-18.91-20.42-13.18-52.77-13.18-52.77
		s-28.75,34.84,0.81,68.77c24.42,28.02,15.96,41.13,8.28,45.17c7.77-22.74-10.25-35.52-10.25-35.52c1.9,4.55,6.79,22.06-2.73,10.76
		c-9.53-11.3-4.19-27.72-4.19-27.72s-4,3.59-6.83,9.3c-3.65-21.05-18.51-25.43-18.51-25.43s10.28,14.64,2.81,38.77
		c-2.26,7.29-3.05,14.6-2.51,21.5c-1.27,2.29-2.87,4.78-4.84,7.47c-12.64,17.21-21.63,5.18-8.68-14.16
		c12.95-19.34-3.68-35.4-3.68-35.4c2.11,6.22,2.8,10.62-0.85,17.42c0.29-5.96-1.03-12.32-4.02-18.54
		c-8.34-17.38-1.23-28.81-1.23-28.81s-16.41,5.72-12.31,29.51c4.1,23.8-6.7,24.5-12.57,24.5c-5.88,0-22.29-7.82-1.09-34.65
		c21.19-26.83-5.61-50.86-5.61-50.86s7.66,23.56-6.01,39.78c-13.67,16.21-6.66-8.9-3.92-15.44c0,0-28.89,20.45-12.49,56.62
		c5.2,12.44-7.02,11.2-11.03-4.36c0,0-0.01,0.04-0.02,0.09c-1.63-5.43-4.36-9.54-8.31-11.21c0,0,6.58,7.94-0.38,28.15
		c-6.71,19.48-19.18,9.98-12.85-11.62c6.33-21.61-14.77-33.23-14.77-33.23c6.91,9.5,8.06,14.73-4.22,40.11
		c-2.51,5.2-3.84,9.9-4.38,14.1c-0.23-0.55-0.45-1.11-0.71-1.65c-5.81-12.13-0.86-20.12-0.86-20.12s-6.79,2.38-8.59,11.07
		c-1.43-2.85-3.17-5.11-4.67-6.74c4.17-14.69-8.74-26.31-8.74-26.31s4.18,12.91-1.49,23.73c-1.82-8.07,0.66-15.73,0.66-15.73
		s-4.06,3.66-6.59,9.37c-1.57,1.26-6.51,5.6-9.45,12.68c-1.87-1.77-3.63-2.39-3.63-2.39s2.31,3.77,1.61,9.97
		c-0.03,0.22-0.05,0.45-0.08,0.68c-0.32,2.18-1.01,4.64-2.3,7.33c-0.24,0.5-0.44,0.99-0.64,1.49c-0.49-3.77-1.67-7.97-3.91-12.61
		c-10.98-22.68-9.95-27.37-3.78-35.85c0,0-18.86,10.39-13.2,29.71c5.66,19.32-5.49,27.8-11.49,10.39
		c-6.23-18.07-0.34-25.17-0.34-25.17c-3.53,1.49-5.97,5.17-7.43,10.02c-0.01-0.05-0.01-0.08-0.01-0.08
		c-3.59,13.9-14.51,15.01-9.86,3.89c14.67-32.33-11.16-50.61-11.16-50.61c2.44,5.84,8.72,28.29-3.51,13.8
		c-12.22-14.49-5.37-35.56-5.37-35.56s-23.96,21.48-5.01,45.47c18.94,23.98,4.28,30.97-0.98,30.97c-5.26,0-14.91-0.62-11.25-21.9
		c3.66-21.27-11-26.38-11-26.38s6.35,10.22-1.1,25.76c-2.67,5.56-3.85,11.25-3.59,16.57c-3.26-6.07-2.64-10.01-0.76-15.57
		c0,0-14.86,14.36-3.29,31.65c11.58,17.29,3.54,28.04-7.76,12.66c-6.92-9.41-8.57-16.13-8.76-20.05c0.25-4.09,1.72-6.47,1.72-6.47
		s-10.22,3.56-7.67,18.39c0.5,2.87,0.64,5.18,0.53,7.07c-4.73,5.88-10.23,3.35-7.28-8.12c1.47-5.12,2.38-9.97,2.85-14.56
		c0.46-2.08,0.55-4.08,0.38-5.98c0.78-36.29-26.73-54.18-26.73-54.18c4.28,8.5,16.49,41.5-2.43,21.09
		c-18.91-20.42-13.18-52.77-13.18-52.77s-28.75,34.84,0.81,68.77c24.42,28.02,15.96,41.13,8.28,45.17
		c7.77-22.74-10.25-35.52-10.25-35.52c1.9,4.55,6.79,22.06-2.73,10.76c-9.53-11.3-4.19-27.72-4.19-27.72s-4,3.59-6.83,9.3
		c-3.65-21.05-18.51-25.43-18.51-25.43s10.28,14.64,2.81,38.77c-2.26,7.29-3.05,14.6-2.51,21.5c-1.27,2.29-2.87,4.78-4.84,7.47
		c-12.64,17.21-21.63,5.18-8.68-14.16c12.95-19.34-3.68-35.4-3.68-35.4c2.11,6.22,2.8,10.62-0.85,17.42
		c0.29-5.96-1.03-12.32-4.02-18.54c-8.34-17.38-1.23-28.81-1.23-28.81s-16.41,5.72-12.31,29.51c4.1,23.8-6.7,24.5-12.57,24.5
		c-5.88,0-22.29-7.82-1.09-34.65c21.19-26.83-5.61-50.86-5.61-50.86s7.66,23.56-6.01,39.78c-13.67,16.21-6.66-8.9-3.92-15.44
		c0,0-28.89,20.45-12.49,56.62c5.2,12.44-7.02,11.2-11.03-4.36c0,0-0.01,0.04-0.02,0.09c-1.63-5.43-4.36-9.54-8.31-11.21
		c0,0,6.58,7.94-0.38,28.15c-6.71,19.48-19.18,9.98-12.85-11.62c6.33-21.61-14.77-33.23-14.77-33.23c6.91,9.5,8.06,14.73-4.22,40.11
		c-2.51,5.2-3.84,9.9-4.38,14.1c-0.23-0.55-0.45-1.11-0.71-1.65c-5.81-12.13-0.86-20.12-0.86-20.12s-11.43,3.99-8.58,20.6
		c2.86,16.62-4.66,17.1-8.76,17.1c-4.09,0-15.53-5.45-0.76-24.18c14.77-18.73-3.9-35.5-3.9-35.5s5.33,16.45-4.2,27.77
		c-9.52,11.32-4.63-6.22-2.73-10.78c0,0-20.13,14.28-8.7,39.53c3.62,8.68-4.89,7.82-7.69-3.04c0,0-2.68,13.64,11.56,19.44
		c5.1,2.07,9.72,2.69,13.59,2.59h163.69v-0.09h77.68v0.09h141.59c0.66,0.02,1.36,0,2.07-0.03c0.77,0.04,1.52,0.05,2.24,0.03h163.69
		v-0.09h77.68v0.09h141.59c3.46,0.09,7.59-0.46,12.15-2.31C950.73,242.63,948.32,230.44,948.32,230.44z M338.96,227.42
		c-4.42-2.16-8.41-7.53-9.3-20.24c0.61,1,1.3,2.01,2.1,3.02C338.01,218.13,339.56,223.66,338.96,227.42z M539.61,218.42
		c4.79,7.52,4.18,12.12,2.11,14.71C538.45,231.24,535.57,226.83,539.61,218.42z M545.61,209.25c1.17-1.6,2.12-3.18,2.85-4.73
		C549.47,209.01,549.57,213.13,545.61,209.25z M531.68,199.83c-0.11,2,0.1,4.11,0.71,6.3C530.83,206.27,530.97,203.25,531.68,199.83
		z M726.23,227.42c-4.42-2.16-8.41-7.53-9.3-20.24c0.61,1,1.3,2.01,2.1,3.02C725.29,218.13,726.83,223.66,726.23,227.42z"/>
</g>
</svg>
