<svg xmlns="http://www.w3.org/2000/svg" viewBox="0 0 1456.58 188.2"><title>Asset 3</title><g id="Layer_2" data-name="Layer 2"><g id="Layer_2-2" data-name="Layer 2"><path d="M94.4,21.2Q109.6,34,109.6,56.4T94.4,91.5q-15.2,12.7-42,12.7H14.8v44.2H0V8.4H52.4Q79.21,8.4,94.4,21.2ZM83.8,82.1q11-9.1,11-25.7,0-17-11-26.1T52,21.2H14.8v70H52Q72.81,91.2,83.8,82.1Z"/><path d="M135.8,17.2a9.82,9.82,0,0,1-3-7.2,9.59,9.59,0,0,1,3-7,10,10,0,0,1,7.4-3,10.26,10.26,0,0,1,7.4,2.9,9.26,9.26,0,0,1,3,6.9,10.06,10.06,0,0,1-3,7.4,10.63,10.63,0,0,1-14.8,0Zm.2,26h14.2V148.4H136Z"/><path d="M205.5,142.6a49.16,49.16,0,0,1-19.3-19.1,55,55,0,0,1-7-27.7,54.4,54.4,0,0,1,7-27.6,49.37,49.37,0,0,1,19.3-19,56.73,56.73,0,0,1,27.9-6.8,54.11,54.11,0,0,1,24.3,5.3,40.39,40.39,0,0,1,16.9,15.5L264,70.4a33.21,33.21,0,0,0-13.2-11.7,39.21,39.21,0,0,0-17.4-3.9,41.18,41.18,0,0,0-20.5,5.1,35.8,35.8,0,0,0-14.2,14.5,44.16,44.16,0,0,0-5.1,21.4,44,44,0,0,0,5.1,21.5,36,36,0,0,0,14.2,14.4,41.18,41.18,0,0,0,20.5,5.1,40.12,40.12,0,0,0,17.4-3.8A32.43,32.43,0,0,0,264,121.4l10.6,7.2a40.24,40.24,0,0,1-17,15.5,54.25,54.25,0,0,1-24.2,5.3A56.73,56.73,0,0,1,205.5,142.6Z"/><path d="M339.8,95.6,315,118.4v30H300.8V0H315V100.6l62.8-57.4h17.6l-45,43,49.2,62.2H382.2Z"/><path d="M564.19,111h-78l-16.8,37.4H454l64-140h14.6l64,140H581Zm-5.4-12-33.6-75.2L491.59,99Z"/><path d="M695.49,140.4a67.33,67.33,0,0,1-26.2-25.5,71.18,71.18,0,0,1-9.5-36.5,71.18,71.18,0,0,1,9.5-36.5,67.12,67.12,0,0,1,26.3-25.5q16.8-9.19,37.6-9.2A77.83,77.83,0,0,1,762,12.4a59.67,59.67,0,0,1,22.4,15.2L775,37q-16.4-16.6-41.4-16.6a60.81,60.81,0,0,0-30.2,7.6,55.51,55.51,0,0,0-21.3,20.8,57.7,57.7,0,0,0-7.7,29.6,57.7,57.7,0,0,0,7.7,29.6,55.51,55.51,0,0,0,21.3,20.8,60.81,60.81,0,0,0,30.2,7.6q25.2,0,41.4-16.8l9.4,9.4a60.41,60.41,0,0,1-22.5,15.3,77.44,77.44,0,0,1-28.9,5.3Q712.19,149.6,695.49,140.4Z"/><path d="M824,142.5a50.39,50.39,0,0,1-19.2-19.1,54.4,54.4,0,0,1-7-27.6,54.4,54.4,0,0,1,7-27.6,49.65,49.65,0,0,1,19.2-19,58.6,58.6,0,0,1,54.8,0,48.93,48.93,0,0,1,19.1,19,55.06,55.06,0,0,1,6.9,27.6,55.06,55.06,0,0,1-6.9,27.6,49.65,49.65,0,0,1-19.1,19.1,57.85,57.85,0,0,1-54.8,0Zm47.5-10.8a35.54,35.54,0,0,0,13.9-14.5,44.91,44.91,0,0,0,5-21.4,44.91,44.91,0,0,0-5-21.4,35.54,35.54,0,0,0-13.9-14.5,42.16,42.16,0,0,0-40.2,0,36.22,36.22,0,0,0-14,14.5,44.16,44.16,0,0,0-5.1,21.4,44.16,44.16,0,0,0,5.1,21.4,36.22,36.22,0,0,0,14,14.5,42.16,42.16,0,0,0,40.2,0Z"/><path d="M1028.59,43.2V148.4H1015V129.2a38.92,38.92,0,0,1-15.4,14.9,46.37,46.37,0,0,1-22.4,5.3q-20.6,0-32.5-11.5t-11.9-33.7v-61H947v59.6q0,16.61,8.2,25.2t23.4,8.6q16.6,0,26.2-10.1t9.6-28.1V43.2Z"/><path d="M1153.49,53.9q11.7,11.51,11.7,33.5v61H1151V88.8q0-16.39-8.2-25t-23.4-8.6q-17,0-26.9,10.1t-9.9,27.9v55.2h-14.2V43.2H1082V62.6a39.42,39.42,0,0,1,16.1-14.9q10.29-5.3,23.9-5.3Q1141.79,42.4,1153.49,53.9Z"/><path d="M1259.19,142a27,27,0,0,1-9.9,5.5,39.84,39.84,0,0,1-12.3,1.9q-14.81,0-22.8-8t-8-22.6V55.2h-18.8v-12h18.8v-23h14.2v23h32v12h-32V118q0,9.41,4.7,14.3t13.5,4.9a26.26,26.26,0,0,0,8.5-1.4,21.16,21.16,0,0,0,7.1-4Z"/><path d="M1313.48,47.8q9.91-5.4,24.5-5.4V56.2l-3.39-.2q-16.6,0-26,10.2t-9.4,28.6v53.6H1285V43.2h13.61V63.8A34.41,34.41,0,0,1,1313.48,47.8Z"/><path d="M1456.58,43.2,1404,161q-6.4,14.81-14.8,21t-20.2,6.2a41.22,41.22,0,0,1-14.2-2.4,30.77,30.77,0,0,1-11.4-7.2L1350,168a26.19,26.19,0,0,0,19.2,8,19.3,19.3,0,0,0,12.3-4q5.1-4,9.5-13.6l4.6-10.2-47-105h14.8l39.6,89.4,39.6-89.4Z"/></g></g></svg>