<svg xmlns="http://www.w3.org/2000/svg" viewBox="0 0 803.29 812.79"><defs><style>.cls-1{fill:#7c92a6;}.cls-2{fill:#f5f5f5;}</style></defs><title>Asset 4</title><g id="Layer_2" data-name="Layer 2"><g id="Layer_1-2" data-name="Layer 1"><path class="cls-1" d="M802,422.08c-2.38-19.26-5.13-37.71-9.9-56.2q-1.53-11-3.27-21.94a407.29,407.29,0,0,0-11.93-53.12A454.2,454.2,0,0,0,748,219.08a246.81,246.81,0,0,0-13.64-23.82h0A293.82,293.82,0,0,0,716,160.34c-7.14-11.61-15.67-22.13-24.08-32.86a94.5,94.5,0,0,0-12.17-13.12c-6-5.24-12.55-10-19-14.85-2.35-3.19-5.23-7.36-8.23-10.23-3.49-3.35-8.5-6.74-11.8-9.29-4-3.11-8.11-6.63-12.52-9.39-2.21-1.38-4.53-2.61-6.81-3.88l-9.91-5.52c-13-9.88-26.39-18.76-41.56-25.4q-8.73-3.82-17.43-7.44l-12.63-7a70.28,70.28,0,0,0-35.11-11.2A70.63,70.63,0,0,0,485.06,8.5c-17.41-3.1-35-5.2-52.55-6.87-41.8-4-83.41-.25-124.69,7A332.25,332.25,0,0,0,259,21c-15.38,5.19-30.26,11.75-45.16,18.13Q202.2,44.1,191,50a284.88,284.88,0,0,0-37.2,23.61c-17.92,13.43-35.7,27-51.42,43S73,150.43,60.12,168.51a256.52,256.52,0,0,0-22.34,37.67c-9.71,20.19-18.75,41.31-24.68,63a242.42,242.42,0,0,0-5.34,24.73C5,310.6,2.65,327.47,1.45,344.36a376.49,376.49,0,0,0,.14,51.27c-.74,7-1.28,13.95-1.48,21-.8,27.64,2.93,55.22,7.28,82.45,7.16,44.87,23.26,88.28,42.76,129.16a273.5,273.5,0,0,0,13,24.15c8.47,14,18.64,26.65,28.7,39.49,15.92,20.3,35.57,35.81,56.46,50.93a249.62,249.62,0,0,0,46.9,26.25C219.05,779.46,243,789.31,268,796.47,294.27,804,321.07,808,348.21,811a245.26,245.26,0,0,0,56.22.26c7.62-.89,15.14-1.83,22.58-2.94,3.89.35,7.78.64,11.67.84a216.53,216.53,0,0,0,28.25-.41,423.48,423.48,0,0,0,50.4-6.95,206.2,206.2,0,0,0,27.2-7.5,384.61,384.61,0,0,0,46.4-19.7c21.15-10.75,40.44-25.7,58.37-41,11.89-10.16,22.33-21.81,32-34,4.6-3.6,9.09-7.32,13.47-11,11.29-9.57,19.92-22,28.72-33.72a152.2,152.2,0,0,0,15.57-26.5c1.42-2,2.84-3.94,4.24-5.93a307.5,307.5,0,0,0,21.55-35.09c3.23-6.19,6.17-12.51,8.9-18.94,5.73-13.49,11.8-26.9,16.32-40.87,6.79-20.94,9.53-42.56,12-64.4A173.19,173.19,0,0,0,802,422.08Z"/><path class="cls-2" d="M500.78,623.86c.86-.11.51-.75-1.76-1.11l-1.79.63Z"/><path class="cls-2" d="M486.13,618.69c-2.7-.23-5.95-.23-4.51,1.11,2.85-.22,3.38.33,6.43,0a14.43,14.43,0,0,1,1.53.42,7,7,0,0,1,1.16.4c.62.27.9.54.67.67.85-.08,3.45,1,4.79.6-2.76-1.4-6.45-2.07-10.4-2.57C485,618.86,485.9,618.82,486.13,618.69Z"/><path class="cls-2" d="M281.6,534.18l1.42.28A9.63,9.63,0,0,0,281.6,534.18Z"/><path class="cls-2" d="M165.07,472.32c.65.81,1,1.1,1.09,1.09C165.53,472.68,165,472.09,165.07,472.32Z"/><path class="cls-2" d="M153.8,452.1l.57,1.23A4,4,0,0,0,153.8,452.1Z"/><path class="cls-2" d="M281.6,534.18l-3.64-.71C277.67,533.76,279.82,533.91,281.6,534.18Z"/><path class="cls-2" d="M456.16,610.59a15.39,15.39,0,0,0,2,.62l-1.78-.71Z"/><path class="cls-2" d="M341.64,545.93l1.07.35a8.41,8.41,0,0,0,1-.09Z"/><path class="cls-2" d="M385.19,563.71c-.94-.52-1.64.07-2.17.21a5.57,5.57,0,0,1,2.32.54C385.43,564.33,385.39,564.09,385.19,563.71Z"/><path class="cls-2" d="M448.27,602.83l1.22.51Z"/><path class="cls-2" d="M309.06,537.22a.89.89,0,0,0-.37-.38C308.67,536.94,308.82,537.08,309.06,537.22Z"/><path class="cls-2" d="M555.22,629.78c0-.06,0-.1,0-.15C554.94,629.72,554.86,629.79,555.22,629.78Z"/><path class="cls-2" d="M501.18,621.68l.75.08a1,1,0,0,0,.24-.43Z"/><path class="cls-2" d="M142.8,411.87v.19C143,413.14,142.92,412.52,142.8,411.87Z"/><path class="cls-2" d="M428.62,232.83c-4.4-1.07,7.32-.46.67-1.77C429.89,231.43,423.11,232,428.62,232.83Z"/><path class="cls-2" d="M455.09,610l-1.76-.81A18,18,0,0,0,455.09,610Z"/><path class="cls-2" d="M429.29,231.06h0l-.69-.12Z"/><path class="cls-2" d="M165.91,319.6a3.29,3.29,0,0,0-.83.66C165.17,320.27,165.38,320.14,165.91,319.6Z"/><path class="cls-2" d="M140.84,387.23l.26-1.78A17.81,17.81,0,0,0,140.84,387.23Z"/><path class="cls-2" d="M187.47,288.41a12.55,12.55,0,0,0,1.84-1.94,3.14,3.14,0,0,0-.35.24A6.45,6.45,0,0,1,187.47,288.41Z"/><path class="cls-2" d="M217.24,262.77c-.21.06-.47.18-.7.26l-1,.73Z"/><path class="cls-2" d="M497.37,582.51a6.72,6.72,0,0,1,.47,1.91C498,583.58,501.58,588.08,497.37,582.51Z"/><path class="cls-2" d="M456.34,610.15a2,2,0,0,1-1.25-.18l1.25.53C456.5,610.43,456.57,610.34,456.34,610.15Z"/><path class="cls-2" d="M183.61,282.76c1.47-1.59,3-3.14,4.53-4.68C186.82,279.34,185.15,281,183.61,282.76Z"/><path class="cls-2" d="M624.28,378.31l.27,1.46A5.86,5.86,0,0,0,624.28,378.31Z"/><path class="cls-2" d="M202.6,265.1a22.29,22.29,0,0,0,3.27-1.78,3.79,3.79,0,0,0,.47-.63Z"/><path class="cls-2" d="M497.85,584.44v0Z"/><path class="cls-2" d="M528.25,610.44c-.61-.34-1.12-.61-1.54-.8a9.36,9.36,0,0,0-1-.48c-.51-.2-.76-.17-.9,0s-.13.86-.82.79c-.74-.44-1.34-.8-1.82-1.11a8.94,8.94,0,0,1-1.05-.83c-.49-.45-.62-.71-.62-.9,0-.39.52-.53-.24-1.45L517.7,604l-2.4-1.44a26,26,0,0,1-4-3.08c-.05-.31-.44-.81.24-.44a26.62,26.62,0,0,1-3.21-2.71c-1.11-1.15-2.32-2.4-3.48-3.75a95.67,95.67,0,0,0-6.76-7.38,1.89,1.89,0,0,1-.2-.74c.08,1-.29,1.5-.72,1.59-1.64-2.14-3.54-3.63-3.53-4.89a5.29,5.29,0,0,0,1.89,1.81l-1.89-2.13c-.61-2.68,2.51,3,3.16,2.47-3.51-4.21-7.8-9.1-9.86-12.82.35-1.27,5.73,8.07,3.37,2.87,1.09,1.89,2.22,3.75,3.34,5.62-.75-2.51-.21-1.68.36-.81s1.21,1.74.61-.61c-4.56-7.22-5.76-7.66-10.14-15.08-1.51-1.33-.38,1-1.87-.34-3.57-4.81-3.62-7.27-3.51-9,.06-.89.24-1.63.28-2.5s0-1.82.23-3.26a5.35,5.35,0,0,1,.19-2.56c.39-1,1.43-2.25,4.17-3.33a14.21,14.21,0,0,0-1,1.95c1.44-.91,2.54-1.48,3.3-2s1.24-.89,1.73-1.27c1-.76,2.14-1.47,6.36-2.71-1.29,1-6,2.76-4.76,2.43,5.63-1.24,3.51-2.08,7.58-3.68l1.22.62c8.26-3.43,17.16-7.76,26.22-11.87-.39.49-1.83,1.47.43.82,11.34-5.42,24.48-11,35.34-16.84,1.2-1.05,2.38-2.1,3.54-3.19.92-.57,1.92-.74,1,0,4.22-2.29-.08-.59,1.66-2.13,2.23-1.54,3.27-1.55,2-.38,3.32-2.65,8-6.43,12.56-10.44s9-8.18,12.41-11.15l-1,1.44c5.08-4.85,4-7,8.56-11.5l-.61,1.08a90.9,90.9,0,0,0,9.94-15.31c2.8-5.33,5.17-10.7,7.16-15.61l.17-.95a1.61,1.61,0,0,1,0,.49.84.84,0,0,1-.06.24s0,0,0,0l.1-.25.2-.5.38-1L619,438c.48-1.21,1-2.38,1.4-3.49-.31-1.22.81-4.76,1.67-8.22s1.51-6.82.72-7.45c.59-2.07,1-3.48,1.32-4.6s.58-2,.83-2.95.51-2,.78-3.65c.12-.81.31-1.69.41-2.88.06-.59.12-1.22.19-1.91s.07-1.37.11-2.14a13.07,13.07,0,0,0-.63-4.15,29.06,29.06,0,0,1-1-4.64l.92-.16c-.41-1.78-.91-3.54-1.38-5.3.27-1,.58-2,.83-3l-.65-3.68c.11,1.48-.06,3.18-.35,3-1-5.72-1.25-14.1-.83-14.33-.52-2.25-1-4.49-1.61-6.71s-1.1-4.46-1.79-6.66a3.69,3.69,0,0,1,.79,1.52c.28.8.56,1.79.86,2.66-1.16-3.51-1.07-3.87-.87-4.18s.41-.54-.78-3.73c0,.93-.65-.35-.87-.45a44.1,44.1,0,0,0-1.45-7.35c-.2-.74-.39-1.49-.61-2.25s-.48-1.5-.73-2.25c-.49-1.49-1-2.95-1.48-4.28l.94.84a148.39,148.39,0,0,0-13.68-30.38c1.8,3.79.35,3.47-1.4.59l.17-1.68c-1.6-1.59,1.44,3.26-1.43-.24-2.22-3.69-.63-3.06,1-1.11-1.07-1.42-2-2.88-3.17-4.25.06-.42.9.51,1.39.57-.89-.71-1.95-2.76-3.24-4.81-.66-1-1.34-2.06-2-3a9.46,9.46,0,0,0-2.15-2.05l0-.41a100,100,0,0,0-9.71-10.19c-2.91-2.7-5.76-5.05-9.45-8-.68.56-3.44-1.91-6.12-3a116.77,116.77,0,0,0-19-12.76c-2.67-1.18-3.14-1.2-3.25-1s.14.5-1.14.15c0-.43-1.88-1.58-3.25-2.38s-2.23-1.32-.17-.67l-3.13-1.4c-1-.41-1.86-.79-2.72-1.14-1.7-.73-3.27-1.32-4.91-1.93-3.28-1.21-6.91-2.45-12.93-4.15,1.18.73,2.58,1.34,1.75,1.34-2.19-.6-4.78-1.95-4.36-2.19l.59.11c-6.84-1.64-14.45-4.34-21.87-6.61s-14.61-4.12-20.25-4.27l.63,0q-5.77-.57-11.54-1c-5.24-.86,3.24-.13-.59-1.15-12.51-.41-19.55-2.5-29.85-2.42-3.88-1.4-10.93-1.79-18.32-1.88s-15.11.05-20.47-.65l.62.54c-2.76.52-3.35-.29-5.39-.4.3.41,3,.45,1.29.76-11.7.41-23.78.7-35.88,1s-24.3.51-36.31,1.27c-8.79.63-4.71,3.13-15.86,3.08l3-1.33c-8.79,1.5-17.79,2.91-26.73,4.57l-6.67,1.44c-1.1.25-2.21.47-3.31.75l-3.26.91c-2.17.61-4.33,1.22-6.46,1.88s-4.18,1.54-6.23,2.35a7.36,7.36,0,0,1,2.49-1.37,21.7,21.7,0,0,0-3.63.88,30.43,30.43,0,0,0-4.28,1.61c-2.73,1.25-5,2.48-4.87,2.76-2.57.95-.8-.25-2.49.1-3.62,1.13-8.12,4.83-10.24,5-.36,0,.85-.66,1.45-1L223,251.71c-1.94,1.13-3.33,2-2.1,1.81a51,51,0,0,0-8.06,5c-1.23.86-2.42,1.69-3.61,2.47s-2.24,1.64-3.37,2.33c-1.09,1.43-3.39,3.06-5.44,4.56s-3.64,3.11-3.62,3.95c-.27-.67-2.62,1.06-5.23,3.37a46.33,46.33,0,0,0-6.39,7.28c.63-1.31-2.74,2.41-2.07.82-3.16,3.57-5.73,7.11-4.66,6.91-3.42,2.85-5.85,6.55-8,9.85-1,1.66-2,3.23-3,4.55a12.18,12.18,0,0,1-3.1,3.17c-3.63,6.07-6.86,12.06-9.77,18s-5.51,11.82-7.74,17.75c-.53-.46.73-3.74,2.15-6.82s2.8-6,2-6.1a143.38,143.38,0,0,0-5.44,14.59c-.72,2.26-1.39,4.53-2.2,6.91-.36,1.21-.74,2.45-1.16,3.74s-.89,2.62-1.31,4.06c-1,2.93-.13-1.87,0-2.93-1.49,5.86-3,11.51-4,17.11-.25,1.4-.52,2.78-.74,4.17s-.34,2.77-.51,4.14a70.65,70.65,0,0,0-.44,8.18,8.29,8.29,0,0,1-.18-2.31l-.26,3.23c-.06.94.06,1.59.36,1.48-.05-.69-.06-1.38-.06-2.07.29-.84.51-.72.68-.07a10.16,10.16,0,0,1,.24,1.31c.1.54.19,1.15.28,1.79.37,2.57.62,5.57.91,5.75-1.89-3.55-.07,10.53-2.5,5a13.76,13.76,0,0,0,.38,2c.19.56.4.91.59.73.08,2.07-.1,2.75-.77.69a34.52,34.52,0,0,0,1.22,6.08,26.69,26.69,0,0,1,1.22,5.49c-.29,0-.62-1.32-1.08-2a100,100,0,0,1,3.5,12.33c-.26-.29-.33.42-.77-1.25a81.76,81.76,0,0,0,4.8,12.71c.9,2,1.74,4,2.81,6.09.51,1.06,1,2.15,1.51,3.29.24.57.49,1.16.75,1.76s.56,1.18.84,1.8c-2.66-2.26,1.34,3.46.63,4.52,1,1.71,2.13,3.31,3.24,4.93l-.75-2.29a71.23,71.23,0,0,0,4.12,6,47,47,0,0,1,3.9,5.51l-2.54-2.87c1,1.29,1.83,2.64,2.85,3.87l3,3.75-3-4.56c3.59,3.75.8-1.29,4.65,4.27-1-1,3.21,3.91,4.45,6.35h0c1,.81,2,1.63,3,2.61.52.49,1,1,1.6,1.61s1.16,1.21,1.77,1.92c.44.95-1.43.31-1.15.93,1.21.56,3.34,2.65,5.66,4.66l1.71,1.52c.58.48,1.15.94,1.7,1.36a14.56,14.56,0,0,0,2.82,1.82c-.95-.5-1.37-.1-1.19.22.68.28,1.39.52,2.09.77,1.65,1.69,1.85,2,1.25,2.12,5.45,4.55-.89-2.48,5.33,3.2a10.41,10.41,0,0,1-1.53-.83c6.46,5.44,13.34,9.39,19.86,13.62,1.41,2.17-6-3.29-4.22-1.12a100,100,0,0,0,15.63,7.5c5.43,2.09,10.94,3.74,16.17,5.25-.65-.21-1.3-.4-1.93-.64.94-.56,2.83.14,5.2,1,1.2.42,2.51.91,3.88,1.28a19.42,19.42,0,0,0,4.17.69c-1.34-.11-1.89.55-1.5.45,7.31,1.6,15.11,1.8,26.24,2.46l-1.42.26c4.28.82,11.31,1.45,15.91,2.25,1.42-.21,4.05.23,2.53-.59,7,2.16,13.71,3.05,20.28,4.12s12.95,2.31,18.78,5.06c-1.46-.43-3.57-.7-2.42-.35l5.25,1.38c1.75.46,3.48,1,5.22,1.48-.6-.92-1.22-.84-3.23-2.06a29.45,29.45,0,0,1,7,1.55c-4.79-1.13-.3,1,1.55,2.14-.27-.32.49-.3.39-.57,4.93,3.09,1.4-1.06,8.39,2.49l-.52.19c1.39.44,2.76.76,4.14,1.17a34.63,34.63,0,0,1,4.17,1.56c.9,1.24-3-.85-3.43-.31,4.06,1.66,8.63,1.91,12,4.26-1.78-.6-4.29-1.57-6.1-2.11,3.63,2.55,4.2,2.47,7.05,4l-.28-.16,6.55,3.52-1.6-1a16.21,16.21,0,0,1,4.21.9,43,43,0,0,1,4,1.85,70.91,70.91,0,0,0,9.16,4.17c-6.92-2.38-1.4.07-2.32.6,1.53,1.14,3.9,2.79,3.06,2.61a16.61,16.61,0,0,1,4.28,2.26,20,20,0,0,0,5.27,2.72c0,.36,3.2,1.94,2.14,2.16,4,2.21-.64-1-.14-1.1,3.26,1.41,6.6,3.86,10.27,6.5a74.83,74.83,0,0,0,12.35,7.64A92,92,0,0,0,438,599c2.38.93,4.65,1.87,8.31,3.63,2.2,1.7-2.5-.12-2.47-.17a42,42,0,0,0,5.21,3.15,41.57,41.57,0,0,0,5.38,2.4c-.88-.12-.18.44.84,1.28,3.11,1.33,2.46,0,6.36,2.19a11.28,11.28,0,0,1-3.55-.29c.93.34,1.85.73,2.82,1l2.88.83c1.94.54,3.87,1.12,5.83,1.73.84.87-2.58-.17-4.06-.41l3.66,1.25c1.32.37,2.67.74,3.94,1.06,2.53.64,4.69,1.08,5.48.92L476,616.38c1.6.5.61.94-.61.69-4-.65-5.34-2.07-5.44-2.42l2.83.75a7.19,7.19,0,0,0-2.79-1.65,43,43,0,0,0-4.26-1.51l-4.88-1.44c-1.59-.58-3.13-1.18-4.45-1.82l2.74-.1-5.89-1.6c-.52-.4-.86-.91-.78-1.12s.63-.16,2,.35c-3.47-2.39-3.49-1.3-6.36-3.56-.3-.28-.11-.25.23-.12-1.26-.52-2.53-1-3.76-1.63.83.17-.16-1.09,1.93.3a48.32,48.32,0,0,0-7.81-4.43c-2.14-1.07-3.77-1.88-4.7-3l.56.25c-8.85-5-1.32.28-8.35-2.91L423,586.73l-1.34.23c-.87-.59-2.58-1.77-2.06-1.87-3.64-1.59.35.69-1.89,0a56.62,56.62,0,0,0-7.48-5.06c-2.55-1.58-4.7-2.87-4.81-3.8-1.92-.34,3.89,2.94-1,.58-.26-1.07-1.64-1.81-3.4-2.66a28,28,0,0,1-5.81-3.15c1.64,0,5.27,2.51,1.57-.39-1.57-.07-3.48-1.27-5.5-2.58a51.13,51.13,0,0,0-6-3.54c-.16.23-.73.12-1.58-.21s-2-.87-3.33-1.46c-2.66-1.22-6-2.85-9.06-4.07.28-.11-2.52-1.42-6.07-3.08l-5.6-2.6-5.06-2.23.23-.11c-1.48.58-7.33-1.78-11.76-3,.38-.56,1.26-.58,3.7,0-1.35-.5-2.72-.95-4.1-1.39a19.16,19.16,0,0,1-5.12-1l1.28-.46c-5.54-1.66-11.37-2.45-18.44-4.7-.57.65,5.17,3.47-2.5,2.12-.18-.45-.3-1.24,1.72-.92a19.46,19.46,0,0,1-3.67-.67h3.2c-3.22-1.05-1.85.18-4.46-.47.18-.57-1.85-.85-1.38-1.23a21.45,21.45,0,0,0,3.3.75,44.13,44.13,0,0,1-7.58-2.52c.19.39-.15.77-2.35.44-5.68-1-1.82-1.06-5.08-1.93-1.45.2-5-.81-5.24.06a4.92,4.92,0,0,1-2.53-1c-3-.07-13.81-1.59-10.59-.27l.75.15h-.49c-9.75-.25-20-2.48-29.5-3.67l.07-.29c-2.84-.28-6-.84-8.87-1.42s-5.6-1.18-7.64-1.48c-1.63-.46-3.61-1.75-2.82-1.84l-2.59-.71c-.73-.21-1.36-.42-2-.66s-1.42-.52-2.33-.92-2-1-3.35-1.73c4.2,1.28-1.19-1,4.24,1.43-1.28-.58-2.27-1.14-3.16-1.6s-1.66-.86-2.43-1.29a62.13,62.13,0,0,0-6.06-2.65c1.08.16.27-.56-1.11-1.45a40.31,40.31,0,0,0-4.46-2.67l3.08,2.49c-1.31-.73-2.53-1.44-3.68-2.17l-3.33-2.28,1.76,0a81.48,81.48,0,0,0-6.6-4.85c-2.19-1.49-4.34-2.82-6.38-4.15-4.1-2.63-7.73-5.38-10.33-9-2.74-1.52,4.36,4.5,1.79,3.31-4-3.58-6.88-8.51-8-9.68a24.12,24.12,0,0,0-5.17-4.77,19.6,19.6,0,0,1-5.22-5.13c.17.48.23,1.06-.25,1s-1.55-.75-3.4-2.94c-3.16-4.35-2.77-6.1-.52-3.61.8,1,1.08,1.55.95,1.58,1.14,1.28,2.62,3,1.66,1.06l-.7-.32c-.63-1.17-2.13-3.14-3.12-4.8s-1.67-2.87-.95-2.33c-2.53-3.08-1.45-1.08.07,1.46-.85-1.47-1.65-2.74-2.42-3.93l-2.11-3.48c-.69-1.14-1.42-2.26-2.13-3.51s-1.35-2.65-2.09-4.23c.35,1.07.45,2.17-.06,1.19-1.12-2.3-1.8-3.7-2.25-4.6a5.92,5.92,0,0,0-1-1.55c-.52-.55-.93-.7-2.43-3.85-.93-3.89,1.68.84-1.19-5.52-1.14-4.11.58-1.15,1.43.31a28.53,28.53,0,0,1-1.74-4.2c-.4-1.4-.71-2.75-1-4s-.47-2.47-.68-3.57-.26-2.11-.42-3c.34,1.05.63,2.1,1,3.13a43.91,43.91,0,0,1-1.31-5l-.29,2c-.3-1.92-.65-3.53-.35-3.55-.45-.93-.66-.5-.94-.31s-.68.17-1.29-1.76a40,40,0,0,0-.73-5c-.27-1.75-.31-3.33.1-3.82.2,4.11.5,3.84.72,3.42s.5-1,1.11,2.4a21.24,21.24,0,0,1-.62-4.84c.08-.3.23.25.33.77,0-3.9-.3-4.75-.76-5.66s-.91-1.84-1-5.9c.28.51.52,0,.66-.73a10.86,10.86,0,0,0,.24-2.47c-.08,3.25-.92,1.57-1.26-1.45.13-1.31.18-2.31.19-3.13s0-1.45,0-2a21,21,0,0,1,0-3.29l-.43,3.11a7.56,7.56,0,0,1-.24-2.73l.07-2.11.24-2.54c.45-.26-.15,3.33.2,2.06a19.73,19.73,0,0,1,1-6.76c.36-1.21.74-2.46,1.06-3.76.16-.65.3-1.31.41-2s.26-1.37.34-2.07c.95-2.48,1,0,1.79-2.2.1-.79.2-1.48.32-2.1s.29-1.16.44-1.66c.31-1,.64-1.8,1-2.61a39.72,39.72,0,0,0,2.16-6.49c-1.25,1.59-1.25,2-.37-2.71-.57,1.74-1,3.53-1.5,5.28s-.91,3.54-1.32,5.32l.45-3.53.6-3.51c-1.11,3.14-1.6,6.83-2.26,8.7.35-3.38.43-3-.58-1.63a14.78,14.78,0,0,0,1.28-3.19c.31-1.1.61-2.21.87-3.36s.54-2.33.89-3.51a21.79,21.79,0,0,1,1.49-3.53l1.6.77c.44-.88.81-1.76,1.19-2.62s.74-1.71,1.07-2.56l1.93-5.21c.66-1.78,1.33-3.64,2.23-5.58.44-1,.91-2,1.43-3s1.14-2.09,1.79-3.19l-1.83,2.76c0-1.54,2.88-5.65,4.34-8.65.36.57,1.56-1.14,2.64-2.14-.24,0,.75-1.63,1.73-3.4s2.05-3.63,1.81-4.35c1-1.15,2.15-2.25,3.21-3.37a41.36,41.36,0,0,0,4.61-7.58,35,35,0,0,1,1.77-3.29,30.21,30.21,0,0,1,2.93-4c-1,2.29,1.57-.29-1.38,4.18,1.63-2.1,3.26-3.86,3-4.16,1.26-1,4.15-6.18,6.25-7.59.56-1,.34-1.7,2.44-3.85.31-.15.2.21.2.21-.22-.22,3-3.63.69-2.22,1.74-1.18,3.74-2.62,5.79-4.31,1-.85,2.06-1.75,3.1-2.67s2-1.91,3.18-2.74c2.2-1.73,4.37-3.46,6.4-4.94a22.35,22.35,0,0,1,3-1.87,23.7,23.7,0,0,1,2.76-1.29l3.69-2.61c1.27-.89,2.67-1.64,4-2.46a88.32,88.32,0,0,1,7.71-4.32c-.23.31.12.28-.81.65,3.4-1.31,4.22-2.17,5.17-3.09a11.06,11.06,0,0,1,1.87-1.47,20,20,0,0,1,4.16-1.67c4.3-.68-3.9,2.11-1.31,1.46.92.69,3.19-.28,6-1.56a37.39,37.39,0,0,1,4.46-1.81,22.52,22.52,0,0,1,4.48-1.11l-1.24.53a20.54,20.54,0,0,0,3.39-.94c1.21-.4,2.52-.84,3.9-1.35a55.4,55.4,0,0,1,9.27-2.85s-.3.24,0,.3c4.41-2.07,13.28-4.1,19.93-5.29-2,1-3,.82-1.59,1.41,3-.53-1.07-1.11,4.89-2.16,1,.07,2.59,0,4,.1s2.69.25,3,.63c-1.88.22-3.76.45-5.63.74a8.22,8.22,0,0,0,2.45.11,23.72,23.72,0,0,0,2.7-.34,48.92,48.92,0,0,1,5.14-.83l-.33.51a82.44,82.44,0,0,0,8.75-1.55,50,50,0,0,1,9.3-1.27l-1-.29c5-1.52,4.34.33,9.4-.85l1.62,1.09c3.36-.5,11.79-1.84,17.86-2.38-3.39,1.06-10.48,1.88-14.84,2.68,3.35-.21,11.4-.73,13.12-1.41a21.82,21.82,0,0,1-4.39.46,73.27,73.27,0,0,1,16.17-2.22c-.54,1.18,3.82,1.11,8.93,1s11-.21,13.41.66c11.8-1,23.41.32,37.11.88-4.77-2,4,.17,3.27-1.7a23,23,0,0,1,4.71.33q4.8.88,9.59,1.86c2.24.74-3.07.14-2.81.58,6.95.75,2.86,1,7.4,1.95-.88-.74,2.52-.71,6.44,0q-2.73-.75-5.48-1.45a25.56,25.56,0,0,1,9,1.32,30.63,30.63,0,0,0,9,1.53l-3.16.12c2.52.18,7.12.88,11.7,1.53s9.17,1.3,11.74,1.08c.83.39,1.88,1.12-.32.8,5.86,1.34,12.46,2.52,18.67,3.94a84.41,84.41,0,0,1,16.27,5.07l-1,.11c2.15.63,4,.51,6.42,1.95-.2.12-1,.1,0,.49.58.13,2,.48,3.67,1,.81.26,1.68.55,2.51.86a20.65,20.65,0,0,1,2.25,1l-2.52-.54c5.25,2.54,9.39,4.2,13.36,5.75a89,89,0,0,1,12,5.5c-.36.57,1.35,2.15,3.56,4l6.62,5.39L564,275c5.28,4.12,9.7,7.68,13.9,11.37a99.81,99.81,0,0,1,12,12.42c.44.88,1,1.91,1.59,3s1.33,2.32,2.07,3.63l1.17,2c.38.71.76,1.44,1.15,2.18l2.49,4.56c.77,1.61,1.55,3.26,2.33,4.91.39.83.8,1.65,1.16,2.48s.69,1.69,1,2.53c.67,1.68,1.34,3.33,1.92,4.94s1,3.22,1.47,4.72c-.43-1.88,1.07-.06,2,2,.64,2.88,3.33,7.52,2,7.42l-.3-1a16.56,16.56,0,0,0,.66,5.59c.27,1.16.62,2.38.94,3.6s.58,2.46.86,3.61l1.72.41a86.46,86.46,0,0,0,1.27,10.39c.28,1.85.61,3.72,1,5.59s.64,3.75,1,5.58c1.23,7.33,2,14.05,1.14,17.46.29,1.47.41,3.12.58,4.78s.24,3.3.34,4.69l-.84-.19-.1,1.4c-.06.48-.11.94-.17,1.39-.11.91-.19,1.77-.32,2.6-.23,1.67-.45,3.24-.72,4.88-.53,3.26-1.12,6.76-2.18,11.72,0-.72-.07-1.43-.13-2.14a18.83,18.83,0,0,0-.34,6.52,15.07,15.07,0,0,1-.45,6.24l-1.68,1.14-.39,1.16-.2.57-.1.28,0,.07-.09.3a4.63,4.63,0,0,0-.18,1l.19-1.12a105.19,105.19,0,0,1-5.79,12.42c-2.14,4.08-4.34,7.95-6.42,12-.07-.25-.19-.68.64-2-.63,1-1.67,2.33-2.76,3.85l-1.79,2.27c-.59.77-1.2,1.53-1.79,2.24-1.16,1.44-2.17,2.75-2.78,3.66s-.74,1.49-.13,1.47c-.24-.17-.77.23-1.52,1s-1.74,1.79-2.79,3-2.26,2.54-3.43,3.81-2.27,2.51-3.25,3.46l.1-1.18c-2.8,3.74-2.69,4.13-7.66,8.23-1.29.83-1.47.26.28-.77a17.13,17.13,0,0,0-3.66,2.87,17,17,0,0,1-4.43,3.21l1.62-1.71c-4.39,2.84-3.91,2.81-6,4.88-2.63,2-8.71,4.87-9.76,4.55a13.83,13.83,0,0,1-5.49,3.89c-.5-.06.42-.74.88-1.08-8,3.52-11.3,6.68-17.16,8.45-.23-.2-.64-.17-1.13,0,6.39-2.82,11.45-5.27,11-5-.34-.69-5.46,1.62-1.89-1.27-3.78,2.49-10.32,6.84-15.53,8.67a3.55,3.55,0,0,1-.78,0l.49-.31a18.84,18.84,0,0,0-3.15,1.48c-1.67.57-2.74.9-4.3,1.54-.84-.33-6.13,2.14-8.77,3.15.53.7-2.95,2,.52,1.31-.44.11.46-.3,2.19-1,.39-.18.85-.38,1.09-.53l-.15.14,6.47-2.71a20.29,20.29,0,0,1-7,3.2c-1.15,1.05-2.42,2.16-3.16,2.74-4,.34-11.21,2.48-12.45,2.18-2,.91-4.11,1.83-6.36,2.8a33.3,33.3,0,0,0-6.88,3.81,13.28,13.28,0,0,0-4.79,6.34,9.72,9.72,0,0,0-.18,6,14,14,0,0,1,.18,2.71,10.65,10.65,0,0,0-.16,1.51,16,16,0,0,1-.7-2.36c-.14-.8-.28-1.5-.39-2a22.08,22.08,0,0,0,1.1,4.9,29.42,29.42,0,0,0,2.18,4.82c1.65,2.92,3.36,5.09,4.13,5.28,2.9,5.51-2.74-2.4,2,4.7l-.91-.78c3.79,7.55,8.23,12.92,13,18.22s9.78,10.59,16,17.82a6.74,6.74,0,0,1-1.38-1.8,66.34,66.34,0,0,0,27.76,17.49c10.65,3.4,21.69,4.24,32.22,5.09,5.76.31,6.58-.4,9.88-1l-.22-2.71a2.3,2.3,0,0,1-.37.12l-1.38-.75c-2,.59-4,1.14-6,1.69-4.32.81-8.16.49-12.24.23a67.11,67.11,0,0,0-14,.16l1.43.62c-4-.1-12.61.07-11.91-.64a4.78,4.78,0,0,1-2.87.16l-.09-.48c-3.26.06-6.52.09-9.79,0-3.75-.53-3.4-1-3.49-1.45s-.61-.89-6-1.68c-4-.34-11.7-.52-10.25.07,1.63.3,4.12,1,4.17,1.5l-3.76-.4c-.91,1.26-4.1,2.18,5,4.71,2.21,0,4.4.09,6.6.08l2,.93c-1.82-.2-3.65-.42-5.46-.69,3,1.11,5.06.74,7.3.64a5.85,5.85,0,0,0,2.64,1c2.18-.23,4.35-.45,6.52-.75.73.6-3,.86,1.32,1.49,3-.4-2.78-1.43,2.2-1.48,3.07.79,2.14,1.29,5.83.91.5.37-.29.6-1.75.67,1.65-.13,3.81-.12,5.78-.13a15.94,15.94,0,0,0,4.58-.52,31.56,31.56,0,0,0,6.69.32c2.31,0,4.17,0,4,.66a58.78,58.78,0,0,1,8.69-1.54c-2.68,1,.12.82,3.43.6s7.12-.58,6.48.33a24,24,0,0,1,5.3-1.4l-.58-7.38c-4.79.45-11.17.31-16,.61a5,5,0,0,1,1.77-.19,40.94,40.94,0,0,1-7.43-1.28c-.61,1.18-6.64.76-10,.78-2.22-1.06-1.42-1.24-.26-1.33s2.71-.19,2.08-.85c0,.5-2,.37-3.87.17s-3.56-.47-2.89.11c-3.26-1.66-2.88-1.19-4.3-2.71-.53.6-1.34.39-2.38,0l-1.73-.69a8.64,8.64,0,0,0-2.09-.59c-2.2-1.38-2.28-1.93-2.54-2.28s-.63-.59-3.17-1.82c-1-.92-.39-.81.47-.47.42.18.95.34,1.34.5Zm-3.81-85.77h0l-2.68,1.2Zm10.91-4.91-4.73,2.13c-.5-.09-.21-.55.89-1C531,521.32,533.63,520.29,535.35,519.76Zm-25.41,4.63c1.7-.82,2.34-.9,2.64-.84-.81.35-1.76.76-3,1.33,0,0-.13.13-.16.18A1.85,1.85,0,0,1,509.94,524.39Z"/><path class="cls-2" d="M507.23,526.68c-.24.12-.37.21-.69.35.38-.08.74-.15,1.11-.25l.52-.49Z"/><path class="cls-2" d="M283.27,534.5l-.25,0a2,2,0,0,1,.51.18A1.45,1.45,0,0,1,283.27,534.5Z"/><polygon class="cls-2" points="625.96 391.68 625.75 391.71 626 392.76 625.96 391.68"/><path class="cls-2" d="M346.4,551.6a2.32,2.32,0,0,0,.73.48A3.67,3.67,0,0,0,346.4,551.6Z"/><path class="cls-2" d="M372.45,562.27l3.48,2C374.44,563.34,373.34,562.74,372.45,562.27Z"/><path class="cls-2" d="M391.63,572.24a1,1,0,0,0,.54-.11l0,0Z"/><path class="cls-2" d="M135.11,388.26c0-.3,0-.6,0-.86C135.13,385.36,135.09,386.74,135.11,388.26Z"/><path class="cls-2" d="M170.35,483.93c-.85-.72-1.65-1.47-2.47-2.29C169,483.1,169.94,484.22,170.35,483.93Z"/><path class="cls-2" d="M183.12,283.28s0,0,0,0l.49-.54Z"/><path class="cls-2" d="M164.81,477.9a22.25,22.25,0,0,0,3.07,3.74C167,480.43,165.83,479.05,164.81,477.9Z"/><path class="cls-2" d="M474.47,617.86l1,.37c0-.06.07-.08.16-.09Z"/><path class="cls-2" d="M475.63,618.14l1.15.28A3.76,3.76,0,0,0,475.63,618.14Z"/><path class="cls-2" d="M479.21,619c-.82-.12-1.61-.36-2.43-.54A6.51,6.51,0,0,0,479.21,619Z"/><path class="cls-2" d="M447.76,606.07l-.44.12A.48.48,0,0,0,447.76,606.07Z"/><path class="cls-2" d="M440,601.85c1.79,1.1,4.23,3.25,7,4.42l.35-.08a13.47,13.47,0,0,1-3.49-2A15.58,15.58,0,0,0,440,601.85Z"/><path class="cls-2" d="M410.94,579.21l6.11,4.11c-.92-1-2.12-2.23.76-.52C410.46,577.05,419,584.43,410.94,579.21Z"/><path class="cls-2" d="M391.38,567.37c3.57,1.73.19-.46.45-.51C389.45,566,388.88,565.76,391.38,567.37Z"/><path class="cls-2" d="M233.33,525.13l.62-.6C231.11,523.67,233.82,524.8,233.33,525.13Z"/><path class="cls-2" d="M203.74,514.11c.72.72,1.49,1.38,2.23,2.07l1.58.19C206.29,515.62,205,514.9,203.74,514.11Z"/><path class="cls-2" d="M192.3,498.57l1.07.75c-1.32-1-2.69-1.95-4-3C190.33,497.11,191.33,497.83,192.3,498.57Z"/><path class="cls-2" d="M211.87,267.3l-1.27-.21C209.09,268.46,209.4,269.56,211.87,267.3Z"/><path class="cls-2" d="M322.88,233.39a15.47,15.47,0,0,0,6.7-.16C326.92,233.35,324.23,233.17,322.88,233.39Z"/><polygon class="cls-2" points="614.24 361.35 613.47 359.11 614.6 363.41 614.24 361.35"/><path class="cls-2" d="M587.53,394c.64-.19.26-.57-1.53-.44l-1.26.71Z"/><path class="cls-2" d="M575.38,393.2c-2.1.4-4.52,1.05-3.13,1.61,2.07-.71,2.59-.47,4.82-1.3,1.79-.14,3.15.1,2.85.35.63-.19,2.8.06,3.76-.39a25.08,25.08,0,0,0-8.42.17C574.59,393.52,575.23,393.33,575.38,393.2Z"/><path class="cls-2" d="M409.71,441.25l.88-.73A9.35,9.35,0,0,0,409.71,441.25Z"/><path class="cls-2" d="M446.88,453.47c-.3.79-.37,1.14-.33,1.2C446.8,453.93,447,453.32,446.88,453.47Z"/><path class="cls-2" d="M452.94,435.52c-.08.4-.18.73-.27,1.09A3.13,3.13,0,0,0,452.94,435.52Z"/><path class="cls-2" d="M409.71,441.25l-2.26,1.89C407.45,443.44,408.65,442.21,409.71,441.25Z"/><path class="cls-2" d="M551.23,395.89a11.4,11.4,0,0,0,1.57-.26l-1.48.15Z"/><path class="cls-2" d="M449.71,414.27l.8-.38a7.53,7.53,0,0,0,.57-.55C450.62,413.63,450.16,414,449.71,414.27Z"/><path class="cls-2" d="M484.71,401.91c-.82.19-1,.81-1.21,1.13a5,5,0,0,1,1.67-.84C485.16,402.09,485,402,484.71,401.91Z"/><path class="cls-2" d="M542.84,394.17l1-.15Z"/><path class="cls-2" d="M426.41,427.17a.67.67,0,0,0-.39,0C426.06,427.25,426.21,427.23,426.41,427.17Z"/><path class="cls-2" d="M225.51,405.92c0-.05,0,0-.07-.07C225.32,406,225.3,406.12,225.51,405.92Z"/><path class="cls-2" d="M187.22,425l.57-.14a.61.61,0,0,0,.07-.34Z"/><path class="cls-2" d="M455,401v.15C455.13,402.05,455.08,401.54,455,401Z"/><path class="cls-2" d="M334,435.45c1.14,1.07,0,.52-1,0s-1.83-1,0,.74c-.12-.24.91.27,1.61.34.34.05.58.05.53-.11S334.77,436.07,334,435.45Z"/><path class="cls-2" d="M550.27,395.88l-1.5.1A13.94,13.94,0,0,0,550.27,395.88Z"/><path class="cls-2" d="M333,436.23h0l.4.33Z"/><path class="cls-2" d="M439.13,350a3.25,3.25,0,0,0,.56-.62C439.63,349.38,439.49,349.51,439.13,350Z"/><path class="cls-2" d="M451.8,381.09l-.1-1.45A13.55,13.55,0,0,0,451.8,381.09Z"/><path class="cls-2" d="M425.53,376.83a11.17,11.17,0,0,0-1.18,1.75l.23-.24A5.84,5.84,0,0,1,425.53,376.83Z"/><path class="cls-2" d="M404.53,393.85a2,2,0,0,0,.4.28,5.05,5.05,0,0,0,.81.21A6.51,6.51,0,0,1,404.53,393.85Z"/><path class="cls-2" d="M271.92,321.54a5.57,5.57,0,0,1-.85,1.31C271.58,322.47,270.56,327.07,271.92,321.54Z"/><path class="cls-2" d="M551.19,395.58a1.68,1.68,0,0,1-.92.3l1.05-.1C551.41,395.7,551.42,395.62,551.19,395.58Z"/><path class="cls-2" d="M428.57,380.29c-.93,1.42-1.89,2.82-2.86,4.21C426.54,383.35,427.6,381.83,428.57,380.29Z"/><path class="cls-2" d="M267.06,421.88a1.34,1.34,0,0,0-.53.07C266.73,421.92,266.9,421.92,267.06,421.88Z"/><path class="cls-2" d="M415.33,396.58c-1,.41-2,.83-3.23,1.19a6.1,6.1,0,0,0-.65.36,12.47,12.47,0,0,0,2-.66A17.33,17.33,0,0,0,415.33,396.58Z"/><path class="cls-2" d="M271.06,322.86h0Z"/><path class="cls-2" d="M261.12,354.87c2-4.43.28-2.37.32-3.48,2.07-5.4,1.54-2.26,2.65-3.93,1.24-3.41,1.48-6.28,2.47-8.78.18-.15.4-.63.33,0,.34-1.91,1.24-4.59,2.08-7.37a43.7,43.7,0,0,0,1.77-7.93,1.73,1.73,0,0,1,.32-.52c-.54.61-.93.62-1.15.41.51-2.1.56-4,1.18-4.67a5.49,5.49,0,0,0-.16,2.07c.12-.74.24-1.49.32-2.24.55-.92.45-.15.27.86s-.52,2.25-.27,2.32c.48-2.17.74-4.56,1.08-6.8.18-1.12.34-2.21.48-3.22.08-.51.16-1,.24-1.46s.22-1.05.32-1.54c.1-.11.16,0,.17.18a3.05,3.05,0,0,1,0,.43l0,.52c-.05.64-.18,1.5-.29,2.25-.21,1.49-.38,2.5.34.34-.39,1.71-.9,3.39-1.34,5.08,1.9-3.69-.75,3.11,1.16-.25.4-1.69.71-3,.91-4.16s.32-2.11.45-3.07c.12-.8.24-1.61.37-2.45.08-.45.08-.86.13-1.31l.06-.68,0-.35,0-.18s-.11-.05-.16-.08c-.93-.39-1.89-.89-3-1.27a11,11,0,0,0-1.81-.59l-.86-.16a4.79,4.79,0,0,0-.76-.1c-1.88.29.55.58-1.26.88a25.1,25.1,0,0,0-5.87,1.34l-3.13,1.11c-.42.17-.83.33-1.25.53a12.73,12.73,0,0,0-1.27.79,11,11,0,0,0-2.91,3.47,25,25,0,0,0-.86,2.89c-.31,1.1-.91,2.51-1.86,5-.09-.65-.13-1.32-.18-2a12.71,12.71,0,0,0-.92,5.55,27.54,27.54,0,0,1-.48,5.66c-.29-1.27.27-5.4.06-4.37a7.94,7.94,0,0,0-.38,3.84,9.64,9.64,0,0,1,.31,3l-.7.71c0,7.14.54,14.84.63,22.67-.2-.43-.41-1.77-.62.06.31,9.85-.15,21-.58,30.52l.58,3.63c0,.84-.27,1.57-.38.65-.24,3.7.37.19.6,2,0,2.11-.35,2.79-.52,1.45.48,6.53,1,18.61.37,25.49l-.17-1.34c-.26,5.36,1.18,6.05.62,11l-.1-1c-.28,11.16.17,23.45-.59,32.23l4.35.08.16-1.09c-.4-.84-.09-3.63.36-6.27s1.06-5.12.56-5.62a44.22,44.22,0,0,1,2.27-5.45c.65-1.33,1.33-3,3.4-7,1.1-2.12.93-3.55,2.38-6.19l.56.26c.25-.64.54-1.26.81-1.89s.56-1.26.85-1.81a6.25,6.25,0,0,1,1.72-.83,2.63,2.63,0,0,1,1.25-.8,4.57,4.57,0,0,0-.82.09c-.26,0-.48.09-.48,0a2.2,2.2,0,0,1,2-.56,4.85,4.85,0,0,1,2.18,1.39,11.06,11.06,0,0,1,2.22,3,24.61,24.61,0,0,0,2.28,1.89,10.56,10.56,0,0,0,1.22.89l1.32.75a9.93,9.93,0,0,0,1.33.7l1.4.55a10.64,10.64,0,0,0,1.4.5l1.44.35a3.64,3.64,0,0,1-1.45-.13,23.13,23.13,0,0,1-2.34-.74c.78.26,1.37.46,1.82.63s.8.22,1,.3c.48.17.58.28.66.39s.16.23.58.37a8.82,8.82,0,0,0,2.66.36c-.75-.26.47-.3.61-.4a17.41,17.41,0,0,0,2.72.38,29.09,29.09,0,0,0,3.58-.06,32.74,32.74,0,0,0,7.44-1.68l-.74.67a45.68,45.68,0,0,0,12-5.44c1-.6,1.92-1.22,2.83-1.91l1.4-1,1.35-1.09c.93-.72,1.75-1.49,2.61-2.25s1.7-1.53,2.52-2.33c-1.25,1.07-1.88,1.32-1.95,1.08s.43-1,1.37-1.91l1.23-.27c1-1.48-2.19,1.74,0-1.05,2.41-2.38,2.12-1.13.9.44.9-1.06,1.85-2.08,2.71-3.17.3-.05-.27.75-.27,1.1a25.81,25.81,0,0,1,3.09-3.34,14.78,14.78,0,0,0,3.09-4.09l.3-.07a79,79,0,0,0,6-9.25c1.55-2.72,2.82-5.34,4.4-8.73-.23-.18,0-.93.3-1.9l.52-1.59c.16-.57.3-1.16.4-1.71l.82-1.9.77-2c.56-1.33,1-2.73,1.52-4.16s.89-2.93,1.33-4.45a14.85,14.85,0,0,0,.57-5.49,6.91,6.91,0,0,0-1.06-2.8c-.3-.43-.46-.47-.51-.45s0,.41-.92-.54c0-.18-.37-.69-1-1.28a12.3,12.3,0,0,0-1.2-.73,10.88,10.88,0,0,0-1.33-.44,16.06,16.06,0,0,0-1.71-.21c-.1,0-.07-.06.12-.11a4.51,4.51,0,0,1,1.16-.09,9.53,9.53,0,0,0-3.54.41c-.48.15-.92.33-1.35.5l-1.18.57a19.26,19.26,0,0,0-3.77,2.75,17.83,17.83,0,0,0-3.18,3.94c-.89,1.59-1.8,3.33-2.83,5.64.68-.88,1.32-1.92,1.18-1.27a20,20,0,0,1-1.31,2.36c-.4.66-.74,1.08-.8.91l.15-.46c-1,2.62-2.08,5.44-3.16,8.35s-2,5.95-2.71,9c-1.49,6.05-2,12.11-1.31,16.59l-.07-.5a67.7,67.7,0,0,0,1.48,9.21c.61,4.24-.81-2.48-.6.71a67,67,0,0,0,4.22,12.32,26.25,26.25,0,0,0,3,5,18.65,18.65,0,0,0,4.62,4.27,13.1,13.1,0,0,0,6.12,3.56,18.49,18.49,0,0,0,9.42.13,30.22,30.22,0,0,0,8.7-3.81c2.53-1.58,4.64-3.27,6.47-4.56l-.62.08c1.44-1.79,2.16-1.72,3.39-2.87-.37,0-1.95,1.53-1.1.39,1.66-1.72,3.21-3.54,4.73-5.39s2.89-3.77,4.35-5.66c2.83-3.82,5.69-7.67,8.42-11.63A257.82,257.82,0,0,0,396,384.43a13.34,13.34,0,0,0,1.87-5.43c.19-1.26.63-2.63,2.84-6.43l-.45,2.53c3.18-7.85,6.61-15.81,9.55-23.86L405,349.6a124.8,124.8,0,0,0-4.11,16.28,6.59,6.59,0,0,1,.16-2.22c-1.2,2.72-2.28,10.54-1.86,10.66-.42,2.1-.44.43-.86,1.7-.79,2.85-.52,7.31-1.18,8.83-.11.27,0-.87,0-1.39a48.92,48.92,0,0,0-.23,5.36c.12,2.12.85,3.76.75,2.53a8.49,8.49,0,0,0,2.45,4.35,9.85,9.85,0,0,0,4.07,2.26,14.82,14.82,0,0,0,7.93-.19c.74-.44,1.64-.92,2.58-1.51a20.6,20.6,0,0,0,2.71-2c1.66-1.43,2.82-2.89,2.76-3.5.22.45,1.88-1.32,3.42-3.55a52.07,52.07,0,0,0,3.91-6.44c-.37,1.07,1.77-2.23,1.4-.95,2-3.16,3.59-6.19,2.86-5.87,4.49-5.35,6-12.43,8.91-15.26,3.16-7.14,5.81-14,8-20.49l-3.65-.72c0,1.67,0,3.25.06,4.78s.12,3,.18,4.47c-.35-.12-.47-1.75-.55-3.68s0-4.2-.09-5.58l4.42.87c-.26.86-.33,1.41-.08,1.39l.42-1.26-5.12-1c.11,4.38.41,7.9.76,11.42l.52,5.4c.17,1.88.33,3.86.49,6.07.09,2.41-.52-1.33-.74-2.13,1.17,9.34,1.88,18,3.34,26.22a7.93,7.93,0,0,1-.45-1.72c.23,1.62.32,3.78.71,3.55l-.3-1.57c.29-2.66,2,6.31,2.31,6.57-1.44-2.63.53,8.17-1.39,3.93.19,1.06.49,2.38.74,2.11.06,1.59-.06,2.11-.51.53a45.59,45.59,0,0,0,.78,4.67,21.56,21.56,0,0,1,.49,4.28c-.19,0-.31-1.06-.59-1.59a37.4,37.4,0,0,1,.89,9.75c-.12-.26-.27.25-.28-1.07.06,3.81.17,7,.1,10.39,0,1.68-.17,3.36-.32,5.16s-.56,3.67-1,5.72c-.23-1.3-.38-.6-.66.43s-.63,2.42-1,2.55c-.21,1.48-.55,2.92-.87,4.37l.82-1.63c-.54,1.88-.83,3.72-1.34,5.42a23.92,23.92,0,0,1-1.7,4.89c.26-.94.56-1.86.75-2.83-.33,1.18-.84,2.3-1.25,3.45l-.65,1.71c-.22.57-.5,1.11-.74,1.67.71-1.19,1.29-2.45,1.9-3.7-.56,1.92-.31,1.91-.18,2s.18.36-1.07,2.69c.19-.5-.24.4-.88,1.62a20.39,20.39,0,0,1-2.32,3.48h0c-.19.46-.38.92-.59,1.38s-.49.92-.77,1.4a20.35,20.35,0,0,1-2.16,3.12c-.66.45-.29-1-.72-.68a10,10,0,0,1-1.17,2l-.93,1.29c-.34.44-.76.85-1.14,1.29l-2.28,2.55a14.14,14.14,0,0,0-1.7,1.94c.5-.66.27-1,0-.86l-.86,1.45a5.46,5.46,0,0,1-1.45.87c-.26.09-.31,0-.29-.2-2.2,1.55-1.72,1.49-1.36,1.47.18,0,.33,0,.09.22s-.34.27-.69.52l-.65.44c-.27.15-.59.3-1,.49.41-.31.19-.21,1-.86-1.39.83-2.79,1.58-4.13,2.4a32.18,32.18,0,0,1-4.16,2,16.83,16.83,0,0,1-8.62,1.27c-.77-.49.44-.31,1.62-.36s2.34-.21,1.38-.42a13.57,13.57,0,0,1-5.84-.56,12,12,0,0,1-5-3.28,16.46,16.46,0,0,1-4.09-11.42c0,.49-.07,1,0,1.5-.58-.52-.51-2.11-.05-3.95s1.35-3.94,1.93-5.93c-.31,1,.05,1.44,0,1.15a45.91,45.91,0,0,1,4.21-7.75,63.2,63.2,0,0,1,7.13-8.74l-.59.94c1.32-1.08,2.92-2.63,4.6-4.15s3.42-3,4.9-4.11c.67-.89,2.34-2.17,1.1-1.68,2.42-1.52,4.76-3,6.94-4.58l3.3-2.31c1.08-.78,2.13-1.58,3.23-2.3l3.23-2.19c1.08-.72,2.2-1.35,3.31-2a40.69,40.69,0,0,1,6.89-3.22c-1.07.55-2.44,1.52-1.59,1.09,2.47-1.42,5-2.68,7.57-4-.8-.13-1.13.22-2.91.67a23.19,23.19,0,0,1,4.93-2.79c-3.43,1.81.34.66,2,.24-.31,0,.15-.39,0-.47,2.21-.52,2.3-.78,2.57-1.17s.71-.89,3.67-1.76l-.22.34a58.4,58.4,0,0,1,6.34-2.73c1.14.16-2.22,1.07-2.22,1.53,3.24-1.23,6.17-3.18,9.33-3.63-1.37.56-3.38,1.25-4.74,1.84a36.5,36.5,0,0,0,6.23-1.38l-.24.06c1.91-.45,3.79-1,5.71-1.35l-1.49.22c3.83-2.48,8.47-2.53,14-4.63-5.39,2-.82.68-1.12,1.36,1.5-.14,3.75-.43,3.16-.13,2.6-1.05,4.58-.52,8.29-1.93.2.17,2.91-.47,2.38.12,3.51-.75-.89-.2-.64-.49,5.37-1.6,13-1.22,20.79-3,6.81-1.07,8-1.84,14.38-2.67,2.18.15-1.71.84-1.71.84a63.35,63.35,0,0,0,9.37-.64c-.66.21,0,.31,1,.47,2.62-.22,1.71-.82,5.2-.72a12.36,12.36,0,0,1-2.58.92c3.08-.35,6.12-.87,9.33-1.19.86.29-1.92.6-3,.88,3.6-.34,9.34-.72,10.43-1.31l-2.32-.09c1.31-.08.69.43-.27.57-3.08.55-4.47,0-4.66-.18l2.28-.23c-2.4-1.05-9.18.61-13.78.82l1.87-.94-4.67,1c-1-.16-1.74-.58.53-.85-3.33-.2-2.91.48-5.77.23-.32,0-.18-.09.11-.15l-3.21.49c.62-.22-.58-.55,1.41-.57-5.83,0-9.28,1.41-11.51,1l.48-.1c-8,1.11-.72.67-6.63,2.05-1.41-.35-2.81-.69-4.22-1l-.71.71c-.83.08-2.46.25-2.19,0-3,.82.55.19-1.17.82a51.53,51.53,0,0,0-7.07.87c-2.34.41-4.3.7-4.83.3-1.33.7,3.84-.3-.31.75-1.39-.78-4.83,1-8.48,1.38,1-.76,4.43-1.21.75-.92a12.19,12.19,0,0,1-4.62,1.28,43.34,43.34,0,0,0-5.36,1c0,.74-6.43,2-11.31,3.75a34.46,34.46,0,0,0-5.19,1.35c-2.95.92-6.51,2.06-8.8,2.86L460,410c-.3.52-1.62,1.2-3.28,1.93l-5.24,2.44c-.05-.46.48-.88,2.21-1.84l-3.14,1.37A18,18,0,0,1,447,416l.54-.86c-4.13,2-7.9,4.68-13.16,7.28,0,.29,1.18,0,1.72.11.27,0,.38.16.1.48a16.19,16.19,0,0,1-2.21,1.72c-.34-.11-.78-.4.54-1.34a16.76,16.76,0,0,1-2.45,1.64l1.85-1.69c-2.37,1.22-1,1.06-2.81,2.13-.17-.35-1.49.59-1.4.17a19.67,19.67,0,0,0,2.28-1.4,51,51,0,0,1-5.6,2.9c.3.07.3.44-1.13,1.46-3.69,2.66-1.54.52-3.82,1.92a15.21,15.21,0,0,1-1.86,1.57c-.67.56-1.2,1.1-1.05,1.35a4.49,4.49,0,0,1-1.91,1c-.42.42-1.16,1.06-2,1.78l-2.49,2.3c-1.57,1.44-2.6,2.54-1.4,1.88l.48-.37-.27.27h0c-2.6,2.87-5.58,5.51-8.3,8.48a35.3,35.3,0,0,0-6.81,9.77l-.18-.1a29.37,29.37,0,0,0-2.06,7.1,16,16,0,0,0,.31,6.37c.15,1.35.37,3.26,0,2.75a18.05,18.05,0,0,0,.85,2.1c.26.58.54,1.06.83,1.6a22.41,22.41,0,0,0,3,4.36c-1.4-1.24-1.24-1-1.16-.84s0,.16-1.43-2a16,16,0,0,0,3.49,4.28,11.14,11.14,0,0,0,5.35,2.34c-.93,0-.1.46,1.36.77a13,13,0,0,0,4.63.1,17.31,17.31,0,0,1-3.45-.32,23.41,23.41,0,0,0,7.06-.72c-.34.31-.68.64-1,.94a21,21,0,0,0,6.71-2.23,26.75,26.75,0,0,0,2.76-1.7l2.55-1.74,2.29-1.9c.75-.61,1.53-1.16,2.21-1.82s1.42-1.21,2.16-1.77c.36-.29.76-.54,1.11-.83s.72-.57,1.09-.84c.7-1.09-.25-.2-1.22.7s-2.12,1.64-1.47.71c.41-.36.86-.68,1.25-1.05l1.2-1.08c.8-.7,1.59-1.36,2.32-2,1.34-1.29,2.46-2.31,2.89-2.85a11.33,11.33,0,0,0,1.21-1.58c.32-.48.58-.91.8-1.3a19,19,0,0,0,1-2.12c.24-.68.48-1.38.87-2.23.19-.43.42-.89.7-1.41l.47-.84c.15-.3.32-.62.5-1-.56.61-1.43,1,.33-3.25,1.77-3.87,2.92-4.51,2.1-1.89-.37,1-.63,1.41-.68,1.33-.49,1.31-1.22,3-.24,1.57l0-.61c.59-.91,1.34-2.8,2-4.24s1.05-2.53,1-1.79c.83-3.19.07-1.45-.81.8a51.69,51.69,0,0,0,2.31-6.75c.27-1.06.58-2.12.86-3.27s.55-2.38.91-3.77c-.32.87-.77,1.62-.58.74a32.27,32.27,0,0,0,.83-4.1,5.9,5.9,0,0,0,.06-1.5,12.68,12.68,0,0,1,.06-3.67c.37-1.56.55-1.26.68-1.27s.29-.33.32-3.18c.49-3.45.68-.69.77.71,0-1.31,0-2.57.12-3.77s.13-2.34.23-3.42c.24-2.16.34-4,.4-5.51l.22,2.74c-.14-1.64-.13-3-.18-4.35-.13.53-.29,1.05-.44,1.58.08-1.61,0-3,.2-2.94-.38-1.63-.74,1.28-1.3-1.95.15-2.14-.64-6.43-.09-7.21.27,6.68.6-.79,1.07,4.86a35.43,35.43,0,0,1-.25-4c0-.25.15.21.21.65,0-6.43-.92-2.89-1.56-9.46.44.8.51-1.59.31-2.66.29,2.65-.45,1.33-1-1.06-.2-4.23-.74-4.53-1-6.73l.17,2.52c-.46-.81-.66-2.91-1.13-5.81.25-.28.51,2.63.51,1.57-1-3.16-.26-7.39-1.18-11.84,0-2.11.63-.28.6-2.12-1-5-.09-5.5-.87-10.75-.37,1.55-.23,1.82-1-1.88l.48,4.34.56,4.34c-.39-1.84-.82-3.68-1.18-5.53.2,2.63.77,5.53.86,7.11-.66-2.63-.5-2.37-.78-1.06.37-3.67-1.07-7.13-.8-11.34l1.19.06c.12-4.53-.39-8.28-.5-13.11l-.23-10.52-3.35,9.81a59.05,59.05,0,0,1-2.22,5.68l1.17-2.35c0,1.19-1.82,4.69-2.71,7.17-.27-.38-1.06,1.07-1.74,2a13.35,13.35,0,0,1-1.08,2.82c-.63,1.47-1.27,3.05-1.08,3.56l-2.08,3c-3.22,5.72-2.49,7.18-5.8,12.61.59-1.87-1.09.48.77-3.34-1.06,1.83-2.08,3.42-1.87,3.59-.83.93-2.58,5.29-4,6.7a8.73,8.73,0,0,1-1.49,3.28c-.21.17-.15-.12-.15-.12.16.13-1.87,3.23-.34,1.76-2.39,2.31-4.76,6.28-8,9a10.7,10.7,0,0,1-5.22,2.6,6.68,6.68,0,0,1-4.47-.74,5.41,5.41,0,0,1-3.84-4.16,20,20,0,0,1,.15-6.59c.08.28.19,0,0,.81a12.08,12.08,0,0,0,.31-4.76,13.1,13.1,0,0,1,.57-5.36c1.24-3.18-.29,3.5.33,1.48,1.4-.66,1.28-7.82,3.11-11.94l-.18,1.05c1.21-3.16,1.52-8.1,3.27-13.35,0,0,0,.29.17.09s.05-.31.09-.55l-3-1a105.89,105.89,0,0,1-4.86,15c.18-1.73.69-2.34-.18-1.61-.86,2.23,1.07-.31-.72,4.12-.86,1.32-2.53,4.34-3.23,4.52.62-1.37,1.26-2.72,1.84-4.1-1.58,1.81-2.38,5.3-3.53,7.37l-.15-.41c-1.44,3.12-2,4.77-2.69,6.47a45.92,45.92,0,0,1-3.14,6.69l.58-.56c-1.3,3.91-2,2.76-3.54,6.54l-1.29.65c-1.15,2.42-4.18,8.4-6.71,12.48,1-2.57,3.75-7.47,5.24-10.61-.7,1.12-1.84,3.05-2.89,4.85a29.35,29.35,0,0,0-2.22,4.16,20.12,20.12,0,0,1,1.74-3,55.35,55.35,0,0,1-6.35,11.13c-.35-.81-2.41,1.94-4.85,5.14-1.23,1.58-2.53,3.33-3.77,4.72a15.38,15.38,0,0,1-3.26,3,35.42,35.42,0,0,1-4.7,4.86,31.22,31.22,0,0,1-5.54,3.86,18.45,18.45,0,0,1-13.08,2.32c.37.28.62.43.76.52s.17.17.12.2a1.9,1.9,0,0,1-1.07-.13,15.76,15.76,0,0,0-1.58-.35c-.45-.1-.78-.06-.75.28a8.08,8.08,0,0,1-3.05-1.67,18.74,18.74,0,0,1-4.41-5.64c-.32-.8.05-.37.5.21s1.07,1.25,1.11,1.08c-.36-.51-.66-.91-.88-1.25s-.36-.63-.47-.85a2,2,0,0,1-.27-.84c0-.37.05-.51-.54-2.07-.07.82-1.44-1.27-2.2-4.16a38.14,38.14,0,0,0,1,4.09,14.71,14.71,0,0,1-2.12-6.49,42.39,42.39,0,0,0-1.1-6.9c.21.78.49,1.54.74,2.3a55.72,55.72,0,0,1-1.08-9c-.12-1.78-.13-3.55-.21-5.13a34.88,34.88,0,0,0-.24-3.93c.22-.68.65-1.54.55.17a99,99,0,0,1,2.6-14.48,43.53,43.53,0,0,1,5.19-12.13l-.08.76c.79-1.5,1-3.06,2.38-4.33,0,.15-.15.66.3.12a11.89,11.89,0,0,1,1.64-2.06,8.54,8.54,0,0,1,2.9-2,11.62,11.62,0,0,0-1.31,1.14,12.93,12.93,0,0,1,2.43-1.16,8.77,8.77,0,0,1,1.06-.31l.46-.06a1,1,0,0,1,.42,0,2.25,2.25,0,0,1,1.25.28,1.45,1.45,0,0,0,.26.17c.1.05.16.18.26.26a2.31,2.31,0,0,1,.46.58,6.46,6.46,0,0,1,.49,3.85c-.08.79-.24,1.65-.41,2.53s-.33,1.78-.59,2.72c-.44-.14-1.18,1.53-2.09,3.58s-1.95,4.54-2.71,6.15l-.06-.16c-2.11,4.85-4.06,8.9-6.17,12.79a78.34,78.34,0,0,1-7.48,11.47c-2.37,2-5.94,5.77-10.26,9.39a42.85,42.85,0,0,1-14,8.11c1.41-.4.05.76-1.55,1.39-2.15.64-5.9,2.13-5.69,1.23l.78-.1a18.55,18.55,0,0,0-4.15-.12,24.4,24.4,0,0,1-5.29-.37c-.25.32-.51.64-.77.92a28.06,28.06,0,0,1-6.46-3.69l-1.51-1.3-1.59-1.59a15.94,15.94,0,0,0-4.14-3.18,7.11,7.11,0,0,0-3-.75,6.38,6.38,0,0,0-3,.68,10.59,10.59,0,0,0-3.58,3.27c-.8,1.09-1.38,2-2,2.81a18,18,0,0,1-1.65,2,72.74,72.74,0,0,0-3.1,7.39l-.47-.34a62,62,0,0,0-3.12,8.25,60.46,60.46,0,0,0-2,9.83l-.13-1.78c-.67,4.13.46,5.77.67,8.9l2.93.06a15.44,15.44,0,0,1-.1-1.61l.85-1.28c0-8.08.78-16.26,0-24.24.12.13.36.37.39,1.67,0-3.8.62-14.7-.55-13.33.76-.09.1-8.33-.22-12.7l.56.68a38.17,38.17,0,0,1-1.08-8.94c.07-1.22.45-1.07.3.55.3-4.06-.52-3.17-.21-8.09l.35,1.84a19.22,19.22,0,0,0-.54-6.15c-.22-2.63.16-7.93.67-8.54a13.74,13.74,0,0,1-.56-5.32c.19-.33.31.57.36,1,.4-7-.62-10.39-.06-15.2.19-.1.28-.41.34-.81,0,5.55-.07,10-.11,9.6.51,0,.61-4.48,1.31-.91-.37-3.6-1.2-9.76-.94-14.13a2.73,2.73,0,0,1,.18-.57l.05.45a17.64,17.64,0,0,0-.07-2.76c.09-1.4.15-2.28.16-3.62.43-.52.25-5.14.27-7.38-.56.19-.46-2.74-.93,0,0-.36.06.42.08,1.91,0,.33,0,.73.06.95l0-.15c0,1.47,0,3.38,0,5.56a19.86,19.86,0,0,1-.2-6.09c-.35-1.15-.72-2.41-.89-3.12.4-1.53.69-3.78,1-5.71a15.82,15.82,0,0,1,.87-3.94,34.88,34.88,0,0,1,1.53-10.37,27,27,0,0,1,1.85-4.39c.7-1.24,1.45-2.29,2-3.18a4,4,0,0,1,2.46-1.29,11.22,11.22,0,0,0-2.05,1.88,14.56,14.56,0,0,1,5.54-3.52,13.09,13.09,0,0,1,1.54-.45,11.59,11.59,0,0,1,1.34-.26,5.16,5.16,0,0,0,1.62-.38l.68.17.34.12c.17.09.23.16.23.2s-.2.09-.34.11-.26.06-.1.11a10.31,10.31,0,0,1,1.44.51l-.66,0,.22.16.1.07a.31.31,0,0,1,0,.15l-.17.55-.14.49c-.08.36-.15.71-.23,1.06-.27,1.48-.54,2.9-.8,4.3s-.46,2.76-.66,4.13-.47,2.7-.7,4.06a79.62,79.62,0,0,1-1.87,8.4c-.42,1.46-.94,2.94-1.51,4.48a46.73,46.73,0,0,1-2.08,4.77,5.83,5.83,0,0,1,.84-1.53c-3.12,7.71-6.41,15.6-10.28,23.2A117.9,117.9,0,0,1,239.41,383c-2.93,3.61-2.83,4.31-4.33,6.75l-1.1.42c-.82,1.42-1.65,2.83-2.55,4.2a38.75,38.75,0,0,1-6.73,6.91,87.93,87.93,0,0,0-8,7.5c.38-.13.74-.28,1.11-.43-1.2,1-3,2.64-4.65,3.87s-2.91,2.09-2.82,1.76a3.8,3.8,0,0,1-1.73,1.43l-.25-.21a68.5,68.5,0,0,1-6.32,4.33c-2.73,1.17-2.65.77-2.87.55s-.7-.2-4.68,1.19c-1.45.59-3.54,1.41-5.15,2s-2.74,1.05-2.14,1c1.27-.25,3.29-.43,3.45-.19-.94.3-1.91.51-2.87.77-.18.51-.8,1.11-.46,1.49.17.19.59.32,1.44.35a17.78,17.78,0,0,0,4-.39l1.24-.49,1.22-.55c.8-.39,1.62-.71,2.39-1.15l1.75-.22-2.07.85c-.69.26-1.4.49-2.11.74a9.92,9.92,0,0,0,3.11-1,21.15,21.15,0,0,0,2.34-1.37,6,6,0,0,0,2.23-.49c1.41-1.06,2.81-2.11,4.11-3.26.73,0-1.63,1.81,1.46.2,1.84-1.61-2.38.53.84-1.82,2.31-1,1.92-.32,4.09-2.33.47-.05.06.44-.83,1.21,2-1.71,5.42-4.33,6.11-5.58,2.35-1.27,6.33-6,6.74-5.25.44-.73,2.71-3.74,4.24-5.54-1.08,1.95.47.35,2.19-1.62s3.7-4.25,3.77-3.45c.62-1.57,2.38-3.87,4.27-6.46l2.85-4c.92-1.35,1.74-2.71,2.44-3.95a4.85,4.85,0,0,1-.67,1.29c1.88-2.59,2.64-3.2,3.88-4.85-.22-.38.29-1.65,1-3.13s1.49-3.23,2-4.5c2.63-3-.4,2.51.85,1.83-.33-.08.4-1.63,1.06-3.05s1.18-2.74.64-2.28c1.83-2.41,1.42-2.16,2.72-3.22-.59-.9,1.11-2.57,1.68-5.05a8.78,8.78,0,0,1,1.74-2.25c.26-.24.45-.58,1.3-2.81C262.55,350.86,261.12,354.87,261.12,354.87Zm-12.28-1h0l0-2.31Zm0,9.39c0-1.14,0-2.57,0-4.07.2-.33.4,0,.38,1C249.11,359.64,249,361.85,248.82,363.25Zm4-19.86a4.61,4.61,0,0,1-.15,2.19l-.06-2.6a1.22,1.22,0,0,0-.07-.17A1.42,1.42,0,0,1,252.77,343.39Z"/><path class="cls-2" d="M252,340.72c0-.22,0-.33,0-.61-.05.3-.09.59-.13.88l.18.53Z"/><path class="cls-2" d="M410.75,440.4l-.16.12a2.72,2.72,0,0,1,.37-.22A1.78,1.78,0,0,1,410.75,440.4Z"/><polygon class="cls-2" points="262.03 427.34 261.9 427.27 261.6 428.02 262.03 427.34"/><path class="cls-2" d="M455.31,414.59a2,2,0,0,0,.68-.14A3.12,3.12,0,0,0,455.31,414.59Z"/><path class="cls-2" d="M476.24,407.16l3.07-.7C478,406.74,477,407,476.24,407.16Z"/><path class="cls-2" d="M492.84,403.13a.73.73,0,0,0,.27-.31h0Z"/><path class="cls-2" d="M448.2,382.72c0-.23-.06-.46-.1-.66C447.8,380.53,448,381.58,448.2,382.72Z"/><path class="cls-2" d="M440.63,461.28c.33-.79.65-1.57,1-2.37C440.92,460.13,440.37,461.08,440.63,461.28Z"/><path class="cls-2" d="M428.88,379.83h0l-.31.47Z"/><path class="cls-2" d="M443.32,455.58c-.73,1.23-1.16,2.35-1.66,3.33A22,22,0,0,0,443.32,455.58Z"/><path class="cls-2" d="M566.5,395.19h.83s0-.07.1-.09Z"/><path class="cls-2" d="M567.43,395.09l.91-.11A3.1,3.1,0,0,0,567.43,395.09Z"/><path class="cls-2" d="M570.27,394.76l-1.93.22A7.17,7.17,0,0,0,570.27,394.76Z"/><path class="cls-2" d="M543.83,396.17l-.25.23C543.72,396.34,543.81,396.27,543.83,396.17Z"/><path class="cls-2" d="M537,396.77c1.64-.1,4.14.1,6.42-.2l.2-.17C542.53,396.78,538.49,396.28,537,396.77Z"/><path class="cls-2" d="M508,397.72c1.91-.27,3.84-.48,5.76-.72-1-.06-2.4-.15.21-.6C506.66,396.85,515.57,396.64,508,397.72Z"/><path class="cls-2" d="M490.28,400.86c3-.81-.11-.31,0-.46C488.42,401.05,488,401.21,490.28,400.86Z"/><path class="cls-2" d="M394.12,476.05l-.59-.15C394.53,478.33,393.7,475.86,394.12,476.05Z"/><path class="cls-2" d="M415,483.3c-.74.14-1.47.23-2.19.3-.3.22-.61.45-.93.67A24.47,24.47,0,0,0,415,483.3Z"/><path class="cls-2" d="M429.53,479.16l-.84.71a35.88,35.88,0,0,0,3.08-2.82C431,477.75,430.29,478.47,429.53,479.16Z"/><path class="cls-2" d="M409.06,393.87a7.21,7.21,0,0,0,.72.51c.67-.21,1-.57.88-.7S410.11,393.6,409.06,393.87Z"/><path class="cls-2" d="M389.35,387a14.88,14.88,0,0,0-2.75,4.5C387.66,389.64,388.92,387.93,389.35,387Z"/><path class="cls-2" d="M280,425.82l1.58.46-1.44-.54-.36-.13-.34-.19-.67-.37A9.75,9.75,0,0,0,280,425.82Z"/><path class="cls-2" d="M485.26,421.48c.16.08.56.1.5-.07l-.64-.2Z"/><path class="cls-2" d="M486.63,420.6a2.23,2.23,0,0,0-1.44-.5c.61.28.34.28,1.06.59.05.17-.25.24-.49.18.16.08-.18.23.22.37.54-.13.59-.39.21-.72A1,1,0,0,1,486.63,420.6Z"/><path class="cls-2" d="M489.87,405.38l-.1.09A.18.18,0,0,0,489.87,405.38Z"/><path class="cls-2" d="M491.56,395.91a.15.15,0,0,0,.13.12C491.66,396,491.62,395.9,491.56,395.91Z"/><path class="cls-2" d="M492.51,394.38l-.05.09C492.52,394.44,492.56,394.41,492.51,394.38Z"/><path class="cls-2" d="M489.87,405.38l.24-.22C489.9,405.11,489.93,405.26,489.87,405.38Z"/><path class="cls-2" d="M485.36,418.25a.38.38,0,0,0,.15.16.58.58,0,0,1-.05-.14Z"/><path class="cls-2" d="M489.8,409.66v.07a2.26,2.26,0,0,0,.26.11Z"/><path class="cls-2" d="M489.44,412.89c0-.07-.52-.17-.76-.24.22.08.32.15.36.22Z"/><path class="cls-2" d="M487.72,417.86l.06.1Z"/><path class="cls-2" d="M490.25,407.37h0Z"/><path class="cls-2" d="M497.76,316.6l.1,0C497.8,316.59,497.76,316.58,497.76,316.6Z"/><path class="cls-2" d="M501,313.18l0,.06.31,0Z"/><path class="cls-2" d="M493.64,391.5h0C493.68,391.6,493.67,391.55,493.64,391.5Z"/><path class="cls-2" d="M496.89,364.09c-.53.24-.57-.59-1.18-.19C495.93,363.88,496.52,364.43,496.89,364.09Z"/><path class="cls-2" d="M485.44,418.18a.34.34,0,0,1,0-.14A.19.19,0,0,0,485.44,418.18Z"/><path class="cls-2" d="M495.71,363.9h0l-.06,0Z"/><path class="cls-2" d="M494.24,384.59a.93.93,0,0,0-.25,0A.69.69,0,0,0,494.24,384.59Z"/><path class="cls-2" d="M492.75,389.6l.09-.12A.24.24,0,0,0,492.75,389.6Z"/><path class="cls-2" d="M493.82,381.83c.05-.06.13-.08.07-.18l-.07,0C493.89,381.71,493.92,381.76,493.82,381.83Z"/><path class="cls-2" d="M494.19,379.07l-.12,0,0,.09Z"/><path class="cls-2" d="M497,325a3,3,0,0,1,.52-.07C497.15,325,497.05,324.55,497,325Z"/><path class="cls-2" d="M485.67,418.29a.37.37,0,0,1-.23-.11.29.29,0,0,0,0,.09A.4.4,0,0,0,485.67,418.29Z"/><path class="cls-2" d="M489.44,381.12l.14-.42A1.1,1.1,0,0,0,489.44,381.12Z"/><path class="cls-2" d="M494.69,344.89l-.05-.11S494.63,344.85,494.69,344.89Z"/><path class="cls-2" d="M489.67,379.38a1,1,0,0,0,.42-.19.37.37,0,0,0-.14-.07Z"/><path class="cls-2" d="M497.56,325h0Z"/><path class="cls-2" d="M496.57,321.92c-.06.42.7.28,1.11.42.15.53-.57.17-1,.3.15.33.8.65.74.88-.12,0-.17,0-.32,0,.55.4-.08,1,.6,1.46a.58.58,0,0,1-.18,0,5,5,0,0,1,1,.07c0,.18.42.4-.07.41,0-.11-.16-.14-.3-.22l.18.23c-.71.09-.21-.3-.72-.36.18.41.7.92.47,1.19-.68,0-.15-.71-.79-.39l.31-.42c-1.1.22.11-.27-1.07-.09-.27.58.27.71,0,1.29.36.18.56,0,.92.2.57.93-1.78.46-1,1.19.43.22,1.28.38.77.77l-.74-.24c-.15.57,1.06.46.47,1-.29-.15-.2-.49-.3-.41-.65.32.4.33.36.63l-.68,0c0,.63.44,1.37.48,2.07-.2-.06-.4-.21-.62-.07a3.53,3.53,0,0,1-.81,2.61l.55.39c0,.07-.28.1-.39,0-.26.3.37.06.58.25,0,.18-.36.2-.53.06.43.63.87,1.76.17,2.28l-.16-.14c-.29.44,1.13.68.54,1.05l-.1-.1c-.37,1,0,2.18-1,2.85.83.25-.49,1,.67,1.17-.65.51-.84.31-1.33,1.08-.09.21.69.42.77.7l-.61-.06.6.44-.76.11.13.27a.5.5,0,0,1,.47-.14c.23.43-.54.91-.86.88l.4,1c-.24,0-.31-.22-.45-.36.56.57-.65,0-.14.54.15-.05.36.07.48.1a.94.94,0,0,0-.36,1.11l-.41-.13a20.5,20.5,0,0,0-.09,2.27c.23-.26,1-.1,1,.13H494c.38.2.28-.2.73.16-.12.28-.76.1-.95-.09l.18.38c-.2,0-.29-.1-.53-.15.38.2-.73.53-.06.83h-.19a17.5,17.5,0,0,0,0,1.8c.56.08.4.32.83.56-.24.45-.74.91-.77,1.47.23.44.46.18.77.4-.51,0-.54.53-.86.19a4,4,0,0,0,.29,1.78c.22-.06.32-.15.49-.08s-.26.33-.5.27l-.05-.05c.64,1.06-1.76,2-.8,2.92l-.05-.05.45.86c-.13.36-.35-.26-.7,0,.74,1-.3,1.33.17,2.11-1.56.35-.14,1.94-1.19,2.55h.36c.32.24-.24.21-.34.33.28,0,.35-.16.52,0,.22,1.66-.95,3.25-1.48,4.85-.18.59,1.78.58.83,1.23l-.62-.3c.62,1.32-.36,2.48.15,3.76-.14-.09-.34-.12-.32-.24-.51.19-.15.93.24,1-.07.18-.36,0-.57.09s.52.71,0,.78c-.08,0-.14-.09-.17-.14.2.19-.17.75.4.67-.32.41.13.89-.24,1.2.58.31-.4.72.46.91-.89-.15-.83.69-.44,1-.26-.13-.32.2-.68,0a.53.53,0,0,0,.57.65c-1.16.45.7,1.31-.72,1.46a13.19,13.19,0,0,1,.65,2.84c-.89-.16,0-1-.91-1.06.26.87,1,1.44.64,2.22-.15.2-.37-.17-.52-.26.26.86-.29,1.56.09,2.36a.49.49,0,0,1-.22-.19c0,.14-.18.31.23.35l-.09-.15c.62-.15,1.16.73,1.46.8-1.13-.4-.39.68-1.81.09a.66.66,0,0,0,.52.27c-.1.12-.26.15-.55,0,.15.54.6.42.53.89-.2,0-.26-.14-.48-.22.35.29.7.58.48.95-.12,0-.28,0-.26-.13,0,.68.86,1.28.39,2-.82-.33-.31.21-1.06.15l.17.43.38-.11c-.06.34.43.73.15,1l-.27-.3.05.67.33-.33c.33.41.94.1.67.53-.06-.11-.06.35-.52.47h0c.21.2.43.41.21.64-.24,0-.81-.16-1-.14.6.25.06.84.69,1.14a1.6,1.6,0,0,0-.62-.14l.48.22c-.18.14-.26.15-.57.08-.16.47,1,0,.48.49,0-.05-.11,0-.18-.14-.29.55.17,1.16-.15,1.66-.77.05-.12-.49-.77-.4,0,.78.66,1.71.38,2.42l.11-.12c1,.25-.6.48-.16.92a1,1,0,0,0-.45-.16c-.24.48.11,1.07.33,1.89l-.26-.14c-.28.27-.25.77-.41,1.08.25.13.18.31.59.25-1.68.78.56,2-.85,2.72,0-.11-.2-.29-.22-.2l.14.78c.47,0,.3-.05.67-.16a.68.68,0,0,1,.42.56c-.26-.38-.74-.1-1,0,.15,0,.3.07.44.07-.87.28.91.2.29.66l-.24-.06c.09.22.38.45.28.65-.54,0-.21-.25-.65-.32,0,.31.92.74.35.94-.13-.15-.1-.34-.23-.49-.66.21-.51.27-.64.48l0,0-.36.48.19-.11c1.32.58.14.81,1,1.45-.78-.62-.48-.15-1.08-.28-.18.11-.4.28-.56.2.45.31-.44.35.22.79-.2,0-.06.26-.53.14.1.33.34,0,.58,0,.59.58-1,1-.16,1.86.28.65.92.86,1.16,1.46-.33.15-.68-.25-.68-.25a.54.54,0,0,0-.13.82c-.16-.09-.31-.05-.54,0,0,.24.68.25.35.52a3.83,3.83,0,0,1-.74-.35c.14.3.46.62.59.93-.34,0-.48-.25-.69-.38.11.34.19.86.71,1l.22-.18c0,.12-.47,0-.56-.1-.37-.33.25-.37.44-.35l.1.22c1.16,0-.07-.83.06-1.23l.8.29-.63-.51c.23-.06.7-.05.79.17.45-.23-.25-.3.24-.48a.13.13,0,0,1,.14,0l-.21-.32c.17.08.59,0,.45.19.55-.43-.5-.9.15-1l0,0c-.17-.75-.59-.16-1.22-.79l1.54-.14-.59-.15c0-.07.09-.21.33-.15-.37-.33-.27,0-.63-.2.6-.27-.12-1,.85-.94-.44-.19-.4.28-.67-.14,1.05.05-.11-.45.41-.7.52.17.19.43.71.18-.87-.32.29-.59.16-.88-.72-.12-.22-.63-.39-1.12.23.07.51-.79.83-1.17l.12,0c-.71-.18-.51-.6-.62-.93a1.05,1.05,0,0,1,.77.35l0-.3a.61.61,0,0,1-.39-.41l.53.15c0-.4-.52-.89-.09-1.34-.5-.1-1.47.2-1.73-.39.28,0,.75.07.84.23,0-.05-.2-.2-.07-.27l.43.28c.23-.21-.37-.18-.3-.36.39.06.3-.1.6,0,0,.06-.18.14,0,.24a.94.94,0,0,1,.68-.46c-.23,0-.53-.08-.56-.24,0-.4.49-.07.73-.27-.26-.13.06-.34-.53-.43,0-.12.3-.1.46-.12-.23-.24.06-1-.59-.82l-.05,0,0,0h0c-.49-.76.53-1.35.37-2.05l.2,0c-.17-.43,0-.9-.39-1.24,0-.12.39-.23.62-.14-.1-.33-.32-.39.07-.78.29.35.31-.07.2.34.23-.37.55-.41.08-.91.48.21.67-.21.55-.42l-.4.23a1,1,0,0,1,.09-.58l.65.19c.91-.69-1.16-1.64.27-2.07-.44-.27-.39.4-.9.13.14-.36,1.14-.61,1.16-.73.43-.45-.9-.61-.58-1.1-.24,0-.88,0-1-.42.14-.36,1.05-.32,1.2-.06,0,.1-.07.13-.15.11.07.14.15.31.42.2l-.23-.09c.27-.15.32-.66.69-.49-.19-.31-.37-.17-.52,0,.4-.43.11-.74.41-1.2-.14.06-.43.09-.42,0,.39-.68-.4-.38-.44-.88.4-.23.85.22.61-.32.29-.26.64,0,.81.17-.39-.51.41-.79.53-1l.16.26a.57.57,0,0,1-.06-.39l-.49.07c.11-.13.12-.24.32-.22-.29-.18-.8,0-1.18-.33.26-.16-.18-.6.45-.58-.29.55.64,0,.67.53a.3.3,0,0,1,.06-.35.18.18,0,0,1,.16.08c.63-.48-.67-.35-.58-.92.34.12.69,0,.62-.15,0,.23-.6,0-.84-.22.33-.33-.15-.43-.09-.61l-.16.2c-.34-.12-.27-.3-.34-.57.28,0,.15.26.29.18-.58-.37.73-.56.36-1,.27-.15.67.07.85-.07-.39-.5.55-.41.24-.93-.49.07-.38.11-.8-.29l.23.82-.62-.59c0,.23.23.53.13.66-.35-.29-.24-.25-.65-.19.76-.22-.32-.69.21-1l1.16.17c.6-.48-.46-1.06-.07-1.74l-.24.21c-.45-.16,0-.46-.16-.71a1.53,1.53,0,0,0,.81-.12c-.29,0,.1-.52-.67-.69l.55-.25c.29-.55-1-.82-.81-1.35.4.22.71,0,1,.42,0-.19.12-.34-.15-.38.26-.08-.46-.59-.06-.71-.16-.1-.57-.18-.51-.39a.51.51,0,0,1,.19,0c-.19,0-.22-.36-.67-.24,1.29-.41.12-1.61,1.24-2a6,6,0,0,1-.12-1.3c.12,0,.2,0,.15.09.43-.46-1.09-.46-.6-1,.67-.21.3.35.56.2,1.3.09-.08-.72.73-1l.06.1c.48-.24-.39-.79-.23-1.26a.51.51,0,0,0,.19,0,2.4,2.4,0,0,1-.87-1.57c.49.21.24.24.77.22,0-.22-.84,0-.92-.48a2.28,2.28,0,0,1,1.12-.34l0,.4c.73-.11,0-.51.19-.7l.31.06c0-.62-.8-.73-.66-1.37l-.24,0c-.72-.46.47-.24-.05-.67h.79a6.15,6.15,0,0,1-.74-1.36,4.45,4.45,0,0,1,1.09,1.2c0-.23.05-.8-.32-1,.06.1.23.25.1.32-.58-.36-.83-.78-.75-1.24,1.5.28.54-1.16,1.76-1.34-.45-.89.45-1.59.49-2.56-1.23.19,0-.28-1.22-.38-.05-.23,0-.31.06-.32l.81-.58c.38-.12.24.24.52.26.15-.48.54-.14.9-.42-.44,0-.6-.25-.39-.51l-.62.32c-.55-.76,1.1-.45.55-1.22l.35.26c-.18-.38.18-1.29-.75-1.76.15-.05.49-.09.56.08.25-.82-.8-2-.12-2.58l.29.1c-.06-.17-.52-.35-.2-.5.13,0,.29.1.32,0s-.47-.49-.27-.67l.31.22c.5-.77-.65-1.37-.76-2.08a1.37,1.37,0,0,0,1.42-.8l.12,0c.23-.94-.52-1.72-.75-2.65,1-.43.63-1.81,1.28-2.62-.18.11-.68-.11-.75-.28.2-.18-.53-.65.26-.51l0,.07c.8-.06.65-.51.71-.84l-1-.19c1.63-.68-.27-2.35,1.15-2.65-.24-.24-.2-.5-.44-.74l.56.08a3,3,0,0,0,.28-1.58l.39.19c.08-.4-1.56-.71-1.55-1.09h.85c.08-.71.9-1.34.23-2.13.12,0,.36.08.38.19.06-.33.73-1.21-.44-1.23.75.08.16-.73-.12-1.15l.54.13c-.66-.41-.85-.44-1-.92.09-.1.46,0,.3.09.33-.32-.49-.34-.14-.74l.33.2c.09-.36-.1-.35-.49-.6-.2-.26.22-.68.73-.67-.3-.09-.68-.34-.51-.54a.48.48,0,0,1,.35.14c.45-.57-.53-1,.06-1.35a.6.6,0,0,0,.34,0,2.5,2.5,0,0,1-.18.83c.51.07.64-.32,1.31.08-.35-.36-1.12-1-.83-1.35a.45.45,0,0,1,.18,0l.05,0c.06-.08,0-.16-.05-.25a.59.59,0,0,0,.19-.3c.43,0,.28-.42.33-.61-.56-.05-.44-.3-.93-.12,0,0,.06.05.07.18a.16.16,0,0,0,.05.09l-.05,0c0,.13,0,.3,0,.49-.27-.18-.49-.37-.15-.55-.35-.15-.7-.3-.87-.39.81-.17,1.3-.64,1.78-.65-.24-.63,0-1.43-1-1.93-.11-.19.33-.16.5-.21.09.11.06.23.21.3-.23-.37,0-1-.71-1.19.38-.39.65.32.6-.28l.21.11c1.31-1-1.64-2.11,0-3.21a.47.47,0,0,1-.27.12c.83-1.39-.27-3.09.95-4.41.26-.39-.2-.49-.53-.78l.61,0-.64-.51c-.43-.67,1.6-.88.73-1.76l-.42.05c.11-.27-.13-.9.33-.8-.07,0-.41-.14-.19-.22l.31,0-.45-.74c.28-.5,1.23.23,1.38-.53-.08-.3-.82-.92-1-.84,0,.12-.23.27-.54.25l-.14-.28c-.92-.16-1.84-.47-2.56.1l.51.51-.46.09v-.38c-.44.17-.09.34.15.53a.8.8,0,0,0-.51.13l.83.54c-.37,0-.7-.28-.93,0,.39.25.83-.11,1.06.27-.44.16-.78.06-.45.35a.55.55,0,0,1-.48-.17c.26.25.05.6.53.77-.54.16.05.77-.82.65.2.09.64.47.65.68-1-.5-.15.76-1.26.53.91.38.3,1.05.76,1.6-.07,0-.21-.11-.16-.15-.11.27-.4.32-.6.47.77.13.9.58,1.35.87-.79.25-.89-.32-1.62-.29.63.05.56.66,1.1.6a1.64,1.64,0,0,1-.92.26c1,.16.14.26.71.54-.52.32-.92,0-.67.44C496.87,322.33,496.57,321.92,496.57,321.92Zm.51,10h0v0Zm-.09.83a1.28,1.28,0,0,0,.07-.36c.2,0,.39.05.37.13S497.17,332.62,497,332.73Zm4.08-1.27c.07.13-.05.17-.17.17a.85.85,0,0,0,0-.24l-.06,0A1.42,1.42,0,0,1,501.07,331.46Z"/><path class="cls-2" d="M500.37,331.13s0,0,0-.06l-.13.07.17.06Z"/><path class="cls-2" d="M489.76,405.49v0l-.08,0Z"/><polygon class="cls-2" points="494.53 343.94 494.67 343.95 494.56 343.87 494.53 343.94"/><path class="cls-2" d="M487.2,409.73a.28.28,0,0,0-.15,0A.56.56,0,0,0,487.2,409.73Z"/><path class="cls-2" d="M486.8,411.66l-.24.25A1,1,0,0,0,486.8,411.66Z"/><path class="cls-2" d="M486.31,413.12l.23.06h0Z"/><path class="cls-2" d="M489,389.19a.07.07,0,0,0,0-.06C488.91,389,488.94,389.07,489,389.19Z"/><path class="cls-2" d="M489.33,396.47a1.38,1.38,0,0,1-.23-.27C489,396.32,489,396.42,489.33,396.47Z"/><polygon class="cls-2" points="489.42 381.17 489.43 381.17 489.44 381.12 489.42 381.17"/><path class="cls-2" d="M489.15,395.87a.23.23,0,0,0,0,.33C489.15,396.1,489.22,396,489.15,395.87Z"/><path class="cls-2" d="M485.11,419.58l0,.07.09,0Z"/><path class="cls-2" d="M485.17,419.67l.05.09S485.23,419.69,485.17,419.67Z"/><path class="cls-2" d="M485.34,420l-.12-.19C485.21,419.82,485.18,419.89,485.34,420Z"/><path class="cls-2" d="M485.66,417.63l-.2-.05A.56.56,0,0,0,485.66,417.63Z"/><path class="cls-2" d="M485.69,417c-.07.14-.49.3-.39.52l.16,0C485.17,417.44,486,417.21,485.69,417Z"/><path class="cls-2" d="M488.55,414.87l-.24.48c.23-.06.54-.13.56.1C489.6,414.91,488.37,415.52,488.55,414.87Z"/><path class="cls-2" d="M489.09,413.34c.06.29.31,0,.43.08C489.35,413.22,489.3,413.17,489.09,413.34Z"/><path class="cls-2" d="M490.7,402l.51.1C491.16,401.89,491,402.08,490.7,402Z"/><polygon class="cls-2" points="488.39 399.48 488.05 399.63 488.5 399.8 488.39 399.48"/><polygon class="cls-2" points="492.18 398.7 492.24 398.8 492.1 398.43 492.18 398.7"/><path class="cls-2" d="M494.61,379.62l-.63,0C494.07,379.76,494.77,379.88,494.61,379.62Z"/><path class="cls-2" d="M495.07,371.31c.33-.05.56-.25.27-.44C495.27,371.05,495,371.21,495.07,371.31Z"/><polygon class="cls-2" points="499.27 346.75 499.46 346.94 499.33 346.61 499.27 346.75"/><path class="cls-2" d="M487,438.8c-.17,0-.53.19-.44.21l.63-.2Z"/><path class="cls-2" d="M486,439.52a6.39,6.39,0,0,0,1.42-.44c-.61.17-.37.07-1.1.27-.09,0,.17-.15.4-.22-.16,0,.12-.12-.28,0s-.46.31,0,.24A3,3,0,0,1,486,439.52Z"/><path class="cls-2" d="M488.34,443.66l-.09,0S488.32,443.67,488.34,443.66Z"/><path class="cls-2" d="M489.55,440.23s.09,0,.15,0A.2.2,0,0,0,489.55,440.23Z"/><path class="cls-2" d="M490.13,439.4l0,.05C490.15,439.42,490.18,439.4,490.13,439.4Z"/><path class="cls-2" d="M488.34,443.66l.22,0C488.39,443.57,488.4,443.65,488.34,443.66Z"/><path class="cls-2" d="M487.69,439.56l-.18,0h.08Z"/><path class="cls-2" d="M485.65,443.19v0l-.26.08Z"/><path class="cls-2" d="M485.23,442.33s.51-.16.74-.24a1.63,1.63,0,0,1-.37.09Z"/><path class="cls-2" d="M485.63,440.55h0Z"/><path class="cls-2" d="M485.78,443.88l-.19.08Z"/><path class="cls-2" d="M484.17,440.72l0-.09Z"/><polygon class="cls-2" points="483.83 438.21 483.84 438.17 483.83 437.85 483.83 438.21"/><path class="cls-2" d="M490.21,437.75h0C490.28,437.76,490.26,437.75,490.21,437.75Z"/><path class="cls-2" d="M479.36,439.8c.5-.05.62.32,1.18.21C480.32,440,479.69,439.67,479.36,439.8Z"/><path class="cls-2" d="M487.63,439.61a.05.05,0,0,1,0,0S487.66,439.61,487.63,439.61Z"/><path class="cls-2" d="M480.54,440h0Z"/><path class="cls-2" d="M487.26,435.57l-.07.24A.69.69,0,0,0,487.26,435.57Z"/><path class="cls-2" d="M488.78,437.67l0-.1A.17.17,0,0,0,488.78,437.67Z"/><path class="cls-2" d="M485.81,436c0-.05,0-.13-.07-.06V436C485.77,435.92,485.79,435.88,485.81,436Z"/><path class="cls-2" d="M484.59,435.91l0,.12,0,0Z"/><path class="cls-2" d="M484.74,440.9l.44-.26C484.83,440.84,484.69,440.86,484.74,440.9Z"/><path class="cls-2" d="M487.4,439.67l.23-.06h0Z"/><path class="cls-2" d="M485.14,440.36v-.08C485.13,440.33,485.13,440.36,485.14,440.36Z"/><path class="cls-2" d="M485,441.82v0Z"/><path class="cls-2" d="M485.07,440.35a3,3,0,0,0,0-.39v.15Z"/><path class="cls-2" d="M485.18,440.64Z"/><path class="cls-2" d="M484,441.21l.86-.76c.2-.09-.4.38-.68.62a4.12,4.12,0,0,1,.71-.46,2,2,0,0,1-.26.19c.5-.3.08.06.75-.26l-.16.1.88-.51s.45-.15,0,.09c0,0-.17.06-.31.13l.2-.06c-.6.35-.23.06-.68.3.22,0,.78-.21.63-.07-.61.29-.26,0-.78.3l.2-.18c-.93.54,0-.07-1,.5-.15.13.35-.09.2.05.35-.12.51-.22.87-.33.69-.07-1.59.65-.7.44.44-.12,1.28-.32.85-.13l-.75.16c-.06.08,1.09-.19.6,0-.3,0-.26,0-.35,0-.59.16.43-.05.45,0l-.67.11a3.15,3.15,0,0,1,.74.2,4.42,4.42,0,0,0-.63,0c.18.05.14.08,0,.1a.59.59,0,0,1-.23,0l-.14,0h0l.37.12-.28-.1.49.18a3.26,3.26,0,0,1-.42-.15,3,3,0,0,1,.51.26c.1.08.09.13-.18-.07l-.05,0c-.3-.28.83.72.39.37l-.07-.07c-.1-.06-.08,0-.12,0s-.1,0-.3-.44c.3.78-.15-.35.2.78a3.7,3.7,0,0,1-.2-.64l-.05-.21h0s0-.05,0,.06,0,.44,0,.5l0-.55v0s0,0,0,0v.46c0,.13,0,0,0-.16s0-.2,0-.3l0-.17c0-.07,0,.08,0,.15a2.25,2.25,0,0,1-.08.24l.12-.47c-.07.3,0,.14,0,0l0-.08v0s0-.06,0,0l-.14.47c.09-.37.1-.34,0-.22l.17-.39c0-.12-.13.18-.19.11a4.93,4.93,0,0,1-.56.83l.35-.54c-.24.32-.11.22-.42.6a4.44,4.44,0,0,1,.54-.78l-.16.16.33-.43c-.26.31.37-.53-.08,0l.12-.15c0-.05-.22.1-.29.07a4.6,4.6,0,0,1-.71.54c.09-.19.41-.46.36-.47-.26.12-.41.25-.71.4a5.91,5.91,0,0,1,.7-.45,2.93,2.93,0,0,0-.55.07c-.2.09-.27.14-.44.2s.18-.13.41-.21l.06,0c-.4.08-.07-.13.26-.24s.62-.15.07-.13h.05a4,4,0,0,1-.59,0c.08,0,.41,0,.73,0-.91-.09.13-.08-.47-.21.8.11.77.11.68.06s-.26-.16.24,0l-.36-.14c-.35-.16.21.07.29.1l-.51-.22c-.2-.15,0-.18.22-.07a1.9,1.9,0,0,1,.62.44c.05.08-1.27-1.5-.64-.84l.42.56c-.24-.34-.18-.37-.14-.36s.09,0,0-.31a3.46,3.46,0,0,1,.11.34c.18.46,0,0-.05-.37,0,0,.1.34.16.54s-.11-.62,0-.14l0,.19a3.75,3.75,0,0,0-.05-.5c.06.27,0-.25.1.08,0-.62.05.3.08-.57,0,.91,0,.73.09.31,0,.27,0,.29-.08.66a3.82,3.82,0,0,0,.15-.63c-.09.54,0,.33,0,.16s.15-.29-.07.37a1.54,1.54,0,0,1,.69-.79c-.5.75-.16,0-.62.84.21-.31.73-.91.68-.66s-.27.29-.37.41c.31-.24,0,.12.44-.14l-.2.14s-.09.1.24-.14l-.1.05a7.09,7.09,0,0,1,1.32-.83c-1,.63-.16.28-1.45,1a3.72,3.72,0,0,0,.47-.27,2,2,0,0,1-.46.3c.21-.08.59-.3.62-.24l-.47.22c.36-.16.72-.28.6-.15l-.25.1c.09,0,1-.18.73.09a9.94,9.94,0,0,0-1,.31h.23l.35-.1c0,.05.55,0,.31.12h-.31l.16.1.27-.11c.39,0,.93-.14.74,0-.07,0,0,.1-.43.17h0c.24,0,.49.06.31.13s-.83,0-1,0c.63,0,.17.15.83.24a5.28,5.28,0,0,0-.62-.05l.5.06a1.62,1.62,0,0,1-.55,0c-.1.09.95,0,.53.14,0,0-.12,0-.19-.05-.23.09.29.3,0,.37-.74-.14-.16-.13-.79-.23.12.12.8.52.56.62h.09c1,.44-.53-.1-.1.17a3.9,3.9,0,0,0-.41-.22c-.2,0,.16.27.32.6l-.21-.18c-.23-.09-.19,0-.33,0a3.75,3.75,0,0,0,.45.45,1.69,1.69,0,0,0-.47-.28l2.13.49c.05-.26-1.17,0-.29-.58,0,0,.25,0,.24,0l-.31-.13a3.37,3.37,0,0,0-.58.3c-.26.06-.49.08-.5,0a2.31,2.31,0,0,0,.92-.39c-.13.06-.28.1-.42.15.73-.4-.88.3-.41,0l.23-.08c-.14,0-.46,0-.42,0,.5-.21.26,0,.67-.17-.06-.07-1,.18-.54-.08.16,0,.18,0,.33,0,.56-.3.41-.25.48-.35h0l.21-.24-.15.09c-1.34.38-.32-.13-1.23,0,.87-.15.48-.14,1.05-.34a1.69,1.69,0,0,1,.47-.26c-.48.1.32-.25-.39-.1.19-.07,0-.08.46-.23-.18,0-.31.14-.54.21-.68.1.64-.59-.29-.47-.42,0-1.05.15-1.41.11a2,2,0,0,1,.68-.2c.24-.19.17-.23-.07-.24a2.4,2.4,0,0,0,.49-.21c-.07,0-.68.21-.44,0s.54-.16.75-.2c-.19,0-.56,0-.76,0a3.56,3.56,0,0,1,.72-.18,1.39,1.39,0,0,0-.88,0l-.16.12a1.76,1.76,0,0,1,.53-.18c.42-.07-.14.17-.32.24h-.14c-1.05.45.26.16.23.3l-.79.24.69-.13a2.69,2.69,0,0,1-.76.27c-.36.22.3,0-.11.2a.3.3,0,0,1-.13,0h.26c-.17,0-.55.21-.45.12-.4.31.67,0,.1.29h-.06c.34.1.58-.19,1.31-.29l-1.38.62.58-.19s0,.08-.27.16c.42-.07.24-.11.63-.2-.48.29.34.18-.56.54.45-.12.3-.22.64-.22-1,.39.22.06-.2.31s-.28,0-.7.23c.87-.26-.13.24.07.26.68-.25.34.06.61.1-.23.08-.28.38-.49.59l-.11,0c.7-.23.61-.06.78,0a2.93,2.93,0,0,1-.78.21l0,.08a.91.91,0,0,1,.46-.05l-.53.17c.07.1.69,0,.4.27a6.81,6.81,0,0,1,1.67-.58,4.5,4.5,0,0,1-.82.27s.24,0,.13,0l-.46.1c-.16.13.38-.1.36,0-.37.14-.25.14-.55.24,0,0,.14-.1,0-.07a1.32,1.32,0,0,1-.51.36,2,2,0,0,1,.56-.16s0,.07-.08.1l1.81.42c.13.09.3.31.45.36-.17-.23.11-.11-.31-.52,0,0,.24.15.37.24-.12-.24.21-.37-.34-.68h0l0,0h0c-.32-.52.57-.23.49-.6l.17.1c-.13-.24,0-.37-.33-.62a1.22,1.22,0,0,1,.59.13c-.1-.16-.31-.23,0-.3.29.22.3.05.2.2.21-.1.54-.07,0-.37.48.19.65,0,.52-.09l-.38,0c-.05-.1,0-.16.07-.23l.64.17c.43-.12.12-.36-.14-.53s-.47-.3.22-.42c-.46-.1-.34.18-.88.08.1-.13,1.06-.3,1.05-.36.36-.27-1-.17-.74-.4a2.72,2.72,0,0,1-1.1,0,2.25,2.25,0,0,1,1.17-.24s-.05.07-.13.08a.55.55,0,0,0,.45,0h-.24c.23-.1.17-.33.56-.34a.45.45,0,0,0-.5.12c.31-.27-.05-.32.12-.59-.11.07-.38.17-.38.14.21-.38-.47,0-.63-.16.31-.22.84-.23.48-.33a1.2,1.2,0,0,1,.78-.26c-.49,0,.13-.5.14-.67l.23,0c-.14,0-.16-.08-.19-.14l-.39.27c0-.1,0-.16.19-.25a9.41,9.41,0,0,1-1.11.48c.17-.19-.35-.08.18-.42-.05.34.53-.35.75-.18-.1,0-.12-.06-.09-.17a.29.29,0,0,1,.16-.05c.33-.56-.67.24-.81,0,.31-.17.51-.44.42-.44.07.11-.46.39-.73.47.11-.31-.28,0-.31-.11l0,.16c-.3.19-.3.1-.46.1.2-.19.21-.06.28-.16-.55.33.28-.65-.15-.5.1-.23.45-.48.5-.66-.48.19.12-.54-.32-.41-.24.42-.17.33-.57.6l.5,0c-.22.12-.42.25-.62.38.07.07.36-.09.35,0-.33.22-.24.14-.47.47.36-.63-.44.16-.26-.29l.69-1c.05-.61-.72.24-.86-.16v.23c-.25.4-.2,0-.38.1a2.19,2.19,0,0,0,.22-.76c-.1.27-.23-.12-.53.61,0-.18,0-.36,0-.54-.22-.29-.6,1-.77.82.16-.41.11-.71.35-1-.09,0-.15-.11-.21.16,0-.26-.32.48-.33.1-.06.16-.12.57-.2.53a1.54,1.54,0,0,1,0-.2c0,.2-.15.26-.12.7,0-.63-.22-.62-.37-.58s-.29.11-.45-.41a1.59,1.59,0,0,1-.48.33c0-.11,0-.19,0-.15-.3-.32.14,1.12-.16.77-.29-.59,0-.36-.12-.58-.4-1.24-.23.23-.63-.43v-.08c-.3-.37-.13.55-.35.55a.91.91,0,0,0-.09-.18,2.28,2.28,0,0,1,0,1.17,2.22,2.22,0,0,0-.39-.68c0,.1.47.69.43.87a7.45,7.45,0,0,1-.79-.77l.12-.11c-.49-.53-.17.14-.32.09l-.18-.25c-.17.25.36.84.13,1l.19.15c.46.62-.41-.24-.08.25l-.62-.49c.08.21.35.72.4.93a3.22,3.22,0,0,1-.7-1.07c-.08.07-.2.3.1.57,0-.07-.17-.24-.05-.19.42.48.6.75.5.88-.64-.42-.79-.37-.92-.27s-.2.26-.77.08c.35.56-.5.64-.51,1.16,1.2.1,0,.14,1.21.35.08.1.06.13,0,.12a6.7,6.7,0,0,0-.74.19c-.36,0-.26-.13-.54-.15-.1.23-.52,0-.85.19.44,0,.62.14.45.28l.57-.17c.64.35-1,.27-.35.64l-.39-.11c.24.18.07.74,1.1.75-.13.05-.45.15-.56.08,0,.23.3.42.57.57s.49.27.27.52l-.29.09c.12,0,.58-.1.34.11-.11.05-.29.09-.29.14s.58,0,.47.12l-.34.08c-.12.57,1,.15,1.37.24a1.39,1.39,0,0,0-.72,1.17l-.1.08c.24.45,1.09.07,1.59,0-.37.92.47.84.68,1.5a1.36,1.36,0,0,1,.4-.67c0,.21.47-.46.17.29l0,0c-.2.77.13.65.31.72l.3-1c0,.81.4.74.7.59s.52-.31.72.35c.1-.28.26-.29.33-.57l.08.56a.93.93,0,0,0,1-.17l.05.41c.28-.07-.3-1.63-.17-1.72l.42.74c.32-.19,1.19.14,1-.74.08.1.23.29.2.37.16-.12,1-.27.08-.94.29.24.38.16.38,0a2,2,0,0,0-.25-.63l.47.31c-.52-.52-.7-.61-.78-.88.09,0,.43.15.27.15.35,0-.42-.33-.09-.39l.31.2c.1-.16-.09-.22-.46-.43-.18-.15.22-.23.72-.15-.29-.1-.67-.26-.52-.32a.86.86,0,0,1,.35.1c.42-.23-.59-.46,0-.59a1.29,1.29,0,0,0,.34,0c0,.23-.09.41-.13.38.51.08.63-.13,1.31.12-.37-.24-1.17-.56-.94-.71l.18,0,.05,0c.05,0,0-.08-.08-.11.08-.06.14-.1.15-.16.42,0,.21-.24.23-.34-.56.06-.48-.06-.94.09,0,0,.07,0,.1.07l.06,0h0a.93.93,0,0,1,0,.21c-.29-.06-.53-.1-.23-.22h-.91c.78-.18,1.15-.47,1.62-.59-.35-.21-.34-.61-1.4-.42-.15,0,.26-.17.41-.24s.11.05.27,0c-.31-.06-.24-.37-.93-.12.24-.28.67-.17.46-.34l.22-.06c.43-.46-.1-.47-.56-.42s-.88.14-.41-.52a.63.63,0,0,1-.17.2c.11-.43-.25-.57-.53-.7s-.55-.26-.57-.84c-.06-.27-.3.13-.54.41L486,437a6.41,6.41,0,0,0-.45.58c-.2.2-.15-.16-.16-.49s-.09-.62-.37-.16l-.06.4c-.09-.08-.37.22-.27-.24,0,.07-.1.42-.11.2l0-.31a3.39,3.39,0,0,0-.32.56c-.18-.19.13-1.26-.22-1.28a2.21,2.21,0,0,0-.28,1.19s.12.18.13.5l-.08.18a22.33,22.33,0,0,0,.15,2.31A4.75,4.75,0,0,1,484,440v.41l0,0c0,.39,0,0,.06-.2l0,.46c0-.28.07-.56.13-.85,0,.35-.1.69-.1.87.07-.39.07-.77.15-1,0,.4-.09.72,0,.38a4.28,4.28,0,0,1-.1.47c.07-.27.07-.11.2-.58-.1.49.13-.12-.12.71a3.63,3.63,0,0,1,.28-.67c-.4,1,.07.08-.39,1.11.4-.86.22-.36.52-.79a1.5,1.5,0,0,1-.1.15,2.23,2.23,0,0,1-.27.47,6.7,6.7,0,0,1,.89-1.13c-.44.62-.58.71-1,1.3.39-.51.41-.49.75-.89a6.62,6.62,0,0,1-.56.66c.67-.72.12-.11.56-.52-.32.37-.66.64-.42.46Zm1.86.46h0l0,0Zm0,.13s0,0,0-.05a1.22,1.22,0,0,1,.38,0A3,3,0,0,0,485.82,441.8Zm3.89-.55c.08.06,0,.09-.14.1a.26.26,0,0,0-.07-.1h.21Z"/><path class="cls-2" d="M489,441.2l0,0-.13,0H489Z"/><path class="cls-2" d="M488.24,443.64h0l-.07,0Z"/><path class="cls-2" d="M485,441.75Z"/><path class="cls-2" d="M488,442.19l.13-.07Z"/><path class="cls-2" d="M487.93,441.6l.16-.15A.8.8,0,0,0,487.93,441.6Z"/><path class="cls-2" d="M488,441.08l-.23.08h0Z"/><path class="cls-2" d="M485.88,440.06h0C485.77,440.13,485.8,440.11,485.88,440.06Z"/><path class="cls-2" d="M487.46,440.72l-.27,0S487.14,440.74,487.46,440.72Z"/><polygon class="cls-2" points="485.14 440.37 485.14 440.36 485.14 440.36 485.14 440.37"/><path class="cls-2" d="M487.19,440.62c-.11,0-.08.05,0,.07S487.28,440.63,487.19,440.62Z"/><path class="cls-2" d="M487.6,439.17l0,0-.09,0Z"/><path class="cls-2" d="M487.53,439.17h-.07S487.47,439.19,487.53,439.17Z"/><path class="cls-2" d="M487.31,439.17h.15S487.47,439.13,487.31,439.17Z"/><path class="cls-2" d="M487.56,439.82l.2-.07Z"/><path class="cls-2" d="M487.68,440c0-.06.37-.25.23-.27l-.15.05C488.05,439.68,487.34,440.05,487.68,440Z"/><path class="cls-2" d="M485.58,441.54l.1-.2c-.2.1-.46.24-.53.19C484.6,441.93,485.59,441.33,485.58,441.54Z"/><path class="cls-2" d="M485.44,442.09c-.12,0-.29.11-.41.15A.61.61,0,0,0,485.44,442.09Z"/><path class="cls-2" d="M489.3,442.64l.47.18C489.74,442.71,489.59,442.76,489.3,442.64Z"/><polygon class="cls-2" points="486.92 441.35 486.6 441.33 487.05 441.43 486.92 441.35"/><polygon class="cls-2" points="490.58 441.36 490.65 441.41 490.47 441.23 490.58 441.36"/><path class="cls-2" d="M484.78,435.41l.06.63C484.89,435.93,484.89,435.22,484.78,435.41Z"/><path class="cls-2" d="M481.6,437.27c-.25-.2-.48-.27-.3,0C481.39,437.23,481.62,437.35,481.6,437.27Z"/><polygon class="cls-2" points="483.96 446.49 483.82 446.67 484.04 446.54 483.96 446.49"/></g></g></svg>